<?xml version="1.0" encoding="utf-8"?>
<!-- Generator: Adobe Illustrator 16.0.0, SVG Export Plug-In . SVG Version: 6.00 Build 0)  -->
<!DOCTYPE svg PUBLIC "-//W3C//DTD SVG 1.1//EN" "http://www.w3.org/Graphics/SVG/1.1/DTD/svg11.dtd">
<svg version="1.1" id="Calque_1" xmlns="http://www.w3.org/2000/svg" xmlns:xlink="http://www.w3.org/1999/xlink" x="0px" y="0px"
	 width="16px" height="95.998px" viewBox="0 0 16 95.998" enable-background="new 0 0 16 95.998" xml:space="preserve">
<g>
	
		<line fill="none" stroke="#CCCCDA" stroke-width="3" stroke-linecap="round" stroke-miterlimit="10" x1="6.475" y1="9.525" x2="1.525" y2="14.475"/>
	<g>
		<path fill="#CCCCDA" d="M10,2.667c1.838,0,3.333,1.496,3.333,3.333S11.838,9.333,10,9.333S6.667,7.838,6.667,6
			S8.162,2.667,10,2.667 M10,0C6.686,0,4,2.686,4,6c0,3.314,2.686,6,6,6c3.314,0,6-2.686,6-6C16,2.686,13.314,0,10,0L10,0z"/>
	</g>
</g>
<g>
	
		<line fill="none" stroke="#000000" stroke-width="3" stroke-linecap="round" stroke-miterlimit="10" x1="6.475" y1="41.525" x2="1.525" y2="46.475"/>
	<g>
		<path d="M10,34.667c1.838,0,3.333,1.496,3.333,3.333S11.838,41.333,10,41.333S6.667,39.838,6.667,38S8.162,34.667,10,34.667
			 M10,32c-3.314,0-6,2.686-6,6s2.686,6,6,6c3.314,0,6-2.686,6-6S13.314,32,10,32L10,32z"/>
	</g>
</g>
<g>
	
		<line fill="none" stroke="#FFFFFF" stroke-width="3" stroke-linecap="round" stroke-miterlimit="10" x1="6.475" y1="73.525" x2="1.525" y2="78.475"/>
	<g>
		<path fill="#FFFFFF" d="M10,66.667c1.838,0,3.333,1.496,3.333,3.333S11.838,73.333,10,73.333S6.667,71.838,6.667,70
			S8.162,66.667,10,66.667 M10,64c-3.314,0-6,2.686-6,6s2.686,6,6,6c3.314,0,6-2.686,6-6S13.314,64,10,64L10,64z"/>
	</g>
</g>
</svg>
