<?xml version="1.0" standalone="no"?>
<!DOCTYPE svg PUBLIC "-//W3C//DTD SVG 1.1//EN" "http://www.w3.org/Graphics/SVG/1.1/DTD/svg11.dtd" >
<svg xmlns="http://www.w3.org/2000/svg" xmlns:xlink="http://www.w3.org/1999/xlink" version="1.1">
<metadata>
Created by FontForge 20170731 at Thu May 15 13:42:26 2003
 By ,,,
Copyright (c) 1991, 2002 Adobe Systems Incorporated. All Rights Reserved.  (c) Copyright 1991, 2002 The Monotype Corporation Plc. All Rights Reserved.
</metadata>
<defs>
<font id="PlantinStd-Semibold" horiz-adv-x="531" >
  <font-face 
    font-family="Plantin Std Semibold"
    font-weight="600"
    font-stretch="normal"
    units-per-em="1000"
    panose-1="2 4 7 3 5 5 6 2 4 3"
    ascent="695"
    descent="-305"
    x-height="450"
    cap-height="682"
    bbox="-156 -250 1028 926"
    underline-thickness="50"
    underline-position="-200"
    unicode-range="U+0020-FB02"
  />
<missing-glyph horiz-adv-x="500" 
d="M0 0v700h500v-700h-500zM250 395l170 255h-340zM280 350l170 -255v510zM80 50h340l-170 255zM50 605v-510l170 255z" />
    <glyph glyph-name="f_i" unicode="fi" horiz-adv-x="635" 
d="M215 401v-279q0 -53 20 -70.5t80 -15.5v-36h-299v36q53 -3 70.5 18.5t17.5 73.5v273h-85v49q51 -1 64 12q6 6 29.5 68.5t57.5 96.5q69 69 193 69q73 0 116.5 -23.5t43.5 -61.5q0 -22 -16 -36.5t-40 -14.5q-23 0 -41 15t-28.5 33t-32 33t-49.5 15q-49 0 -75 -38.5
t-26 -105.5v-62h218q57 0 81 12h30v-334q0 -50 16.5 -72t65.5 -20v-36h-270v36q42 -1 59.5 18.5t17.5 62.5v208q0 45 -15 60.5t-57 15.5h-146z" />
    <glyph glyph-name="f_l" unicode="fl" horiz-adv-x="635" 
d="M214 401v-273q0 -57 18.5 -76t80.5 -16v-36h-299v36q48 -3 68.5 16t20.5 70v279h-86v49q51 -3 65 11q9 9 16.5 37.5t24.5 66t48 68.5q63 63 188 63q29 0 69 -5q6 -1 13.5 -2.5t11 -2.5t5.5 -1q29 0 54 11h31v-579q0 -42 18 -63t63 -18v-36h-269v36q45 -1 61 20.5t16 71.5
v273h-218zM432 450v116q-14 10 -31 34t-24 31q-26 26 -65 26q-50 0 -76 -44q-22 -37 -22 -111v-52h218z" />
    <glyph glyph-name=".notdef" horiz-adv-x="500" 
d="M0 0v700h500v-700h-500zM250 395l170 255h-340zM280 350l170 -255v510zM80 50h340l-170 255zM50 605v-510l170 255z" />
    <glyph glyph-name=".null" horiz-adv-x="0" 
 />
    <glyph glyph-name="nonmarkingreturn" horiz-adv-x="333" 
 />
    <glyph glyph-name="space" unicode=" " horiz-adv-x="265" 
 />
    <glyph glyph-name="exclam" unicode="!" horiz-adv-x="292" 
d="M204 533l-43 -307q-1 -12 -4 -15t-12 -3q-10 0 -12 18l-44 307q-11 74 -11 111q0 52 44 52h50q43 0 43 -53q0 -36 -11 -110zM146 135q31 0 52 -21t21 -52t-21 -52.5t-52 -21.5t-52.5 21.5t-21.5 52.5t21.5 52t52.5 21z" />
    <glyph glyph-name="quotedbl" unicode="&#x22;" horiz-adv-x="555" 
d="M366 367l-35 160q-11 52 -11 81q0 25 16 42t40 17q26 0 42.5 -16.5t16.5 -42.5q0 -31 -11 -81l-36 -160h-22zM166 367l-35 160q-11 52 -11 81q0 25 16 42t40 17q26 0 42.5 -16.5t16.5 -42.5q0 -31 -11 -81l-36 -160h-22z" />
    <glyph glyph-name="numbersign" unicode="#" horiz-adv-x="668" 
d="M128 170h-88v81h105l33 159h-138v81h155l40 191h81l-40 -191h183l40 191h81l-40 -191h87v-81h-104l-33 -159h137v-81h-154l-40 -190h-81l40 190h-183l-40 -190h-81zM259 410l-33 -159h183l33 159h-183z" />
    <glyph glyph-name="dollar" unicode="$" horiz-adv-x="510" 
d="M269 658q73 0 122.5 -40t49.5 -86q0 -14 -14 -24t-34 -10q-12 0 -19.5 12t-13 29.5t-13.5 35t-28 31.5t-50 16v-212q119 -78 157.5 -123.5t38.5 -106.5q0 -76 -55 -130t-141 -54v-82h-36v83q-47 0 -85 13.5t-58 33t-30.5 36.5t-10.5 28q0 14 15.5 25.5t28.5 11.5
q15 0 26.5 -15.5t19.5 -35t32 -38t62 -23.5v250q-113 74 -150.5 116.5t-37.5 96.5q0 80 68 129q47 34 120 34v37h36v-38zM269 258v-226q48 3 75.5 31.5t27.5 69.5q0 35 -21 59.5t-82 65.5zM233 431v192q-45 -3 -71 -25.5t-26 -58.5q0 -52 97 -108z" />
    <glyph glyph-name="percent" unicode="%" horiz-adv-x="813" 
d="M505 171q0 79 36.5 127.5t95.5 48.5t95.5 -48.5t36.5 -127.5t-36.5 -128t-95.5 -49t-95.5 49t-36.5 128zM687 171q0 86 -10.5 118.5t-39.5 32.5t-39.5 -31.5t-10.5 -119.5q0 -87 10.5 -119.5t39.5 -32.5t39.5 32.5t10.5 119.5zM44 491q0 79 36.5 127.5t95.5 48.5
t95.5 -48.5t36.5 -127.5t-36.5 -128t-95.5 -49t-95.5 49t-36.5 128zM226 491q0 86 -10.5 118.5t-39.5 32.5t-39.5 -31.5t-10.5 -119.5q0 -87 10.5 -119.5t39.5 -32.5t39.5 32.5t10.5 119.5zM156 -42l449 738h53l-449 -738h-53z" />
    <glyph glyph-name="ampersand" unicode="&#x26;" horiz-adv-x="802" 
d="M541 440h217v-36q-27 -3 -46.5 -19.5t-50.5 -61.5l-88 -129l53 -72q69 -93 136 -100v-36h-73q-67 0 -104.5 22.5t-83.5 87.5q-93 -110 -238 -110q-92 0 -151.5 60.5t-59.5 126.5q0 52 42 99t169 127q-72 93 -72 140q0 58 54 107.5t117 49.5q53 0 98.5 -41t45.5 -88
q0 -73 -120 -134q65 -61 166 -209q54 83 54 123q0 50 -65 57v36zM308 515l54 -56q79 48 79 93q0 30 -29.5 69t-66.5 39q-29 0 -51.5 -23t-22.5 -51q0 -33 37 -71zM288 370q-58 -36 -83.5 -66.5t-25.5 -64.5q0 -64 50.5 -125t116.5 -61q70 0 133 73q-67 97 -191 244z" />
    <glyph glyph-name="quotesingle" unicode="'" horiz-adv-x="278" 
d="M127 367l-35 160q-11 52 -11 81q0 25 16 42t40 17q25 0 42 -16.5t17 -42.5q0 -31 -11 -81l-36 -160h-22z" />
    <glyph glyph-name="parenleft" unicode="(" horiz-adv-x="375" 
d="M329 696l18 -31q-188 -143 -188 -413q0 -269 188 -412l-18 -31q-115 65 -184.5 186.5t-69.5 257.5q0 135 69.5 256.5t184.5 186.5z" />
    <glyph glyph-name="parenright" unicode=")" horiz-adv-x="375" 
d="M28 665l18 31q115 -65 184.5 -186.5t69.5 -257.5q0 -135 -69.5 -256.5t-184.5 -186.5l-18 31q188 143 188 413q0 269 -188 412z" />
    <glyph glyph-name="asterisk" unicode="*" horiz-adv-x="500" 
d="M250 407l-118 -129l-28 21l86 151l-160 72l10 34l173 -34l19 174h36l19 -174l173 34l10 -34l-160 -72l86 -151l-28 -21z" />
    <glyph glyph-name="plus" unicode="+" horiz-adv-x="667" 
d="M63 315h225v225h90v-225h225v-90h-225v-225h-90v225h-225v90z" />
    <glyph glyph-name="comma" unicode="," horiz-adv-x="292" 
d="M75 -155v21q0 7 9 7q38 0 65 30t27 72q0 21 -9 29.5t-30 8.5q-33 0 -50 16.5t-17 46.5q0 31 17.5 50t44.5 19q41 0 69 -38t28 -94q0 -46 -16 -82t-39.5 -55t-45.5 -28.5t-40 -9.5q-13 0 -13 7z" />
    <glyph glyph-name="hyphen" unicode="-" horiz-adv-x="385" 
d="M347 275v-97h-308v97h308z" />
    <glyph glyph-name="period" unicode="." horiz-adv-x="292" 
d="M146 135q31 0 52 -21t21 -52t-21 -52.5t-52 -21.5t-52.5 21.5t-21.5 52.5t21.5 52t52.5 21z" />
    <glyph glyph-name="slash" unicode="/" horiz-adv-x="296" 
d="M310 696l-233 -831h-91l233 831h91z" />
    <glyph glyph-name="zero" unicode="0" 
d="M53 328q0 163 63.5 251t149.5 88q89 0 151 -91t62 -248q0 -160 -62.5 -250t-150.5 -90q-85 0 -149 85.5t-64 254.5zM171 328q0 -129 9 -193.5t33 -88.5q22 -22 53 -22q30 0 51 21q25 25 34.5 90t9.5 193q0 130 -9 193.5t-35 89.5q-20 20 -51 20q-32 0 -54 -22
q-41 -41 -41 -281z" />
    <glyph glyph-name="one" unicode="1" 
d="M327 667v-538q0 -55 21 -75.5t90 -17.5v-36h-334v36q67 -2 89.5 17t22.5 82v334q0 34 -12 48t-43 14h-67v36q60 14 113.5 42t83.5 58h36z" />
    <glyph glyph-name="two" unicode="2" 
d="M470 174l-57 -174h-371v56l50 50q130 130 183.5 212.5t53.5 153.5q0 53 -36 88.5t-89 35.5q-64 0 -129 -61l-24 26q55 56 106 81t110 25q79 0 129.5 -45.5t50.5 -112.5q0 -55 -33.5 -113.5t-126.5 -150.5q-98 -98 -163 -155h179q59 0 80.5 14t49.5 70h37z" />
    <glyph glyph-name="three" unicode="3" 
d="M83 548l-24 26q72 93 186 93q73 0 121 -39t48 -99q0 -87 -105 -131v-2q65 -16 101.5 -64.5t36.5 -116.5q0 -98 -74 -162.5t-186 -64.5q-60 0 -98.5 15t-38.5 38q0 16 15.5 31.5t31.5 15.5q17 0 60.5 -30t71.5 -30q47 0 77.5 40.5t30.5 102.5q0 73 -37 111.5t-107 38.5
q-33 0 -76 -5l6 36q184 26 184 143q0 47 -30.5 78t-76.5 31q-58 0 -117 -56z" />
    <glyph glyph-name="four" unicode="4" 
d="M403 164v-176h-111v176h-256v66l301 437h66v-428h85v-75h-85zM292 239v301h-2l-204 -301h206z" />
    <glyph glyph-name="five" unicode="5" 
d="M204 565l-44 -92q131 -21 208.5 -86t77.5 -159q0 -33 -15 -71.5t-45 -77.5t-88 -65t-133 -26q-52 0 -81.5 10.5t-29.5 29.5q0 17 12 32.5t26 15.5q12 0 59.5 -17t82.5 -17q55 0 93.5 39t38.5 95q0 70 -70.5 118.5t-220.5 83.5l131 277h208l18 32l32 -15l-59 -107h-201z
" />
    <glyph glyph-name="six" unicode="6" 
d="M418 667l19 -32q-106 -27 -168 -95t-86 -181q73 48 129 48q70 0 117.5 -57.5t47.5 -143.5q0 -97 -58 -157.5t-152 -60.5q-104 0 -161.5 67t-57.5 188q0 90 31 166.5t83.5 128.5t118 85t137.5 44zM166 216q0 -93 27 -142.5t77 -49.5q43 0 66 39.5t23 111.5q0 80 -24.5 125
t-68.5 45q-37 0 -93 -31q-7 -55 -7 -98z" />
    <glyph glyph-name="seven" unicode="7" 
d="M478 655l-263 -667h-57l226 570h-193q-59 0 -79 -13.5t-33 -65.5h-37l52 176h384z" />
    <glyph glyph-name="eight" unicode="8" 
d="M327 362q85 -58 120 -105.5t35 -98.5q0 -78 -60.5 -124t-161.5 -46q-94 0 -149.5 41.5t-55.5 111.5q0 53 35 95.5t113 83.5q-79 52 -108 94.5t-29 88.5q0 69 54.5 116.5t154.5 47.5q80 0 130.5 -38.5t50.5 -99.5q0 -46 -31 -85.5t-98 -81.5zM225 437l71 -55q91 60 91 136
q0 49 -33.5 81t-84.5 32q-46 0 -78.5 -26t-32.5 -64q0 -53 67 -104zM233 294q-98 -74 -98 -157q0 -52 33.5 -82.5t90.5 -30.5q58 0 95 28t37 71q0 33 -23 62t-76 67z" />
    <glyph glyph-name="nine" unicode="9" 
d="M115 -12l-25 31q43 10 81 28t76 50t65 85t37 121q-69 -54 -139 -54t-117.5 57t-47.5 142q0 98 59 158.5t154 60.5q96 0 156 -63.5t60 -197.5q0 -65 -12.5 -121t-33 -96.5t-50.5 -73t-61 -54t-68 -37t-68.5 -23.5t-65.5 -13zM353 346q3 24 3 77q0 208 -104 208
q-43 0 -66 -40t-23 -113q0 -166 97 -166q42 0 93 34z" />
    <glyph glyph-name="colon" unicode=":" horiz-adv-x="292" 
d="M72 389q0 31 21.5 52t52.5 21t52 -21t21 -52t-21 -52.5t-52 -21.5t-52.5 21.5t-21.5 52.5zM72 62q0 31 21.5 52t52.5 21t52 -21t21 -52t-21 -52.5t-52 -21.5t-52.5 21.5t-21.5 52.5z" />
    <glyph glyph-name="semicolon" unicode=";" horiz-adv-x="292" 
d="M229 13q0 -46 -16 -82t-39.5 -55t-45.5 -28.5t-40 -9.5q-13 0 -13 7v21q0 7 9 7q38 0 65 30t27 72q0 21 -9 29.5t-30 8.5q-33 0 -50 16.5t-17 46.5q0 31 17.5 50t44.5 19q41 0 69 -38t28 -94zM72 389q0 31 21.5 52t52.5 21t52 -21t21 -52t-21 -52.5t-52 -21.5t-52.5 21.5
t-21.5 52.5z" />
    <glyph glyph-name="less" unicode="&#x3c;" horiz-adv-x="667" 
d="M602 4l-538 225v82l538 225v-98l-415 -168l415 -169v-97z" />
    <glyph glyph-name="equal" unicode="=" horiz-adv-x="667" 
d="M64 432h539v-90h-539v90zM64 200h539v-90h-539v90z" />
    <glyph glyph-name="greater" unicode="&#x3e;" horiz-adv-x="667" 
d="M64 4v97l416 169l-416 168v98l538 -225v-82z" />
    <glyph glyph-name="question" unicode="?" horiz-adv-x="458" 
d="M185 210h-35q-3 56 -10.5 110t-7.5 62q0 10 6 16q6 7 77 20t98 40q20 20 20 54q0 43 -36 80t-79 37q-27 0 -70.5 -19.5t-57.5 -19.5q-36 0 -36 47q0 59 99 59q85 0 167 -75.5t82 -174.5q0 -49 -33 -82t-96 -49.5t-71 -24.5q-20 -20 -17 -80zM170 135q31 0 52 -21t21 -52
t-21 -52.5t-52 -21.5t-52.5 21.5t-21.5 52.5t21.5 52t52.5 21z" />
    <glyph glyph-name="at" unicode="@" horiz-adv-x="930" 
d="M695 471l-92 -316q-11 -39 -11 -64q0 -16 11 -27t25 -11q22 0 53.5 15.5t56.5 40.5q47 47 73.5 114.5t26.5 140.5q0 132 -86 218q-87 87 -230 87q-165 0 -288 -123q-65 -65 -100 -153t-35 -185q0 -172 108 -280q107 -107 274 -107q177 0 296 119q63 63 99 151h29
q-38 -122 -153.5 -210.5t-271.5 -88.5q-187 0 -308 122t-121 310q0 199 133.5 335.5t328.5 136.5q170 0 261.5 -96t91.5 -238q0 -82 -31 -159t-96.5 -131.5t-151.5 -54.5q-39 0 -61 19t-22 53q0 45 11 72l-2 2q-103 -146 -184 -146q-35 0 -59.5 32t-24.5 78q0 85 45 168.5
t106.5 133t113.5 49.5q31 0 50.5 -19t24.5 -51h2l15 55zM566 382q0 31 -14 50t-37 19q-36 0 -78.5 -56t-69.5 -128t-27 -120q0 -23 13.5 -41t30.5 -18q33 0 71 38q51 51 81 124.5t30 131.5z" />
    <glyph glyph-name="A" unicode="A" horiz-adv-x="760" 
d="M464 257h-251l-35 -96q-14 -39 -14 -63q0 -28 25.5 -45.5t73.5 -16.5v-36h-257v36q54 9 79 35.5t54 100.5l176 453l-22 57h139l231 -578q16 -39 34.5 -52.5t56.5 -15.5v-36h-340v36q112 -3 112 49q0 13 -15 52zM445 306l-112 274l-102 -274h214z" />
    <glyph glyph-name="B" unicode="B" horiz-adv-x="771" 
d="M28 682h426q108 0 173 -43.5t65 -125.5q0 -62 -47.5 -102t-137.5 -52v-2q97 -4 150.5 -49t53.5 -120q0 -30 -11.5 -61t-36.5 -60.5t-72 -48t-110 -18.5h-453v36q65 -3 84 19t19 93v400q0 57 -19 79.5t-84 18.5v36zM266 372h128q63 0 103 36.5t40 93.5q0 60 -42.5 102
t-123.5 42h-105v-274zM266 336v-194q0 -55 29 -80.5t101 -25.5q45 0 78.5 14t51 37t25.5 47t8 49q0 62 -42 107.5t-127 45.5h-124z" />
    <glyph glyph-name="C" unicode="C" horiz-adv-x="781" 
d="M686 641l24 -154h-60q-26 80 -84.5 126.5t-134.5 46.5q-84 0 -133 -49q-86 -86 -86 -272q0 -145 64.5 -231t172.5 -86q84 0 142 51t66 134h66l-10 -155q-132 -66 -299 -66q-174 0 -265.5 97.5t-91.5 244.5q0 88 32.5 159.5t87 116t121.5 68.5t139 24q120 0 249 -55z" />
    <glyph glyph-name="D" unicode="D" horiz-adv-x="833" 
d="M27 682h385q177 0 274.5 -93.5t97.5 -244.5q0 -65 -23.5 -125.5t-67.5 -110t-116.5 -79t-163.5 -29.5h-386v36q65 -2 84 19.5t19 92.5v402q0 56 -18.5 77t-84.5 19v36zM265 646v-506q0 -104 115 -104q116 0 180.5 80.5t64.5 226.5q0 61 -14.5 113t-45.5 96t-87 69
t-131 25h-82z" />
    <glyph glyph-name="E" unicode="E" horiz-adv-x="719" 
d="M26 682h614v-143h-55q-43 107 -167 107h-151v-270h111q71 0 101 19.5t37 69.5h66v-217h-66q-5 92 -106 92h-143v-196q0 -59 23 -83.5t95 -24.5q94 0 147.5 29.5t94.5 102.5h63l-38 -168h-626v36q64 -3 85 17.5t21 77.5v421q0 52 -20.5 75t-85.5 19v36z" />
    <glyph glyph-name="F" unicode="F" horiz-adv-x="656" 
d="M31 682h597v-146h-58q-24 54 -58 82t-89 28h-154v-278h105q59 0 84 21.5t32 78.5h56v-235h-56q-7 54 -33 76.5t-83 22.5h-105v-205q0 -51 20.5 -73t82.5 -18v-36h-341v36q61 -1 82 18t21 79v421q0 53 -20.5 74t-82.5 18v36z" />
    <glyph glyph-name="G" unicode="G" horiz-adv-x="823" 
d="M692 640l15 -159h-46q-31 86 -89.5 132.5t-135.5 46.5q-104 0 -164 -85t-60 -231q0 -149 70.5 -235.5t175.5 -86.5q60 0 119 34v165q0 51 -23.5 71.5t-85.5 16.5v36h345v-36q-57 4 -79 -16t-22 -75v-176q-124 -56 -272 -56q-179 0 -281 89.5t-102 247.5q0 75 24 141.5
t70.5 118.5t121 82.5t168.5 30.5q126 0 251 -56z" />
    <glyph glyph-name="H" unicode="H" horiz-adv-x="854" 
d="M263 324v-195q0 -53 20.5 -74t84.5 -19v-36h-344v36q62 -3 83 17.5t21 72.5v428q0 56 -21.5 75t-82.5 17v36h344v-36q-67 2 -86 -19t-19 -93v-161h324v183q0 49 -20 71.5t-82 18.5v36h345v-36q-65 3 -86.5 -17t-21.5 -81v-421q0 -53 22.5 -74t85.5 -17v-36h-345v36
q60 -2 81 16t21 76v196h-324z" />
    <glyph glyph-name="I" unicode="I" horiz-adv-x="396" 
d="M26 682h344v-36q-63 3 -84 -16.5t-21 -74.5v-425q0 -55 20.5 -76.5t84.5 -17.5v-36h-344v36q60 -3 82 16.5t22 74.5v429q0 52 -21.5 72.5t-82.5 17.5v36z" />
    <glyph glyph-name="J" unicode="J" horiz-adv-x="402" 
d="M32 682h332v-36q-52 1 -71 -20.5t-19 -77.5v-488q0 -104 -58.5 -177.5t-153.5 -73.5q-50 0 -78.5 18.5t-28.5 50.5q0 23 14.5 38t36.5 15q21 0 34.5 -12.5t18 -28t13.5 -28t21 -12.5q26 0 36 25.5t10 82.5v596q0 52 -20.5 73.5t-86.5 18.5v36z" />
    <glyph glyph-name="K" unicode="K" horiz-adv-x="781" 
d="M25 682h346v-36q-62 2 -83 -18.5t-21 -80.5v-171q121 76 193 148q56 56 56 90q0 16 -15.5 24.5t-43.5 7.5v36h283v-36q-60 1 -114 -25q-17 -8 -46 -35t-85.5 -79t-115.5 -100q47 -46 156 -173t125 -144q33 -33 53.5 -43t60.5 -11v-36h-199q-46 39 -166.5 182t-141.5 163
v-220q0 -51 22 -71.5t82 -17.5v-36h-346v36q61 -3 84 16t23 78v426q0 54 -22 73.5t-85 16.5v36z" />
    <glyph glyph-name="L" unicode="L" horiz-adv-x="667" 
d="M266 549v-404q0 -55 22 -82t91 -27q77 0 123.5 30.5t86.5 108.5h62l-44 -175h-575v36q59 -3 79 18t20 77v425q0 50 -19.5 71.5t-79.5 18.5v36h344v-36q-66 4 -88 -16.5t-22 -80.5z" />
    <glyph glyph-name="M" unicode="M" horiz-adv-x="1000" 
d="M80 682h247q-1 -60 29 -140.5t82.5 -187t72.5 -158.5q29 66 70 154t61 132t35.5 91t15.5 76q0 15 -2 33h249v-36q-107 7 -107 -63q0 -5 9 -73l48 -362q9 -67 27.5 -89.5t72.5 -22.5v-36h-334v36q59 0 82 17t23 63q0 29 -6 71l-47 369h-2q-12 -45 -108 -253.5t-114 -302.5
h-42q-2 54 -106.5 271t-124.5 283h-2l-55 -363q-7 -51 -7 -78q0 -42 26.5 -60.5t85.5 -16.5v-36h-246v36q49 0 69 25t34 114l52 331q8 48 8 71q0 71 -96 69v36z" />
    <glyph glyph-name="N" unicode="N" horiz-adv-x="781" 
d="M10 682h212l403 -485h2v326q0 75 -27.5 100t-105.5 23v36h284v-36q-66 4 -90.5 -19t-24.5 -79v-340q0 -21 8.5 -86t9.5 -132h-51l-455 545h-2v-380q0 -64 28.5 -90.5t103.5 -28.5v-36h-302v36q83 -1 108.5 25.5t25.5 115.5v401q-31 34 -59 48.5t-68 19.5v36z" />
    <glyph glyph-name="O" unicode="O" horiz-adv-x="854" 
d="M57 333q0 153 110 258t271 105q154 0 256.5 -97t102.5 -242q0 -150 -104 -260.5t-273 -110.5q-158 0 -260.5 100t-102.5 247zM212 356q0 -148 62.5 -241t162.5 -93q94 0 149.5 81.5t55.5 219.5q0 62 -12.5 119.5t-37 107.5t-68 80t-100.5 30q-97 0 -154.5 -82.5
t-57.5 -221.5z" />
    <glyph glyph-name="P" unicode="P" horiz-adv-x="709" 
d="M25 682h440q58 0 101.5 -18t67 -47t34.5 -61t11 -66q0 -83 -65 -135.5t-170 -52.5q-122 0 -122 27q0 23 17 23q7 0 22.5 -0.5t18.5 -0.5q147 0 147 130q0 77 -47 121t-128 44h-87v-516q0 -57 22.5 -77.5t90.5 -16.5v-36h-353v36q61 -3 83 16.5t22 75.5v425q0 56 -21.5 76
t-83.5 17v36z" />
    <glyph glyph-name="Q" unicode="Q" horiz-adv-x="854" 
d="M825 -104v-61q0 -17 -6 -21t-28 -4q-121 0 -241 61q-61 31 -118 68.5t-94 54.5q-110 20 -195.5 112.5t-85.5 225.5q0 154 110 259t271 105q154 0 256.5 -97t102.5 -242q0 -123 -76 -227t-204 -134q114 -86 308 -100zM212 356q0 -148 62.5 -241t162.5 -93q94 0 149.5 81.5
t55.5 219.5q0 86 -21.5 159.5t-72 125.5t-123.5 52q-97 0 -155 -82.5t-58 -221.5z" />
    <glyph glyph-name="R" unicode="R" horiz-adv-x="781" 
d="M30 682h417q111 0 174.5 -48.5t63.5 -125.5q0 -68 -51 -116.5t-136 -62.5q29 -33 105.5 -137.5t99.5 -127.5q17 -17 32.5 -23t40.5 -5v-36h-179q-47 40 -122.5 151t-99.5 135q-25 25 -69 25h-38v-187q0 -51 21.5 -71.5t85.5 -16.5v-36h-345v36q58 -2 80.5 16t22.5 79v424
q0 51 -20 72t-83 19v36zM268 347h67q106 0 152 37t46 106t-45 112.5t-136 43.5h-84v-299z" />
    <glyph glyph-name="S" unicode="S" horiz-adv-x="646" 
d="M63 504q0 79 61.5 135.5t190.5 56.5q110 0 221 -55l8 -146h-62q-15 79 -59 122t-110 43q-53 0 -87.5 -28.5t-34.5 -72.5q0 -38 31 -69q18 -18 76 -46t126.5 -66t109.5 -79q55 -55 55 -122q0 -24 -7 -48.5t-26 -50.5t-48 -46t-78 -33t-112 -13q-139 0 -247 50l-11 159h67
q22 -89 67.5 -131t118.5 -42q70 0 103.5 31t33.5 79q0 46 -30 76q-29 29 -147.5 85t-160.5 98q-49 49 -49 113z" />
    <glyph glyph-name="T" unicode="T" horiz-adv-x="719" 
d="M189 0v36q59 -2 81 17t22 76v517h-22q-76 0 -113 -24.5t-67 -94.5h-54v155h647v-155h-54q-30 70 -67 94.5t-113 24.5h-22v-517q0 -55 20.5 -75.5t82.5 -17.5v-36h-341z" />
    <glyph glyph-name="U" unicode="U" horiz-adv-x="802" 
d="M8 682h348v-36q-63 1 -84.5 -16t-21.5 -73v-307q0 -103 33 -138q54 -59 161 -59q103 0 155 52q25 25 38.5 69t13.5 89v246q0 75 -24 108t-92 29v36h260v-36q-56 1 -82 -19.5t-26 -78.5v-280q0 -136 -67 -209t-217 -73q-158 0 -228 70q-33 33 -46.5 85.5t-13.5 149.5v255
q0 61 -20 82t-87 18v36z" />
    <glyph glyph-name="V" unicode="V" horiz-adv-x="740" 
d="M18 682h326v-36q-47 0 -65 -11.5t-18 -38.5q0 -20 13 -55l111 -280q22 -55 34 -103h2l88 244q47 132 47 179q0 30 -21.5 47.5t-59.5 17.5v36h241v-36q-48 -2 -76 -28t-50 -89l-148 -418q-15 -42 -40 -125h-58q-37 114 -45 134l-160 417q-25 65 -51 88t-70 21v36z" />
    <glyph glyph-name="W" unicode="W" horiz-adv-x="1021" 
d="M15 682h289v-36q-64 -1 -64 -48q0 -17 12 -53l127 -376h2l118 344l-18 52q-17 49 -35.5 64t-59.5 17v36h304v-36q-43 0 -60.5 -10t-17.5 -33q0 -18 17 -66l129 -364h2l88 324q12 43 12 76q0 72 -91 73v36h233v-36q-37 0 -53 -8.5t-30.5 -39.5t-35.5 -108l-139 -504h-61
q-41 125 -59 177l-105 296h-2l-100 -296q-34 -100 -54 -177h-59l-181 542q-22 68 -42.5 90t-65.5 28v36z" />
    <glyph glyph-name="X" unicode="X" horiz-adv-x="813" 
d="M436 423l75 103q34 46 34 79q0 38 -67 41v36h260v-36q-66 0 -96.5 -22t-94.5 -109l-89 -121l214 -295q29 -41 50 -52t64 -11v-36h-363v36q83 0 83 45q0 26 -40 82l-88 122l-86 -117q-31 -42 -31 -79q0 -51 68 -53v-36h-281v36q62 -1 104 28.5t107 117.5l97 132l-184 251
q-38 52 -63.5 67.5t-72.5 13.5v36h360v-36q-76 0 -76 -38q0 -24 33 -71z" />
    <glyph glyph-name="Y" unicode="Y" horiz-adv-x="740" 
d="M439 282v-156q0 -54 22 -73.5t85 -16.5v-36h-353v36q64 -3 87.5 16.5t23.5 78.5v137l-159 296q-28 52 -50.5 68t-74.5 14v36h340v-36q-43 0 -61.5 -9t-18.5 -33q0 -19 25 -66l116 -215l107 181q31 53 31 85q0 54 -76 57v36h235v-36q-42 -1 -65.5 -19.5t-58.5 -79.5z" />
    <glyph glyph-name="Z" unicode="Z" horiz-adv-x="698" 
d="M627 682v-26l-419 -620h169q80 0 126 28.5t84 105.5h63l-42 -170h-554v36l412 610h-148q-73 0 -109 -22.5t-69 -90.5h-56v149h543z" />
    <glyph glyph-name="bracketleft" unicode="[" horiz-adv-x="365" 
d="M119 682h244v-36h-54q-44 0 -61.5 -16t-17.5 -60v-631q0 -42 15 -61t60 -19h58v-36h-244v859z" />
    <glyph glyph-name="backslash" unicode="\" horiz-adv-x="296" 
d="M-14 696h91l229 -831h-91z" />
    <glyph glyph-name="bracketright" unicode="]" horiz-adv-x="365" 
d="M246 682v-859h-244v36h58q45 0 60 19t15 61v631q0 44 -17.5 60t-61.5 16h-54v36h244z" />
    <glyph glyph-name="asciicircum" unicode="^" horiz-adv-x="581" 
d="M302 682l205 -351h-68l-149 250l-148 -250h-69l205 351h24z" />
    <glyph glyph-name="underscore" unicode="_" horiz-adv-x="500" 
d="M508 -125h-517v50h517v-50z" />
    <glyph glyph-name="grave" unicode="`" horiz-adv-x="333" 
d="M155 688l50 -163h-31l-140 163h121z" />
    <glyph glyph-name="a" unicode="a" horiz-adv-x="552" 
d="M535 92l11 -39q-60 -65 -122 -65q-56 0 -74 59q-102 -59 -174 -59q-57 0 -92 30t-35 79q0 55 51 89.5t156 59.5l90 22v78q0 80 -89 80q-37 0 -60 -17.5t-23 -46.5q0 -16 11 -42l-106 -37q-16 36 -16 63q0 50 54.5 83t160.5 33q89 0 134 -26.5t45 -92.5v-217q0 -53 32 -53
q17 0 46 19zM346 89v150q-48 -16 -74 -26.5t-53.5 -26t-39.5 -32.5t-12 -39q0 -27 21 -47.5t49 -20.5q49 0 109 42z" />
    <glyph glyph-name="b" unicode="b" horiz-adv-x="584" 
d="M181 696v-326q83 92 178 92q78 0 130 -57.5t52 -159.5q0 -120 -70 -188.5t-193 -68.5q-110 0 -208 48v544l-81 35v24l166 57h26zM181 327v-142q0 -82 20.5 -121.5t85.5 -39.5q66 0 101 47t35 135q0 84 -33.5 133.5t-90.5 49.5q-55 0 -118 -62z" />
    <glyph glyph-name="c" unicode="c" horiz-adv-x="500" 
d="M441 120l27 -26q-80 -106 -208 -106q-73 0 -123 37t-70.5 88t-20.5 109q0 109 65.5 174.5t173.5 65.5q75 0 121 -29.5t46 -78.5q0 -23 -17 -38t-42 -15q-20 0 -30 10q-8 8 -18 42t-26 50q-23 23 -58 23q-51 0 -81.5 -38t-30.5 -100q0 -82 47.5 -151.5t121.5 -69.5
q64 0 123 53z" />
    <glyph glyph-name="d" unicode="d" horiz-adv-x="604" 
d="M516 696v-532q0 -70 10.5 -89t50.5 -19q5 0 25 2v-33l-197 -37v89q-86 -89 -178 -89q-79 0 -129 60.5t-50 155.5q0 113 65 185.5t180 72.5q40 0 112 -16v134l-81 35v24l160 57h32zM405 124v185q0 56 -31.5 86.5t-80.5 30.5q-60 0 -93.5 -47.5t-33.5 -133.5t33.5 -134.5
t91.5 -48.5q67 0 114 62z" />
    <glyph glyph-name="e" unicode="e" horiz-adv-x="510" 
d="M478 268h-335q0 -76 51 -130.5t128 -54.5q66 0 122 47l25 -22q-81 -120 -209 -120q-95 0 -154.5 63.5t-59.5 164.5q0 110 61 178t159 68q87 0 149 -51t63 -143zM143 304h208q-2 56 -29.5 89t-72.5 33q-44 0 -72.5 -32.5t-33.5 -89.5z" />
    <glyph glyph-name="f" unicode="f" horiz-adv-x="323" 
d="M208 401v-273q0 -56 23.5 -74t86.5 -18v-36h-306v36q49 0 67 17.5t18 74.5v273h-85v49q49 -1 63 13q9 9 18 40t25 69t43 65q59 59 153 59q62 0 98 -21.5t36 -59.5q0 -22 -16.5 -38t-39.5 -16q-20 0 -35 14t-23.5 31.5t-25.5 31.5t-40 14q-60 0 -60 -104v-98h105v-49h-105
z" />
    <glyph glyph-name="g" unicode="g" 
d="M526 450v-61q-13 -3 -31 -3q-39 0 -78 9q26 -44 26 -81q0 -67 -60.5 -110t-133.5 -43q-15 0 -36 3q-50 -28 -50 -52q0 -32 56 -32h102q79 0 126 -31.5t47 -83.5q0 -26 -14 -51.5t-43 -50t-83.5 -39.5t-126.5 -15q-82 0 -132 24t-50 63q0 56 93 101v2q-33 6 -51.5 22
t-18.5 39q0 28 23 53t82 60q-107 44 -107 125q0 69 57 116.5t140 47.5q24 0 87 -7.5t87 -7.5q56 0 89 3zM173 318q0 -62 19.5 -91.5t61.5 -29.5q83 0 83 112q0 117 -82 117q-44 0 -63 -25t-19 -83zM327 -14h-85q-31 0 -60 2q-72 -37 -72 -82q0 -28 35 -44.5t100 -16.5
q79 0 130.5 24t51.5 61q0 28 -29.5 42t-70.5 14z" />
    <glyph glyph-name="h" unicode="h" horiz-adv-x="594" 
d="M87 580l-78 35v24l160 57h29v-311q73 77 158 77q73 0 112.5 -42.5t39.5 -114.5v-185q0 -44 17 -64t58 -20v-36h-252v36q36 1 51 20.5t15 58.5v170q0 110 -91 110q-55 0 -108 -54v-219q0 -44 15.5 -64.5t55.5 -21.5v-36h-260v36q45 -1 61.5 19t16.5 66v459z" />
    <glyph glyph-name="i" unicode="i" horiz-adv-x="302" 
d="M213 462v-338q0 -49 15.5 -68t60.5 -20v-36h-266v36q42 0 60.5 17.5t18.5 67.5v227l-79 35v24l162 55h28zM154 696q28 0 47.5 -19.5t19.5 -47.5t-19.5 -48t-47.5 -20t-48 20t-20 48t20 47.5t48 19.5z" />
    <glyph glyph-name="j" unicode="j" horiz-adv-x="281" 
d="M207 462v-403q0 -65 -29.5 -107t-141.5 -143l-47 26q59 53 83 97t24 96v319l-80 36v24l161 55h30zM143 696q28 0 47.5 -19.5t19.5 -47.5t-19.5 -48t-47.5 -20t-48 20t-20 48t20 47.5t48 19.5z" />
    <glyph glyph-name="k" unicode="k" 
d="M196 696v-453q71 65 96 94t25 47q0 29 -52 30v36h247v-36q-64 1 -106 -23.5t-126 -112.5l246 -210v-41q0 -17 -4 -22t-18 -5h-26q-28 0 -47 15l-235 200v-94q0 -41 14.5 -62.5t54.5 -22.5v-36h-251v36q39 0 55 20.5t16 63.5v460l-71 35v24l152 57h30z" />
    <glyph glyph-name="l" unicode="l" horiz-adv-x="292" 
d="M198 696v-573q0 -47 16.5 -67t58.5 -20v-36h-265v36q47 -2 63 20.5t16 72.5v451l-79 35v24l156 57h34z" />
    <glyph glyph-name="m" unicode="m" horiz-adv-x="969" 
d="M208 462v-81q84 81 186 81q110 0 144 -88q44 47 89.5 67.5t104.5 20.5q152 0 152 -148v-188q0 -48 17 -70t64 -20v-36h-271v36q47 -1 63 20.5t16 72.5v166q0 46 -20 73t-74 27q-69 0 -133 -54v-219q0 -42 16.5 -65.5t62.5 -20.5v-36h-266v36q40 -2 58 17.5t18 64.5v167
q0 57 -23 83.5t-73 26.5q-71 0 -131 -54v-212q0 -52 16 -73t65 -20v-36h-271v36q46 -1 62.5 19t16.5 74v218l-79 34v24l157 57h33z" />
    <glyph glyph-name="n" unicode="n" horiz-adv-x="604" 
d="M209 462v-80q41 43 77.5 61.5t81.5 18.5q72 0 111.5 -43.5t39.5 -109.5v-188q0 -48 16.5 -67t60.5 -18v-36h-254v36q38 3 52 24t14 69v156q0 110 -89 110q-60 0 -110 -55v-221q0 -45 16 -63t56 -20v-36h-261v36q46 -1 62 20.5t16 72.5v226l-78 35v24l156 48h33z" />
    <glyph glyph-name="o" unicode="o" horiz-adv-x="563" 
d="M43 226q0 102 68.5 169t172.5 67q103 0 168.5 -64.5t65.5 -165.5q0 -98 -63 -171t-175 -73q-108 0 -172.5 65.5t-64.5 172.5zM166 242q0 -101 32.5 -159.5t88.5 -58.5q108 0 108 192q0 101 -31 155.5t-88 54.5q-110 0 -110 -184z" />
    <glyph glyph-name="p" unicode="p" horiz-adv-x="594" 
d="M194 462v-94q84 94 181 94q70 0 124.5 -55t54.5 -162q0 -58 -17 -104t-44 -74t-63 -46.5t-70 -25.5t-69 -7q-44 0 -97 12v-51q0 -56 22 -75t90 -18v-36h-300v36q46 0 61.5 21t15.5 72v400l-77 34v24l153 55h35zM194 326v-154q0 -80 23 -114t88 -34q62 0 98 46t36 130
q0 85 -34.5 136.5t-91.5 51.5q-54 0 -119 -62z" />
    <glyph glyph-name="q" unicode="q" horiz-adv-x="594" 
d="M518 462v-519q0 -49 18.5 -68.5t62.5 -18.5v-36h-299v36q62 -2 84.5 16t22.5 77v133q-81 -94 -171 -94q-86 0 -136 57.5t-50 156.5q0 124 67.5 192t190.5 68q89 0 176 -51v51h34zM407 122v172q0 132 -103 132q-67 0 -103.5 -47t-36.5 -132q0 -82 34.5 -133.5t90.5 -51.5
q62 0 118 60z" />
    <glyph glyph-name="r" unicode="r" horiz-adv-x="448" 
d="M200 462v-133h2q71 133 148 133q32 0 63 -23t31 -46q0 -19 -15 -56t-39 -37q-20 0 -53 30.5t-55 30.5q-25 0 -49.5 -33.5t-24.5 -77.5v-121q0 -58 21 -77t84 -16v-36h-299v36q48 -1 65.5 18t17.5 67v226l-83 36v24l161 55h25z" />
    <glyph glyph-name="s" unicode="s" horiz-adv-x="438" 
d="M62 23l-11 116h39q48 -115 140 -115q33 0 55.5 18t22.5 44q0 22 -16 38q-17 17 -102 51.5t-109 58.5q-36 36 -36 91q0 64 43.5 100.5t118.5 36.5q73 0 142 -26l15 -115h-35q-28 55 -60 80t-73 25q-31 0 -48.5 -14.5t-17.5 -40.5q0 -25 18 -43q14 -14 96 -46t110 -60
q22 -22 30.5 -41.5t8.5 -49.5q0 -66 -47.5 -104.5t-128.5 -38.5q-76 0 -155 35z" />
    <glyph glyph-name="t" unicode="t" horiz-adv-x="375" 
d="M207 401v-249q0 -43 14 -68t56 -25q32 0 86 18v-43q-86 -46 -159 -46q-108 0 -108 132v281h-75v49q96 12 148 111h38v-111h150v-49h-150z" />
    <glyph glyph-name="u" unicode="u" horiz-adv-x="604" 
d="M504 462v-338q0 -43 15.5 -60.5t62.5 -14.5v-36q-73 0 -161 -25h-28v78q-41 -42 -80 -60t-89 -18q-69 0 -105 40t-36 115v191q0 80 -68 80v36q103 -2 151 12h28v-307q0 -54 25 -81.5t65 -27.5q60 0 109 64v219q0 43 -17.5 65t-59.5 20v36q98 0 159 12h29z" />
    <glyph glyph-name="v" unicode="v" horiz-adv-x="542" 
d="M13 450h243v-36q-64 0 -64 -34q0 -13 12 -38l105 -224l92 205q13 27 13 44q0 24 -15.5 34.5t-50.5 12.5v36h182v-36q-34 -1 -47.5 -15.5t-44.5 -82.5l-152 -336h-27l-181 380q-17 36 -28 45t-37 9v36z" />
    <glyph glyph-name="w" unicode="w" horiz-adv-x="781" 
d="M13 450h210v-36q-41 0 -41 -34q0 -17 9 -41l89 -221l94 195l-23 57q-11 28 -24 36t-47 8v36h239v-36q-57 3 -57 -21q0 -9 9 -33l89 -229l84 198q9 19 9 36q0 48 -67 49v36h184v-36q-35 -1 -47.5 -12.5t-34.5 -62.5l-154 -359h-28l-114 286l-140 -286h-29l-155 380
q-14 34 -23.5 43.5t-31.5 10.5v36z" />
    <glyph glyph-name="x" unicode="x" horiz-adv-x="563" 
d="M329 255l152 -187q18 -22 28 -27t36 -5v-36h-247v36q48 0 48 26q0 7 -8 19l-77 101l-41 -45q-46 -50 -46 -68q0 -33 51 -33v-36h-195v36q27 0 39.5 4t26.5 19l142 150l-118 143q-36 44 -49 53t-41 9v36h240v-36q-47 1 -47 -18q0 -10 15 -30l68 -84l67 74q11 15 11 27
q0 28 -47 31v36h196v-36q-35 -1 -58.5 -15t-63.5 -56z" />
    <glyph glyph-name="y" unicode="y" horiz-adv-x="521" 
d="M5 450h251v-36q-35 0 -50.5 -9t-15.5 -31q0 -19 10 -39l109 -230l83 210q11 26 11 46q0 26 -17.5 40t-50.5 13v36h182v-36q-31 -2 -45 -17.5t-37 -73.5l-144 -358q-36 -89 -70.5 -122.5t-91.5 -33.5q-39 0 -64.5 19.5t-25.5 49.5q0 20 14 34t33 14q24 0 44.5 -25
t40.5 -25q24 0 44.5 20.5t40.5 76.5l-182 384q-18 38 -30 47.5t-39 9.5v36z" />
    <glyph glyph-name="z" unicode="z" horiz-adv-x="500" 
d="M462 151l-27 -151h-393v34q21 32 128.5 176t142.5 204h-63q-136 0 -159 -110h-36l10 166h23q6 -2 24 -13q14 -7 30 -7h281q15 0 19 -2.5t4 -10.5v-18q-20 -33 -129.5 -181t-142.5 -202h81q68 0 106.5 26t64.5 89h36z" />
    <glyph glyph-name="braceleft" unicode="{" horiz-adv-x="394" 
d="M89 241v22q47 7 76 35t29 68q0 23 -11.5 77.5t-11.5 78.5q0 65 55 120t135 58v-19q-47 -6 -76 -37t-29 -63q0 -12 12 -78q11 -70 11 -90q0 -51 -41 -96.5t-109 -64.5v-1q68 -18 109 -63.5t41 -96.5q0 -25 -11.5 -90t-11.5 -78q0 -32 29 -63t76 -37v-19q-80 3 -135 58
t-55 120q0 13 12 78q11 51 11 78q0 40 -29 68t-76 35z" />
    <glyph glyph-name="bar" unicode="|" horiz-adv-x="546" 
d="M227 750h91v-1000h-91v1000z" />
    <glyph glyph-name="braceright" unicode="}" horiz-adv-x="394" 
d="M305 263v-22q-47 -7 -76 -35t-29 -68q0 -23 11.5 -77.5t11.5 -78.5q0 -65 -55 -120t-135 -58v19q47 6 76 37t29 63q0 8 -11 78q-12 66 -12 90q0 51 41 96.5t109 64.5v1q-68 18 -109 63.5t-41 96.5q0 25 11.5 90t11.5 78q0 32 -29 63t-76 37v19q80 -3 135 -58t55 -120
q0 -19 -11 -78q-12 -56 -12 -78q0 -40 29 -68t76 -35z" />
    <glyph glyph-name="asciitilde" unicode="~" horiz-adv-x="667" 
d="M571 356h31q-3 -79 -39.5 -124.5t-97.5 -45.5q-47 0 -151 44t-134 44q-70 0 -84 -87h-31q1 81 38 124t94 43q51 0 157 -44t133 -44q35 0 57.5 23.5t26.5 66.5z" />
    <glyph glyph-name="uni00A0" unicode="&#xa0;" horiz-adv-x="265" 
 />
    <glyph glyph-name="exclamdown" unicode="&#xa1;" horiz-adv-x="292" 
d="M88 -83l43 307q1 12 4 15t12 3q10 0 12 -18l44 -307q11 -74 11 -111q0 -52 -44 -52h-50q-43 0 -43 53q0 36 11 110zM146 315q-31 0 -52 21t-21 52t21 52.5t52 21.5t52.5 -21.5t21.5 -52.5t-21.5 -52t-52.5 -21z" />
    <glyph glyph-name="cent" unicode="&#xa2;" horiz-adv-x="490" 
d="M406 644l-68 -188q51 -11 79 -38t28 -64q0 -23 -17 -39.5t-41 -16.5q-25 0 -35.5 16.5t-17.5 43t-17 38.5l-103 -284q45 -45 105 -45q53 0 112 51l27 -27q-78 -103 -199 -103q-47 0 -85 16l-66 -184h-38l73 201q-45 30 -70.5 83.5t-25.5 117.5q0 106 64.5 173t167.5 67
q14 0 23 -1l66 183h38zM188 146l99 273q-19 7 -32 7q-46 0 -76 -38.5t-30 -97.5q0 -75 39 -144z" />
    <glyph glyph-name="sterling" unicode="&#xa3;" horiz-adv-x="510" 
d="M253 166q-15 -91 -40 -145q15 -4 30.5 -17.5t28 -27.5t35 -25.5t50.5 -11.5t46 11t18 28q0 12 -23.5 35t-23.5 40t12.5 29.5t29.5 12.5q23 0 36.5 -20t13.5 -54q0 -77 -38.5 -124t-101.5 -47q-44 0 -78.5 23.5t-67.5 76.5q-57 -100 -105 -100q-37 0 -37 50
q0 38 27.5 74.5t65.5 46.5q19 74 25 145h-101l10 63h98l15 132q21 178 77 248q47 58 115 58q47 0 76 -26t29 -67q0 -48 -44 -48q-19 0 -30 12t-11 26q0 4 1.5 19.5t1.5 22.5q0 9 -8 17t-18 8q-20 0 -36 -16q-31 -31 -44 -158l-23 -228h107l-11 -63h-107z" />
    <glyph glyph-name="currency" unicode="&#xa4;" horiz-adv-x="667" 
d="M83 518l60 60l65 -65q56 40 124 40t127 -40l65 65l59 -60l-64 -65q39 -64 39 -128q0 -65 -39 -123l64 -64l-59 -59l-65 63q-61 -40 -128 -40t-123 40l-65 -63l-60 59l65 64q-40 67 -40 129q0 63 40 122zM334 468q-59 0 -100.5 -41t-41.5 -99t41.5 -99.5t100.5 -41.5
q58 0 99 41.5t41 99.5t-41 99t-99 41z" />
    <glyph glyph-name="yen" unicode="&#xa5;" horiz-adv-x="740" 
d="M304 222v120h-227v36h207l-107 201q-22 40 -47.5 54.5t-69.5 12.5v36h332v-36q-45 0 -62.5 -10t-17.5 -32q0 -19 25 -66l82 -155h4l82 144q18 31 18 62q0 54 -76 57v36h235v-36q-42 -1 -65.5 -20t-58.5 -79l-97 -169h192v-36h-214v-120h214v-36h-214v-38q0 -71 18.5 -92
t88.5 -20v-36h-353v36q66 -2 88.5 17t22.5 81v52h-227v36h227z" />
    <glyph glyph-name="brokenbar" unicode="&#xa6;" horiz-adv-x="546" 
d="M227 175h91v-350h-91v350zM227 675h91v-350h-91v350z" />
    <glyph glyph-name="section" unicode="&#xa7;" horiz-adv-x="563" 
d="M302 90l-117 120q-81 83 -112 142t-31 121q0 86 64.5 154.5t179.5 68.5q92 0 154 -32t62 -79q0 -19 -14.5 -33t-34.5 -14q-25 0 -46 18.5t-35 40t-44 40t-70 18.5t-61.5 -19.5t-21.5 -55.5q0 -27 18 -57.5t64 -78.5l103 -108q90 -95 124 -153t34 -137
q0 -104 -70.5 -169.5t-181.5 -65.5q-47 0 -94 12t-84 40t-37 67q0 20 12 32.5t31 12.5q20 0 36 -13t29 -31.5t28 -36.5t40.5 -31t59.5 -13q47 0 77.5 23t30.5 60q0 63 -93 157zM225 252l100 -108q105 -112 105 -189q0 -46 -29 -78l2 -2q39 35 55 68.5t16 79.5
q0 57 -25.5 108.5t-85.5 114.5l-133 141q-52 56 -72.5 92t-20.5 71q0 47 31 91l-2 2q-81 -52 -81 -150q0 -51 30.5 -103.5t109.5 -137.5z" />
    <glyph glyph-name="dieresis" unicode="&#xa8;" horiz-adv-x="333" 
d="M79 658q21 0 36 -15t15 -36t-15 -36.5t-36 -15.5t-36.5 15.5t-15.5 36.5t15.5 36t36.5 15zM256 658q21 0 36 -15t15 -36t-15 -36.5t-36 -15.5t-36.5 15.5t-15.5 36.5t15.5 36t36.5 15z" />
    <glyph glyph-name="copyright" unicode="&#xa9;" horiz-adv-x="747" 
d="M541 553l7 -134h-19q-31 112 -137 112q-67 0 -106.5 -49t-39.5 -131q0 -200 149 -200q85 0 141 75l12 -18q-67 -86 -176 -86q-94 0 -156 60t-62 151q0 94 66.5 157.5t165.5 63.5q33 0 73 -11.5t43 -11.5q15 0 20 22h19zM720 336q0 -143 -101.5 -244.5t-244.5 -101.5
t-244.5 101.5t-101.5 244.5t101.5 244.5t244.5 101.5t244.5 -101.5t101.5 -244.5zM684 336q0 129 -91 220t-220 91t-220 -91t-91 -220t91 -220t220 -91t220 91t91 220z" />
    <glyph glyph-name="ordfeminine" unicode="&#xaa;" horiz-adv-x="354" 
d="M347 482l9 -30q-16 -18 -40 -30t-44 -12q-36 0 -51 32q-67 -32 -109 -32q-38 0 -62 19t-24 50q0 37 41.5 59t148.5 44v31q0 30 -11.5 41.5t-40.5 11.5q-21 0 -33.5 -9t-12.5 -24q0 -12 7 -26l-78 -26q-12 25 -12 42q0 33 39 53t104 20q63 0 92 -18t29 -60v-107
q0 -27 2.5 -35.5t11.5 -8.5q10 0 34 15zM216 474v82q-61 -19 -82 -33t-21 -34q0 -16 11.5 -27t28.5 -11q23 0 63 23z" />
    <glyph glyph-name="guillemotleft" unicode="&#xab;" horiz-adv-x="490" 
d="M454 30h-66q-45 110 -134 225q89 115 134 225h66q-38 -109 -123 -225q85 -116 123 -225zM236 30h-66q-45 110 -134 225q89 115 134 225h66q-38 -109 -123 -225q85 -116 123 -225z" />
    <glyph glyph-name="logicalnot" unicode="&#xac;" horiz-adv-x="667" 
d="M64 432h539v-322h-90v232h-449v90z" />
    <glyph glyph-name="uni00AD" unicode="&#xad;" horiz-adv-x="385" 
d="M347 275v-97h-308v97h308z" />
    <glyph glyph-name="registered" unicode="&#xae;" horiz-adv-x="747" 
d="M229 215v247q0 42 -7.5 53t-37.5 13v17h183q75 0 116 -28.5t41 -81.5q0 -77 -101 -105l89 -137q16 -24 27.5 -33.5t28.5 -11.5v-16h-100l-128 191h-31v-126q0 -27 13 -38t45 -11v-16h-189v16q33 1 42 13t9 54zM309 346l24 -1q46 0 74 24t28 64q0 41 -25.5 65.5
t-69.5 24.5q-15 0 -31 -5v-172zM720 336q0 -143 -101.5 -244.5t-244.5 -101.5t-244.5 101.5t-101.5 244.5t101.5 244.5t244.5 101.5t244.5 -101.5t101.5 -244.5zM684 336q0 129 -91 220t-220 91t-220 -91t-91 -220t91 -220t220 -91t220 91t91 220z" />
    <glyph glyph-name="macron" unicode="&#xaf;" horiz-adv-x="333" 
d="M4 642h325v-70h-325v70z" />
    <glyph glyph-name="degree" unicode="&#xb0;" horiz-adv-x="400" 
d="M357 525q0 -65 -46 -111t-111 -46t-111 46t-46 111t46 111t111 46t111 -46t46 -111zM308 525q0 45 -31.5 76.5t-76.5 31.5t-76.5 -31.5t-31.5 -76.5t31.5 -76.5t76.5 -31.5t76.5 31.5t31.5 76.5z" />
    <glyph glyph-name="plusminus" unicode="&#xb1;" horiz-adv-x="667" 
d="M63 478h225v218h90v-218h225v-90h-225v-218h-90v218h-225v90zM63 90h540v-90h-540v90z" />
    <glyph glyph-name="two.superior" unicode="&#xb2;" horiz-adv-x="313" 
d="M283 414l-35 -94h-230v32l54 48q65 58 90.5 93t25.5 71q0 26 -19.5 43t-48.5 17q-34 0 -77 -33l-20 19q66 57 134 57q47 0 79 -24t32 -60q0 -42 -42.5 -88.5t-142.5 -120.5v-2h94q34 0 45 6.5t28 35.5h33z" />
    <glyph glyph-name="three.superior" unicode="&#xb3;" horiz-adv-x="313" 
d="M48 597l-20 19q45 51 115 51q46 0 76 -21t30 -53q0 -40 -56 -67q76 -28 76 -93q0 -51 -45.5 -85t-115.5 -34q-36 0 -60.5 8.5t-24.5 20.5q0 11 10.5 19.5t23.5 8.5q12 0 36.5 -15.5t41.5 -15.5q25 0 41 19.5t16 50.5q0 73 -80 73q-12 0 -51 -3l6 25q107 12 107 70
q0 23 -16 38t-41 15q-33 0 -69 -31z" />
    <glyph glyph-name="acute" unicode="&#xb4;" horiz-adv-x="333" 
d="M172 688h121l-140 -163h-31z" />
    <glyph glyph-name="mu" unicode="&#xb5;" horiz-adv-x="556" 
d="M58 462h111v-304q0 -52 23.5 -81.5t67.5 -29.5q63 0 108 63v352h111v-345q0 -68 37 -68q33 0 42 65h23q-2 -59 -35 -92.5t-84 -33.5q-71 0 -94 78q-73 -79 -170 -79q-57 0 -96 36q-4 -42 11 -104t15 -81q0 -25 -15.5 -41.5t-39.5 -16.5q-23 0 -36.5 15t-13.5 40
q0 26 17.5 90t17.5 152v385z" />
    <glyph glyph-name="paragraph" unicode="&#xb6;" horiz-adv-x="490" 
d="M415 612v-747h-41v786h-89v-786h-41v418q-70 -1 -120.5 17t-76.5 48.5t-37 63.5t-11 71q0 94 61.5 146.5t175.5 52.5h254v-23q-36 1 -55.5 -13.5t-19.5 -33.5z" />
    <glyph glyph-name="periodcentered" unicode="&#xb7;" horiz-adv-x="292" 
d="M146 400q31 0 52 -21t21 -52t-21 -52.5t-52 -21.5t-52.5 21.5t-21.5 52.5t21.5 52t52.5 21z" />
    <glyph glyph-name="cedilla" unicode="&#xb8;" horiz-adv-x="333" 
d="M74 -169v32h11q64 0 64 33q0 24 -37 34q24 18 44 63h28l-9 -30q55 -20 55 -63q0 -32 -25.5 -50.5t-73.5 -18.5h-57z" />
    <glyph glyph-name="one.superior" unicode="&#xb9;" horiz-adv-x="313" 
d="M197 667v-269q0 -37 11.5 -46.5t54.5 -7.5v-24h-208v24q44 -1 55 6.5t11 39.5v163q0 25 -5 31t-27 6h-40v24q77 14 119 53h29z" />
    <glyph glyph-name="ordmasculine" unicode="&#xba;" horiz-adv-x="365" 
d="M24 554q0 61 45.5 101.5t114.5 40.5q68 0 112 -39t44 -100q0 -64 -45 -105.5t-115 -41.5t-113 40t-43 104zM115 563q0 -57 19.5 -90.5t52.5 -33.5q62 0 62 109q0 57 -18 88t-51 31q-65 0 -65 -104z" />
    <glyph glyph-name="guillemotright" unicode="&#xbb;" horiz-adv-x="490" 
d="M320 30h-66q38 109 123 225q-85 116 -123 225h66q45 -110 134 -225q-89 -115 -134 -225zM102 30h-66q38 109 123 225q-85 116 -123 225h66q45 -110 134 -225q-89 -115 -134 -225z" />
    <glyph glyph-name="onequarter" unicode="&#xbc;" horiz-adv-x="813" 
d="M683 84v-90h-77v90h-151v37l180 226h48v-219h50v-44h-50zM606 128v135h-2l-105 -135h107zM197 667v-269q0 -37 11.5 -46.5t54.5 -7.5v-24h-208v24q44 -1 55 6.5t11 39.5v163q0 25 -5 31t-27 6h-40v24q77 14 119 53h29zM136 -42l449 736h53l-449 -736h-53z" />
    <glyph glyph-name="onehalf" unicode="&#xbd;" horiz-adv-x="813" 
d="M136 -42l449 736h53l-449 -736h-53zM743 94l-35 -94h-230v32l54 48q65 58 90.5 93t25.5 71q0 26 -19.5 43t-48.5 17q-34 0 -77 -33l-20 19q66 57 134 57q47 0 79 -24t32 -60q0 -42 -42.5 -88.5t-142.5 -120.5v-2h94q34 0 45 6.5t28 35.5h33zM197 667v-269
q0 -37 11.5 -46.5t54.5 -7.5v-24h-208v24q44 -1 55 6.5t11 39.5v163q0 25 -5 31t-27 6h-40v24q77 14 119 53h29z" />
    <glyph glyph-name="threequarters" unicode="&#xbe;" horiz-adv-x="813" 
d="M683 84v-90h-77v90h-151v37l180 226h48v-219h50v-44h-50zM606 128v135h-2l-105 -135h107zM136 -42l449 736h53l-449 -736h-53zM48 597l-20 19q45 51 115 51q46 0 76 -21t30 -53q0 -40 -56 -67q76 -28 76 -93q0 -51 -45.5 -85t-115.5 -34q-36 0 -60.5 8.5t-24.5 20.5
q0 11 10.5 19.5t23.5 8.5q12 0 36.5 -15.5t41.5 -15.5q25 0 41 19.5t16 50.5q0 73 -80 73q-12 0 -51 -3l6 25q107 12 107 70q0 23 -16 38t-41 15q-33 0 -69 -31z" />
    <glyph glyph-name="questiondown" unicode="&#xbf;" horiz-adv-x="458" 
d="M273 240h35q3 -56 10.5 -110t7.5 -62q0 -10 -6 -16q-8 -8 -41.5 -13t-73 -15.5t-60.5 -31.5q-20 -20 -20 -54q0 -43 36 -80t79 -37q27 0 70.5 19.5t57.5 19.5q36 0 36 -47q0 -59 -99 -59q-85 0 -167 75.5t-82 174.5q0 49 33 82t96 49.5t71 24.5q20 20 17 80zM288 315
q-31 0 -52 21t-21 52t21 52.5t52 21.5t52.5 -21.5t21.5 -52.5t-21.5 -52t-52.5 -21z" />
    <glyph glyph-name="Agrave" unicode="&#xc0;" horiz-adv-x="760" 
d="M464 257h-251l-35 -96q-14 -39 -14 -63q0 -28 25.5 -45.5t73.5 -16.5v-36h-257v36q54 9 79 35.5t54 100.5l176 453l-22 57h139l231 -578q16 -39 34.5 -52.5t56.5 -15.5v-36h-340v36q112 -3 112 49q0 13 -15 52zM445 306l-112 274l-102 -274h214zM369 918l50 -163h-31
l-140 163h121z" />
    <glyph glyph-name="Aacute" unicode="&#xc1;" horiz-adv-x="760" 
d="M464 257h-251l-35 -96q-14 -39 -14 -63q0 -28 25.5 -45.5t73.5 -16.5v-36h-257v36q54 9 79 35.5t54 100.5l176 453l-22 57h139l231 -578q16 -39 34.5 -52.5t56.5 -15.5v-36h-340v36q112 -3 112 49q0 13 -15 52zM445 306l-112 274l-102 -274h214zM386 918h121l-140 -163
h-31z" />
    <glyph glyph-name="Acircumflex" unicode="&#xc2;" horiz-adv-x="760" 
d="M464 257h-251l-35 -96q-14 -39 -14 -63q0 -28 25.5 -45.5t73.5 -16.5v-36h-257v36q54 9 79 35.5t54 100.5l176 453l-22 57h139l231 -578q16 -39 34.5 -52.5t56.5 -15.5v-36h-340v36q112 -3 112 49q0 13 -15 52zM445 306l-112 274l-102 -274h214zM381 840l-110 -101h-29
l85 179h108l84 -179h-28z" />
    <glyph glyph-name="Atilde" unicode="&#xc3;" horiz-adv-x="760" 
d="M464 257h-251l-35 -96q-14 -39 -14 -63q0 -28 25.5 -45.5t73.5 -16.5v-36h-257v36q54 9 79 35.5t54 100.5l176 453l-22 57h139l231 -578q16 -39 34.5 -52.5t56.5 -15.5v-36h-340v36q112 -3 112 49q0 13 -15 52zM445 306l-112 274l-102 -274h214zM233 773h-27q8 59 38 94
t72 35q29 0 82.5 -27.5t72.5 -27.5q44 0 56 54h28q-1 -53 -32 -90.5t-72 -37.5q-31 0 -83 26t-75 26q-46 0 -60 -52z" />
    <glyph glyph-name="Adieresis" unicode="&#xc4;" horiz-adv-x="760" 
d="M464 257h-251l-35 -96q-14 -39 -14 -63q0 -28 25.5 -45.5t73.5 -16.5v-36h-257v36q54 9 79 35.5t54 100.5l176 453l-22 57h139l231 -578q16 -39 34.5 -52.5t56.5 -15.5v-36h-340v36q112 -3 112 49q0 13 -15 52zM445 306l-112 274l-102 -274h214zM293 888q21 0 36 -15
t15 -36t-15 -36.5t-36 -15.5t-36.5 15.5t-15.5 36.5t15.5 36t36.5 15zM470 888q21 0 36 -15t15 -36t-15 -36.5t-36 -15.5t-36.5 15.5t-15.5 36.5t15.5 36t36.5 15z" />
    <glyph glyph-name="Aring" unicode="&#xc5;" horiz-adv-x="760" 
d="M464 257h-251l-35 -96q-14 -39 -14 -63q0 -28 25.5 -45.5t73.5 -16.5v-36h-257v36q54 9 79 35.5t54 100.5l176 453l-22 57h139l231 -578q16 -39 34.5 -52.5t56.5 -15.5v-36h-340v36q112 -3 112 49q0 13 -15 52zM445 306l-112 274l-102 -274h214zM381 926q35 0 60 -25
t25 -60t-25 -60t-60 -25t-60 25t-25 60t25 60t60 25zM381 893q-22 0 -37 -15t-15 -37t15 -37t37 -15t37 15t15 37t-15 37t-37 15z" />
    <glyph glyph-name="AE" unicode="&#xc6;" horiz-adv-x="990" 
d="M526 325l40 -148q22 -82 54.5 -111.5t101.5 -29.5q71 0 109.5 26t70.5 115h62l-37 -177h-567v36q92 -2 92 49q0 23 -9 56l-47 184h-173l-47 -163q-10 -34 -10 -57q0 -69 93 -69v-36h-253v36q47 2 74 28t45 85l110 356q15 48 15 77q0 65 -76 64v36h666l43 -148h-53
q-41 70 -84 91t-146 21h-157l75 -285h136q51 0 69.5 13t15.5 45l-3 30h57l58 -211h-58q-20 58 -48 72.5t-104 14.5h-115zM387 361l-73 285h-2l-79 -285h154z" />
    <glyph glyph-name="Ccedilla" unicode="&#xc7;" horiz-adv-x="781" 
d="M723 207l-10 -155q-132 -66 -299 -66h-22l-7 -23q55 -20 55 -63q0 -32 -25.5 -50.5t-73.5 -18.5h-57v32h11q64 0 64 33q0 24 -37 34q22 17 42 59q-150 14 -228.5 109t-78.5 230q0 88 32.5 159.5t87 116t121.5 68.5t139 24q120 0 249 -55l24 -154h-60q-26 80 -84.5 126.5
t-134.5 46.5q-84 0 -133 -49q-86 -86 -86 -272q0 -145 64.5 -231t172.5 -86q84 0 142 51t66 134h66z" />
    <glyph glyph-name="Egrave" unicode="&#xc8;" horiz-adv-x="719" 
d="M26 682h614v-143h-55q-43 107 -167 107h-151v-270h111q71 0 101 19.5t37 69.5h66v-217h-66q-5 92 -106 92h-143v-196q0 -59 23 -83.5t95 -24.5q94 0 147.5 29.5t94.5 102.5h63l-38 -168h-626v36q64 -3 85 17.5t21 77.5v421q0 52 -20.5 75t-85.5 19v36zM348 918l50 -163
h-31l-140 163h121z" />
    <glyph glyph-name="Eacute" unicode="&#xc9;" horiz-adv-x="719" 
d="M26 682h614v-143h-55q-43 107 -167 107h-151v-270h111q71 0 101 19.5t37 69.5h66v-217h-66q-5 92 -106 92h-143v-196q0 -59 23 -83.5t95 -24.5q94 0 147.5 29.5t94.5 102.5h63l-38 -168h-626v36q64 -3 85 17.5t21 77.5v421q0 52 -20.5 75t-85.5 19v36zM365 918h121
l-140 -163h-31z" />
    <glyph glyph-name="Ecircumflex" unicode="&#xca;" horiz-adv-x="719" 
d="M26 682h614v-143h-55q-43 107 -167 107h-151v-270h111q71 0 101 19.5t37 69.5h66v-217h-66q-5 92 -106 92h-143v-196q0 -59 23 -83.5t95 -24.5q94 0 147.5 29.5t94.5 102.5h63l-38 -168h-626v36q64 -3 85 17.5t21 77.5v421q0 52 -20.5 75t-85.5 19v36zM360 840l-110 -101
h-29l85 179h108l84 -179h-28z" />
    <glyph glyph-name="Edieresis" unicode="&#xcb;" horiz-adv-x="719" 
d="M26 682h614v-143h-55q-43 107 -167 107h-151v-270h111q71 0 101 19.5t37 69.5h66v-217h-66q-5 92 -106 92h-143v-196q0 -59 23 -83.5t95 -24.5q94 0 147.5 29.5t94.5 102.5h63l-38 -168h-626v36q64 -3 85 17.5t21 77.5v421q0 52 -20.5 75t-85.5 19v36zM272 888
q21 0 36 -15t15 -36t-15 -36.5t-36 -15.5t-36.5 15.5t-15.5 36.5t15.5 36t36.5 15zM449 888q21 0 36 -15t15 -36t-15 -36.5t-36 -15.5t-36.5 15.5t-15.5 36.5t15.5 36t36.5 15z" />
    <glyph glyph-name="Igrave" unicode="&#xcc;" horiz-adv-x="396" 
d="M26 682h344v-36q-63 3 -84 -16.5t-21 -74.5v-425q0 -55 20.5 -76.5t84.5 -17.5v-36h-344v36q60 -3 82 16.5t22 74.5v429q0 52 -21.5 72.5t-82.5 17.5v36zM187 918l50 -163h-31l-140 163h121z" />
    <glyph glyph-name="Iacute" unicode="&#xcd;" horiz-adv-x="396" 
d="M26 682h344v-36q-63 3 -84 -16.5t-21 -74.5v-425q0 -55 20.5 -76.5t84.5 -17.5v-36h-344v36q60 -3 82 16.5t22 74.5v429q0 52 -21.5 72.5t-82.5 17.5v36zM204 918h121l-140 -163h-31z" />
    <glyph glyph-name="Icircumflex" unicode="&#xce;" horiz-adv-x="396" 
d="M26 682h344v-36q-63 3 -84 -16.5t-21 -74.5v-425q0 -55 20.5 -76.5t84.5 -17.5v-36h-344v36q60 -3 82 16.5t22 74.5v429q0 52 -21.5 72.5t-82.5 17.5v36zM199 840l-110 -101h-29l85 179h108l84 -179h-28z" />
    <glyph glyph-name="Idieresis" unicode="&#xcf;" horiz-adv-x="396" 
d="M26 682h344v-36q-63 3 -84 -16.5t-21 -74.5v-425q0 -55 20.5 -76.5t84.5 -17.5v-36h-344v36q60 -3 82 16.5t22 74.5v429q0 52 -21.5 72.5t-82.5 17.5v36zM111 888q21 0 36 -15t15 -36t-15 -36.5t-36 -15.5t-36.5 15.5t-15.5 36.5t15.5 36t36.5 15zM288 888q21 0 36 -15
t15 -36t-15 -36.5t-36 -15.5t-36.5 15.5t-15.5 36.5t15.5 36t36.5 15z" />
    <glyph glyph-name="Eth" unicode="&#xd0;" horiz-adv-x="833" 
d="M130 318h-109v46h109v186q0 55 -18.5 77t-84.5 19v36h380q188 0 282.5 -95.5t94.5 -242.5q0 -143 -99 -243.5t-272 -100.5h-386v36q62 -2 82.5 17t20.5 77v188zM265 318v-165q0 -61 25.5 -89t89.5 -28q116 0 180.5 80.5t64.5 226.5q0 149 -74.5 226t-208.5 77h-77v-282
h209v-46h-209z" />
    <glyph glyph-name="Ntilde" unicode="&#xd1;" horiz-adv-x="781" 
d="M10 682h212l403 -485h2v326q0 75 -27.5 100t-105.5 23v36h284v-36q-66 4 -90.5 -19t-24.5 -79v-340q0 -21 8.5 -86t9.5 -132h-51l-455 545h-2v-380q0 -64 28.5 -90.5t103.5 -28.5v-36h-302v36q83 -1 108.5 25.5t25.5 115.5v401q-31 34 -59 48.5t-68 19.5v36zM243 773h-27
q8 59 38 94t72 35q29 0 82.5 -27.5t72.5 -27.5q44 0 56 54h28q-1 -53 -32 -90.5t-72 -37.5q-31 0 -83 26t-75 26q-46 0 -60 -52z" />
    <glyph glyph-name="Ograve" unicode="&#xd2;" horiz-adv-x="854" 
d="M57 333q0 153 110 258t271 105q154 0 256.5 -97t102.5 -242q0 -150 -104 -260.5t-273 -110.5q-158 0 -260.5 100t-102.5 247zM212 356q0 -148 62.5 -241t162.5 -93q94 0 149.5 81.5t55.5 219.5q0 62 -12.5 119.5t-37 107.5t-68 80t-100.5 30q-97 0 -154.5 -82.5
t-57.5 -221.5zM416 918l50 -163h-31l-140 163h121z" />
    <glyph glyph-name="Oacute" unicode="&#xd3;" horiz-adv-x="854" 
d="M57 333q0 153 110 258t271 105q154 0 256.5 -97t102.5 -242q0 -150 -104 -260.5t-273 -110.5q-158 0 -260.5 100t-102.5 247zM212 356q0 -148 62.5 -241t162.5 -93q94 0 149.5 81.5t55.5 219.5q0 62 -12.5 119.5t-37 107.5t-68 80t-100.5 30q-97 0 -154.5 -82.5
t-57.5 -221.5zM433 918h121l-140 -163h-31z" />
    <glyph glyph-name="Ocircumflex" unicode="&#xd4;" horiz-adv-x="854" 
d="M57 333q0 153 110 258t271 105q154 0 256.5 -97t102.5 -242q0 -150 -104 -260.5t-273 -110.5q-158 0 -260.5 100t-102.5 247zM212 356q0 -148 62.5 -241t162.5 -93q94 0 149.5 81.5t55.5 219.5q0 62 -12.5 119.5t-37 107.5t-68 80t-100.5 30q-97 0 -154.5 -82.5
t-57.5 -221.5zM428 840l-110 -101h-29l85 179h108l84 -179h-28z" />
    <glyph glyph-name="Otilde" unicode="&#xd5;" horiz-adv-x="854" 
d="M57 333q0 153 110 258t271 105q154 0 256.5 -97t102.5 -242q0 -150 -104 -260.5t-273 -110.5q-158 0 -260.5 100t-102.5 247zM212 356q0 -148 62.5 -241t162.5 -93q94 0 149.5 81.5t55.5 219.5q0 62 -12.5 119.5t-37 107.5t-68 80t-100.5 30q-97 0 -154.5 -82.5
t-57.5 -221.5zM280 773h-27q8 59 38 94t72 35q29 0 82.5 -27.5t72.5 -27.5q44 0 56 54h28q-1 -53 -32 -90.5t-72 -37.5q-31 0 -83 26t-75 26q-46 0 -60 -52z" />
    <glyph glyph-name="Odieresis" unicode="&#xd6;" horiz-adv-x="854" 
d="M57 333q0 153 110 258t271 105q154 0 256.5 -97t102.5 -242q0 -150 -104 -260.5t-273 -110.5q-158 0 -260.5 100t-102.5 247zM212 356q0 -148 62.5 -241t162.5 -93q94 0 149.5 81.5t55.5 219.5q0 62 -12.5 119.5t-37 107.5t-68 80t-100.5 30q-97 0 -154.5 -82.5
t-57.5 -221.5zM340 888q21 0 36 -15t15 -36t-15 -36.5t-36 -15.5t-36.5 15.5t-15.5 36.5t15.5 36t36.5 15zM517 888q21 0 36 -15t15 -36t-15 -36.5t-36 -15.5t-36.5 15.5t-15.5 36.5t15.5 36t36.5 15z" />
    <glyph glyph-name="multiply" unicode="&#xd7;" horiz-adv-x="668" 
d="M83 456l63 63l187 -187l187 187l64 -64l-186 -186l187 -187l-64 -64l-187 187l-187 -187l-64 64l187 187z" />
    <glyph glyph-name="Oslash" unicode="&#xd8;" horiz-adv-x="854" 
d="M57 333q0 153 110 258t271 105q111 0 213 -61l53 62l28 -24l-52 -61q117 -101 117 -255q0 -150 -104 -260.5t-273 -110.5q-61 0 -119.5 18t-97.5 47l-64 -75l-27 24l62 73q-117 102 -117 260zM249 162l338 397q-56 101 -163 101q-97 0 -154.5 -82.5t-57.5 -221.5
q0 -110 37 -194zM605 524l-338 -397q65 -105 170 -105q94 0 149.5 81.5t55.5 219.5q0 53 -10.5 111t-26.5 90z" />
    <glyph glyph-name="Ugrave" unicode="&#xd9;" horiz-adv-x="802" 
d="M8 682h348v-36q-63 1 -84.5 -16t-21.5 -73v-307q0 -103 33 -138q54 -59 161 -59q103 0 155 52q25 25 38.5 69t13.5 89v246q0 75 -24 108t-92 29v36h260v-36q-56 1 -82 -19.5t-26 -78.5v-280q0 -136 -67 -209t-217 -73q-158 0 -228 70q-33 33 -46.5 85.5t-13.5 149.5v255
q0 61 -20 82t-87 18v36zM410 918l50 -163h-31l-140 163h121z" />
    <glyph glyph-name="Uacute" unicode="&#xda;" horiz-adv-x="802" 
d="M8 682h348v-36q-63 1 -84.5 -16t-21.5 -73v-307q0 -103 33 -138q54 -59 161 -59q103 0 155 52q25 25 38.5 69t13.5 89v246q0 75 -24 108t-92 29v36h260v-36q-56 1 -82 -19.5t-26 -78.5v-280q0 -136 -67 -209t-217 -73q-158 0 -228 70q-33 33 -46.5 85.5t-13.5 149.5v255
q0 61 -20 82t-87 18v36zM407 918h121l-140 -163h-31z" />
    <glyph glyph-name="Ucircumflex" unicode="&#xdb;" horiz-adv-x="802" 
d="M8 682h348v-36q-63 1 -84.5 -16t-21.5 -73v-307q0 -103 33 -138q54 -59 161 -59q103 0 155 52q25 25 38.5 69t13.5 89v246q0 75 -24 108t-92 29v36h260v-36q-56 1 -82 -19.5t-26 -78.5v-280q0 -136 -67 -209t-217 -73q-158 0 -228 70q-33 33 -46.5 85.5t-13.5 149.5v255
q0 61 -20 82t-87 18v36zM422 840l-110 -101h-29l85 179h108l84 -179h-28z" />
    <glyph glyph-name="Udieresis" unicode="&#xdc;" horiz-adv-x="802" 
d="M8 682h348v-36q-63 1 -84.5 -16t-21.5 -73v-307q0 -103 33 -138q54 -59 161 -59q103 0 155 52q25 25 38.5 69t13.5 89v246q0 75 -24 108t-92 29v36h260v-36q-56 1 -82 -19.5t-26 -78.5v-280q0 -136 -67 -209t-217 -73q-158 0 -228 70q-33 33 -46.5 85.5t-13.5 149.5v255
q0 61 -20 82t-87 18v36zM334 888q21 0 36 -15t15 -36t-15 -36.5t-36 -15.5t-36.5 15.5t-15.5 36.5t15.5 36t36.5 15zM511 888q21 0 36 -15t15 -36t-15 -36.5t-36 -15.5t-36.5 15.5t-15.5 36.5t15.5 36t36.5 15z" />
    <glyph glyph-name="Yacute" unicode="&#xdd;" horiz-adv-x="740" 
d="M439 282v-156q0 -54 22 -73.5t85 -16.5v-36h-353v36q64 -3 87.5 16.5t23.5 78.5v137l-159 296q-28 52 -50.5 68t-74.5 14v36h340v-36q-43 0 -61.5 -9t-18.5 -33q0 -19 25 -66l116 -215l107 181q31 53 31 85q0 54 -76 57v36h235v-36q-42 -1 -65.5 -19.5t-58.5 -79.5z
M396 918h121l-140 -163h-31z" />
    <glyph glyph-name="Thorn" unicode="&#xde;" horiz-adv-x="719" 
d="M265 549h200q109 0 161.5 -58.5t52.5 -133.5q0 -83 -65 -135.5t-170 -52.5q-122 0 -122 27q0 23 17 23q7 0 22.5 -0.5t18.5 -0.5q147 0 147 130q0 77 -47 121t-128 44h-87v-383q0 -57 22.5 -77.5t90.5 -16.5v-36h-353v36q61 -3 83 16.5t22 75.5v424q0 57 -22.5 77.5
t-90.5 16.5v36h353v-36q-62 3 -83.5 -17t-21.5 -80z" />
    <glyph glyph-name="germandbls" unicode="&#xdf;" horiz-adv-x="625" 
d="M89 404h-68v46q30 -2 47 15q9 9 31.5 74t50.5 93q34 34 71.5 49t93.5 15q92 0 153.5 -44t61.5 -111q0 -51 -37 -87.5t-105 -52.5v-2q85 -11 133.5 -64t48.5 -135q0 -90 -49.5 -151t-122.5 -61q-40 0 -65.5 22t-25.5 56q0 19 10 30.5t26 11.5q18 0 25 -13t6 -29t5 -29
t22 -13q28 0 48 31t20 75q0 54 -21 106.5t-55 83.5q-37 35 -97 42v36q54 -4 88.5 38.5t34.5 98.5q0 55 -32.5 90t-83.5 35q-48 0 -75.5 -35.5t-27.5 -107.5v-363q0 -68 12 -88t42 -30v-36h-230v36q36 2 50.5 21.5t14.5 63.5v283z" />
    <glyph glyph-name="agrave" unicode="&#xe0;" horiz-adv-x="552" 
d="M535 92l11 -39q-60 -65 -122 -65q-56 0 -74 59q-102 -59 -174 -59q-57 0 -92 30t-35 79q0 55 51 89.5t156 59.5l90 22v78q0 80 -89 80q-37 0 -60 -17.5t-23 -46.5q0 -16 11 -42l-106 -37q-16 36 -16 63q0 50 54.5 83t160.5 33q89 0 134 -26.5t45 -92.5v-217q0 -53 32 -53
q17 0 46 19zM346 89v150q-48 -16 -74 -26.5t-53.5 -26t-39.5 -32.5t-12 -39q0 -27 21 -47.5t49 -20.5q49 0 109 42zM265 688l50 -163h-31l-140 163h121z" />
    <glyph glyph-name="aacute" unicode="&#xe1;" horiz-adv-x="552" 
d="M535 92l11 -39q-60 -65 -122 -65q-56 0 -74 59q-102 -59 -174 -59q-57 0 -92 30t-35 79q0 55 51 89.5t156 59.5l90 22v78q0 80 -89 80q-37 0 -60 -17.5t-23 -46.5q0 -16 11 -42l-106 -37q-16 36 -16 63q0 50 54.5 83t160.5 33q89 0 134 -26.5t45 -92.5v-217q0 -53 32 -53
q17 0 46 19zM346 89v150q-48 -16 -74 -26.5t-53.5 -26t-39.5 -32.5t-12 -39q0 -27 21 -47.5t49 -20.5q49 0 109 42zM282 688h121l-140 -163h-31z" />
    <glyph glyph-name="acircumflex" unicode="&#xe2;" horiz-adv-x="552" 
d="M535 92l11 -39q-60 -65 -122 -65q-56 0 -74 59q-102 -59 -174 -59q-57 0 -92 30t-35 79q0 55 51 89.5t156 59.5l90 22v78q0 80 -89 80q-37 0 -60 -17.5t-23 -46.5q0 -16 11 -42l-106 -37q-16 36 -16 63q0 50 54.5 83t160.5 33q89 0 134 -26.5t45 -92.5v-217q0 -53 32 -53
q17 0 46 19zM346 89v150q-48 -16 -74 -26.5t-53.5 -26t-39.5 -32.5t-12 -39q0 -27 21 -47.5t49 -20.5q49 0 109 42zM277 610l-110 -101h-29l85 179h108l84 -179h-28z" />
    <glyph glyph-name="atilde" unicode="&#xe3;" horiz-adv-x="552" 
d="M535 92l11 -39q-60 -65 -122 -65q-56 0 -74 59q-102 -59 -174 -59q-57 0 -92 30t-35 79q0 55 51 89.5t156 59.5l90 22v78q0 80 -89 80q-37 0 -60 -17.5t-23 -46.5q0 -16 11 -42l-106 -37q-16 36 -16 63q0 50 54.5 83t160.5 33q89 0 134 -26.5t45 -92.5v-217q0 -53 32 -53
q17 0 46 19zM346 89v150q-48 -16 -74 -26.5t-53.5 -26t-39.5 -32.5t-12 -39q0 -27 21 -47.5t49 -20.5q49 0 109 42zM129 543h-27q8 59 38 94t72 35q29 0 82.5 -27.5t72.5 -27.5q44 0 56 54h28q-1 -53 -32 -90.5t-72 -37.5q-31 0 -83 26t-75 26q-46 0 -60 -52z" />
    <glyph glyph-name="adieresis" unicode="&#xe4;" horiz-adv-x="552" 
d="M535 92l11 -39q-60 -65 -122 -65q-56 0 -74 59q-102 -59 -174 -59q-57 0 -92 30t-35 79q0 55 51 89.5t156 59.5l90 22v78q0 80 -89 80q-37 0 -60 -17.5t-23 -46.5q0 -16 11 -42l-106 -37q-16 36 -16 63q0 50 54.5 83t160.5 33q89 0 134 -26.5t45 -92.5v-217q0 -53 32 -53
q17 0 46 19zM346 89v150q-48 -16 -74 -26.5t-53.5 -26t-39.5 -32.5t-12 -39q0 -27 21 -47.5t49 -20.5q49 0 109 42zM189 658q21 0 36 -15t15 -36t-15 -36.5t-36 -15.5t-36.5 15.5t-15.5 36.5t15.5 36t36.5 15zM366 658q21 0 36 -15t15 -36t-15 -36.5t-36 -15.5t-36.5 15.5
t-15.5 36.5t15.5 36t36.5 15z" />
    <glyph glyph-name="aring" unicode="&#xe5;" horiz-adv-x="552" 
d="M535 92l11 -39q-60 -65 -122 -65q-56 0 -74 59q-102 -59 -174 -59q-57 0 -92 30t-35 79q0 55 51 89.5t156 59.5l90 22v78q0 80 -89 80q-37 0 -60 -17.5t-23 -46.5q0 -16 11 -42l-106 -37q-16 36 -16 63q0 50 54.5 83t160.5 33q89 0 134 -26.5t45 -92.5v-217q0 -53 32 -53
q17 0 46 19zM346 89v150q-48 -16 -74 -26.5t-53.5 -26t-39.5 -32.5t-12 -39q0 -27 21 -47.5t49 -20.5q49 0 109 42zM277 696q35 0 60 -25t25 -60t-25 -60t-60 -25t-60 25t-25 60t25 60t60 25zM277 663q-22 0 -37 -15t-15 -37t15 -37t37 -15t37 15t15 37t-15 37t-37 15z" />
    <glyph glyph-name="ae" unicode="&#xe6;" horiz-adv-x="792" 
d="M748 259h-306q-8 -196 132 -196q76 0 150 64l25 -27q-34 -54 -90.5 -83t-127.5 -29q-121 0 -179 80q-102 -80 -186 -80q-53 0 -86.5 29.5t-33.5 76.5q0 62 64.5 101t223.5 70v67q0 94 -81 94q-37 0 -58 -21.5t-21 -59.5q0 -9 3 -35l-102 -27q-12 28 -12 54q0 59 50 92
t138 33q97 0 153 -56q61 56 147 56q89 0 146 -55t51 -148zM334 93v141q-82 -13 -127.5 -45t-45.5 -76q0 -28 19.5 -49.5t44.5 -21.5q45 0 109 51zM442 295h195q-5 131 -99 131q-96 0 -96 -131z" />
    <glyph glyph-name="ccedilla" unicode="&#xe7;" horiz-adv-x="500" 
d="M441 120l27 -26q-80 -106 -208 -106h-12l-8 -25q55 -20 55 -63q0 -32 -25.5 -50.5t-73.5 -18.5h-57v32h11q64 0 64 33q0 24 -37 34q23 18 44 61q-88 15 -131.5 81.5t-43.5 149.5q0 109 65.5 174.5t173.5 65.5q75 0 121 -29.5t46 -78.5q0 -23 -17 -38t-42 -15
q-20 0 -30 10q-8 8 -18 42t-26 50q-23 23 -58 23q-51 0 -81.5 -38t-30.5 -100q0 -82 47.5 -151.5t121.5 -69.5q64 0 123 53z" />
    <glyph glyph-name="egrave" unicode="&#xe8;" horiz-adv-x="510" 
d="M478 268h-335q0 -76 51 -130.5t128 -54.5q66 0 122 47l25 -22q-81 -120 -209 -120q-95 0 -154.5 63.5t-59.5 164.5q0 110 61 178t159 68q87 0 149 -51t63 -143zM143 304h208q-2 56 -29.5 89t-72.5 33q-44 0 -72.5 -32.5t-33.5 -89.5zM244 688l50 -163h-31l-140 163h121z
" />
    <glyph glyph-name="eacute" unicode="&#xe9;" horiz-adv-x="510" 
d="M478 268h-335q0 -76 51 -130.5t128 -54.5q66 0 122 47l25 -22q-81 -120 -209 -120q-95 0 -154.5 63.5t-59.5 164.5q0 110 61 178t159 68q87 0 149 -51t63 -143zM143 304h208q-2 56 -29.5 89t-72.5 33q-44 0 -72.5 -32.5t-33.5 -89.5zM261 688h121l-140 -163h-31z" />
    <glyph glyph-name="ecircumflex" unicode="&#xea;" horiz-adv-x="510" 
d="M478 268h-335q0 -76 51 -130.5t128 -54.5q66 0 122 47l25 -22q-81 -120 -209 -120q-95 0 -154.5 63.5t-59.5 164.5q0 110 61 178t159 68q87 0 149 -51t63 -143zM143 304h208q-2 56 -29.5 89t-72.5 33q-44 0 -72.5 -32.5t-33.5 -89.5zM256 610l-110 -101h-29l85 179h108
l84 -179h-28z" />
    <glyph glyph-name="edieresis" unicode="&#xeb;" horiz-adv-x="510" 
d="M478 268h-335q0 -76 51 -130.5t128 -54.5q66 0 122 47l25 -22q-81 -120 -209 -120q-95 0 -154.5 63.5t-59.5 164.5q0 110 61 178t159 68q87 0 149 -51t63 -143zM143 304h208q-2 56 -29.5 89t-72.5 33q-44 0 -72.5 -32.5t-33.5 -89.5zM168 658q21 0 36 -15t15 -36
t-15 -36.5t-36 -15.5t-36.5 15.5t-15.5 36.5t15.5 36t36.5 15zM345 658q21 0 36 -15t15 -36t-15 -36.5t-36 -15.5t-36.5 15.5t-15.5 36.5t15.5 36t36.5 15z" />
    <glyph glyph-name="igrave" unicode="&#xec;" horiz-adv-x="302" 
d="M213 462v-338q0 -49 15.5 -68t60.5 -20v-36h-266v36q42 0 60.5 17.5t18.5 67.5v227l-79 35v24l162 55h28zM140 688l50 -163h-31l-140 163h121z" />
    <glyph glyph-name="iacute" unicode="&#xed;" horiz-adv-x="302" 
d="M213 462v-338q0 -49 15.5 -68t60.5 -20v-36h-266v36q42 0 60.5 17.5t18.5 67.5v227l-79 35v24l162 55h28zM157 688h121l-140 -163h-31z" />
    <glyph glyph-name="icircumflex" unicode="&#xee;" horiz-adv-x="302" 
d="M213 462v-338q0 -49 15.5 -68t60.5 -20v-36h-266v36q42 0 60.5 17.5t18.5 67.5v227l-79 35v24l162 55h28zM152 610l-110 -101h-29l85 179h108l84 -179h-28z" />
    <glyph glyph-name="idieresis" unicode="&#xef;" horiz-adv-x="302" 
d="M213 462v-338q0 -49 15.5 -68t60.5 -20v-36h-266v36q42 0 60.5 17.5t18.5 67.5v227l-79 35v24l162 55h28zM64 658q21 0 36 -15t15 -36t-15 -36.5t-36 -15.5t-36.5 15.5t-15.5 36.5t15.5 36t36.5 15zM241 658q21 0 36 -15t15 -36t-15 -36.5t-36 -15.5t-36.5 15.5
t-15.5 36.5t15.5 36t36.5 15z" />
    <glyph glyph-name="eth" unicode="&#xf0;" horiz-adv-x="500" 
d="M145 256q0 -113 30 -174.5t85 -61.5q92 0 92 187q0 103 -29 160.5t-81 57.5q-97 0 -97 -169zM403 658l-108 -60q85 -81 126.5 -177t41.5 -180q0 -113 -60 -183t-157 -70q-91 0 -151.5 66t-60.5 166q0 99 57 167.5t139 68.5q41 0 79 -24l2 2q-23 65 -73 133l-113 -63
l-16 30l108 60q-33 41 -77 73l37 21q54 -33 90 -66l120 66z" />
    <glyph glyph-name="ntilde" unicode="&#xf1;" horiz-adv-x="604" 
d="M209 462v-80q41 43 77.5 61.5t81.5 18.5q72 0 111.5 -43.5t39.5 -109.5v-188q0 -48 16.5 -67t60.5 -18v-36h-254v36q38 3 52 24t14 69v156q0 110 -89 110q-60 0 -110 -55v-221q0 -45 16 -63t56 -20v-36h-261v36q46 -1 62 20.5t16 72.5v226l-78 35v24l156 48h33zM155 543
h-27q8 59 38 94t72 35q29 0 82.5 -27.5t72.5 -27.5q44 0 56 54h28q-1 -53 -32 -90.5t-72 -37.5q-31 0 -83 26t-75 26q-46 0 -60 -52z" />
    <glyph glyph-name="ograve" unicode="&#xf2;" horiz-adv-x="563" 
d="M43 226q0 102 68.5 169t172.5 67q103 0 168.5 -64.5t65.5 -165.5q0 -98 -63 -171t-175 -73q-108 0 -172.5 65.5t-64.5 172.5zM166 242q0 -101 32.5 -159.5t88.5 -58.5q108 0 108 192q0 101 -31 155.5t-88 54.5q-110 0 -110 -184zM270 688l50 -163h-31l-140 163h121z" />
    <glyph glyph-name="oacute" unicode="&#xf3;" horiz-adv-x="563" 
d="M43 226q0 102 68.5 169t172.5 67q103 0 168.5 -64.5t65.5 -165.5q0 -98 -63 -171t-175 -73q-108 0 -172.5 65.5t-64.5 172.5zM166 242q0 -101 32.5 -159.5t88.5 -58.5q108 0 108 192q0 101 -31 155.5t-88 54.5q-110 0 -110 -184zM287 688h121l-140 -163h-31z" />
    <glyph glyph-name="ocircumflex" unicode="&#xf4;" horiz-adv-x="563" 
d="M43 226q0 102 68.5 169t172.5 67q103 0 168.5 -64.5t65.5 -165.5q0 -98 -63 -171t-175 -73q-108 0 -172.5 65.5t-64.5 172.5zM166 242q0 -101 32.5 -159.5t88.5 -58.5q108 0 108 192q0 101 -31 155.5t-88 54.5q-110 0 -110 -184zM282 610l-110 -101h-29l85 179h108
l84 -179h-28z" />
    <glyph glyph-name="otilde" unicode="&#xf5;" horiz-adv-x="563" 
d="M43 226q0 102 68.5 169t172.5 67q103 0 168.5 -64.5t65.5 -165.5q0 -98 -63 -171t-175 -73q-108 0 -172.5 65.5t-64.5 172.5zM166 242q0 -101 32.5 -159.5t88.5 -58.5q108 0 108 192q0 101 -31 155.5t-88 54.5q-110 0 -110 -184zM134 543h-27q8 59 38 94t72 35
q29 0 82.5 -27.5t72.5 -27.5q44 0 56 54h28q-1 -53 -32 -90.5t-72 -37.5q-31 0 -83 26t-75 26q-46 0 -60 -52z" />
    <glyph glyph-name="odieresis" unicode="&#xf6;" horiz-adv-x="563" 
d="M43 226q0 102 68.5 169t172.5 67q103 0 168.5 -64.5t65.5 -165.5q0 -98 -63 -171t-175 -73q-108 0 -172.5 65.5t-64.5 172.5zM166 242q0 -101 32.5 -159.5t88.5 -58.5q108 0 108 192q0 101 -31 155.5t-88 54.5q-110 0 -110 -184zM194 658q21 0 36 -15t15 -36t-15 -36.5
t-36 -15.5t-36.5 15.5t-15.5 36.5t15.5 36t36.5 15zM371 658q21 0 36 -15t15 -36t-15 -36.5t-36 -15.5t-36.5 15.5t-15.5 36.5t15.5 36t36.5 15z" />
    <glyph glyph-name="divide" unicode="&#xf7;" horiz-adv-x="668" 
d="M334 125q23 0 39 -16t16 -39t-16 -39.5t-39 -16.5t-39.5 16.5t-16.5 39.5t16.5 39t39.5 16zM334 528q23 0 39 -16t16 -39t-16 -39.5t-39 -16.5t-39.5 16.5t-16.5 39.5t16.5 39t39.5 16zM64 316h539v-90h-539v90z" />
    <glyph glyph-name="oslash" unicode="&#xf8;" horiz-adv-x="563" 
d="M178 135l193 224q-33 67 -95 67q-110 0 -110 -184q0 -64 12 -107zM136 30l-55 -64l-27 24l55 64q-66 62 -66 172q0 102 68.5 169t172.5 67q80 0 140 -41l54 63l27 -23l-53 -62q66 -64 66 -167q0 -98 -63 -171t-175 -73q-85 0 -144 42zM385 321l-194 -226q38 -71 96 -71
q108 0 108 192q0 59 -10 105z" />
    <glyph glyph-name="ugrave" unicode="&#xf9;" horiz-adv-x="604" 
d="M504 462v-338q0 -43 15.5 -60.5t62.5 -14.5v-36q-73 0 -161 -25h-28v78q-41 -42 -80 -60t-89 -18q-69 0 -105 40t-36 115v191q0 80 -68 80v36q103 -2 151 12h28v-307q0 -54 25 -81.5t65 -27.5q60 0 109 64v219q0 43 -17.5 65t-59.5 20v36q98 0 159 12h29zM291 688
l50 -163h-31l-140 163h121z" />
    <glyph glyph-name="uacute" unicode="&#xfa;" horiz-adv-x="604" 
d="M504 462v-338q0 -43 15.5 -60.5t62.5 -14.5v-36q-73 0 -161 -25h-28v78q-41 -42 -80 -60t-89 -18q-69 0 -105 40t-36 115v191q0 80 -68 80v36q103 -2 151 12h28v-307q0 -54 25 -81.5t65 -27.5q60 0 109 64v219q0 43 -17.5 65t-59.5 20v36q98 0 159 12h29zM308 688h121
l-140 -163h-31z" />
    <glyph glyph-name="ucircumflex" unicode="&#xfb;" horiz-adv-x="604" 
d="M504 462v-338q0 -43 15.5 -60.5t62.5 -14.5v-36q-73 0 -161 -25h-28v78q-41 -42 -80 -60t-89 -18q-69 0 -105 40t-36 115v191q0 80 -68 80v36q103 -2 151 12h28v-307q0 -54 25 -81.5t65 -27.5q60 0 109 64v219q0 43 -17.5 65t-59.5 20v36q98 0 159 12h29zM303 610
l-110 -101h-29l85 179h108l84 -179h-28z" />
    <glyph glyph-name="udieresis" unicode="&#xfc;" horiz-adv-x="604" 
d="M504 462v-338q0 -43 15.5 -60.5t62.5 -14.5v-36q-73 0 -161 -25h-28v78q-41 -42 -80 -60t-89 -18q-69 0 -105 40t-36 115v191q0 80 -68 80v36q103 -2 151 12h28v-307q0 -54 25 -81.5t65 -27.5q60 0 109 64v219q0 43 -17.5 65t-59.5 20v36q98 0 159 12h29zM215 658
q21 0 36 -15t15 -36t-15 -36.5t-36 -15.5t-36.5 15.5t-15.5 36.5t15.5 36t36.5 15zM392 658q21 0 36 -15t15 -36t-15 -36.5t-36 -15.5t-36.5 15.5t-15.5 36.5t15.5 36t36.5 15z" />
    <glyph glyph-name="yacute" unicode="&#xfd;" horiz-adv-x="521" 
d="M5 450h251v-36q-35 0 -50.5 -9t-15.5 -31q0 -19 10 -39l109 -230l83 210q11 26 11 46q0 26 -17.5 40t-50.5 13v36h182v-36q-31 -2 -45 -17.5t-37 -73.5l-144 -358q-36 -89 -70.5 -122.5t-91.5 -33.5q-39 0 -64.5 19.5t-25.5 49.5q0 20 14 34t33 14q24 0 44.5 -25
t40.5 -25q24 0 44.5 20.5t40.5 76.5l-182 384q-18 38 -30 47.5t-39 9.5v36zM266 688h121l-140 -163h-31z" />
    <glyph glyph-name="thorn" unicode="&#xfe;" horiz-adv-x="594" 
d="M194 696v-328q84 94 181 94q70 0 124.5 -55t54.5 -162q0 -58 -17 -104t-44 -74t-63 -46.5t-70 -25.5t-69 -7q-44 0 -97 12v-51q0 -56 22 -75t90 -18v-36h-300v36q46 0 61.5 21t15.5 72v634l-77 34v24l153 55h35zM194 326v-154q0 -80 23 -114t88 -34q62 0 98 46t36 130
q0 85 -34.5 136.5t-91.5 51.5q-54 0 -119 -62z" />
    <glyph glyph-name="ydieresis" unicode="&#xff;" horiz-adv-x="521" 
d="M5 450h251v-36q-35 0 -50.5 -9t-15.5 -31q0 -19 10 -39l109 -230l83 210q11 26 11 46q0 26 -17.5 40t-50.5 13v36h182v-36q-31 -2 -45 -17.5t-37 -73.5l-144 -358q-36 -89 -70.5 -122.5t-91.5 -33.5q-39 0 -64.5 19.5t-25.5 49.5q0 20 14 34t33 14q24 0 44.5 -25
t40.5 -25q24 0 44.5 20.5t40.5 76.5l-182 384q-18 38 -30 47.5t-39 9.5v36zM173 658q21 0 36 -15t15 -36t-15 -36.5t-36 -15.5t-36.5 15.5t-15.5 36.5t15.5 36t36.5 15zM350 658q21 0 36 -15t15 -36t-15 -36.5t-36 -15.5t-36.5 15.5t-15.5 36.5t15.5 36t36.5 15z" />
    <glyph glyph-name="dotlessi" unicode="&#x131;" horiz-adv-x="302" 
d="M213 462v-338q0 -49 15.5 -68t60.5 -20v-36h-266v36q42 0 60.5 17.5t18.5 67.5v227l-79 35v24l162 55h28z" />
    <glyph glyph-name="Lslash" unicode="&#x141;" horiz-adv-x="667" 
d="M266 363v-218q0 -55 22 -82t91 -27q77 0 123.5 30.5t86.5 108.5h62l-44 -175h-575v36q59 -3 79 18t20 77v129l-100 -89v71l100 89v225q0 50 -19.5 71.5t-79.5 18.5v36h344v-36q-66 4 -88 -16.5t-22 -80.5v-114l122 108v-72z" />
    <glyph glyph-name="lslash" unicode="&#x142;" horiz-adv-x="313" 
d="M208 380v-257q0 -47 16.5 -67t58.5 -20v-36h-265v36q47 -2 63 20.5t16 72.5v168l-120 -106v71l120 107v211l-79 35v24l156 57h34v-245l126 112v-72z" />
    <glyph glyph-name="OE" unicode="&#x152;" horiz-adv-x="1000" 
d="M930 682v-143h-55q-21 63 -55 85t-110 22h-221v-2q78 -33 124.5 -104t53.5 -165h58q38 0 58 21t26 68h52v-216h-52q-10 56 -30 73.5t-75 17.5h-37q4 -67 -24.5 -131t-68.5 -105.5t-85 -64.5v-2h184q79 0 120.5 11.5t66 37t55.5 83.5h58l-37 -168h-549q-91 0 -164.5 36
t-120.5 114t-47 186q0 92 33.5 168.5t108 127t177.5 50.5h556zM210 377q0 -341 160 -341q142 0 142 270q0 67 -8 124.5t-25.5 107.5t-50.5 79t-78 29q-68 0 -104 -69.5t-36 -199.5z" />
    <glyph glyph-name="oe" unicode="&#x153;" horiz-adv-x="854" 
d="M824 258h-328q-3 -91 36.5 -143.5t117.5 -52.5q79 0 138 62l26 -25q-84 -111 -221 -111q-103 0 -165 65q-66 -65 -165 -65t-158.5 63t-59.5 168q0 116 71 179.5t164 63.5q99 0 158 -68q43 38 81 53t90 15q98 0 156 -55t59 -149zM168 224q0 -96 30 -148t86 -52t82.5 45.5
t26.5 143.5q0 213 -113 213q-54 0 -83 -52.5t-29 -149.5zM496 294h203q2 55 -24.5 93.5t-77.5 38.5q-93 0 -101 -132z" />
    <glyph glyph-name="Scaron" unicode="&#x160;" horiz-adv-x="646" 
d="M63 504q0 79 61.5 135.5t190.5 56.5q110 0 221 -55l8 -146h-62q-15 79 -59 122t-110 43q-53 0 -87.5 -28.5t-34.5 -72.5q0 -38 31 -69q18 -18 76 -46t126.5 -66t109.5 -79q55 -55 55 -122q0 -24 -7 -48.5t-26 -50.5t-48 -46t-78 -33t-112 -13q-139 0 -247 50l-11 159h67
q22 -89 67.5 -131t118.5 -42q70 0 103.5 31t33.5 79q0 46 -30 76q-29 29 -147.5 85t-160.5 98q-49 49 -49 113zM323 825l110 101h29l-85 -179h-108l-84 179h28z" />
    <glyph glyph-name="scaron" unicode="&#x161;" horiz-adv-x="438" 
d="M62 23l-11 116h39q48 -115 140 -115q33 0 55.5 18t22.5 44q0 22 -16 38q-17 17 -102 51.5t-109 58.5q-36 36 -36 91q0 64 43.5 100.5t118.5 36.5q73 0 142 -26l15 -115h-35q-28 55 -60 80t-73 25q-31 0 -48.5 -14.5t-17.5 -40.5q0 -25 18 -43q14 -14 96 -46t110 -60
q22 -22 30.5 -41.5t8.5 -49.5q0 -66 -47.5 -104.5t-128.5 -38.5q-76 0 -155 35zM219 595l110 101h29l-85 -179h-108l-84 179h28z" />
    <glyph glyph-name="Ydieresis" unicode="&#x178;" horiz-adv-x="740" 
d="M439 282v-156q0 -54 22 -73.5t85 -16.5v-36h-353v36q64 -3 87.5 16.5t23.5 78.5v137l-159 296q-28 52 -50.5 68t-74.5 14v36h340v-36q-43 0 -61.5 -9t-18.5 -33q0 -19 25 -66l116 -215l107 181q31 53 31 85q0 54 -76 57v36h235v-36q-42 -1 -65.5 -19.5t-58.5 -79.5z
M303 888q21 0 36 -15t15 -36t-15 -36.5t-36 -15.5t-36.5 15.5t-15.5 36.5t15.5 36t36.5 15zM480 888q21 0 36 -15t15 -36t-15 -36.5t-36 -15.5t-36.5 15.5t-15.5 36.5t15.5 36t36.5 15z" />
    <glyph glyph-name="Zcaron" unicode="&#x17d;" horiz-adv-x="698" 
d="M627 682v-26l-419 -620h169q80 0 126 28.5t84 105.5h63l-42 -170h-554v36l412 610h-148q-73 0 -109 -22.5t-69 -90.5h-56v149h543zM349 825l110 101h29l-85 -179h-108l-84 179h28z" />
    <glyph glyph-name="zcaron" unicode="&#x17e;" horiz-adv-x="500" 
d="M462 151l-27 -151h-393v34q21 32 128.5 176t142.5 204h-63q-136 0 -159 -110h-36l10 166h23q6 -2 24 -13q14 -7 30 -7h281q15 0 19 -2.5t4 -10.5v-18q-20 -33 -129.5 -181t-142.5 -202h81q68 0 106.5 26t64.5 89h36zM250 595l110 101h29l-85 -179h-108l-84 179h28z" />
    <glyph glyph-name="florin" unicode="&#x192;" horiz-adv-x="510" 
d="M257 435l7 36q18 94 69 159.5t128 65.5q40 0 66 -21.5t26 -53.5q0 -20 -13 -32.5t-33 -12.5q-16 0 -24 8t-10.5 29t-14.5 33q-9 9 -24 9q-21 0 -33 -18.5t-19 -63.5l-24 -138h81l-4 -36h-84l-42 -222q-32 -169 -98.5 -266.5t-165.5 -97.5q-40 0 -65 18.5t-25 47.5
q0 19 14.5 32.5t34.5 13.5q18 0 28 -11t12 -23.5t11 -23.5t26 -11q30 0 50.5 31.5t35.5 104.5l83 407h-79l7 36h79z" />
    <glyph glyph-name="circumflex" unicode="&#x2c6;" horiz-adv-x="333" 
d="M167 610l-110 -101h-29l85 179h108l84 -179h-28z" />
    <glyph glyph-name="caron" unicode="&#x2c7;" horiz-adv-x="333" 
d="M166 595l110 101h29l-85 -179h-108l-84 179h28z" />
    <glyph glyph-name="uni02C9" unicode="&#x2c9;" horiz-adv-x="333" 
d="M4 642h325v-70h-325v70z" />
    <glyph glyph-name="breve" unicode="&#x2d8;" horiz-adv-x="333" 
d="M23 692h41q11 -44 38 -68.5t65 -24.5t65 25t37 68h41q3 -72 -38.5 -121.5t-104.5 -49.5t-105 49.5t-39 121.5z" />
    <glyph glyph-name="dotaccent" unicode="&#x2d9;" horiz-adv-x="333" 
d="M167 658q21 0 36 -15t15 -36t-15 -36.5t-36 -15.5t-36.5 15.5t-15.5 36.5t15.5 36t36.5 15z" />
    <glyph glyph-name="ring" unicode="&#x2da;" horiz-adv-x="333" 
d="M167 696q35 0 60 -25t25 -60t-25 -60t-60 -25t-60 25t-25 60t25 60t60 25zM167 663q-22 0 -37 -15t-15 -37t15 -37t37 -15t37 15t15 37t-15 37t-37 15z" />
    <glyph glyph-name="ogonek" unicode="&#x2db;" horiz-adv-x="333" 
d="M124 0h41q-37 -36 -37 -73q0 -24 16.5 -39.5t42.5 -15.5q34 0 67 15v-41q-33 -20 -65 -20q-46 0 -77.5 26.5t-31.5 65.5q0 38 44 82z" />
    <glyph glyph-name="tilde" unicode="&#x2dc;" horiz-adv-x="333" 
d="M19 543h-27q8 59 38 94t72 35q29 0 82.5 -27.5t72.5 -27.5q44 0 56 54h28q-1 -53 -32 -90.5t-72 -37.5q-31 0 -83 26t-75 26q-46 0 -60 -52z" />
    <glyph glyph-name="hungarumlaut" unicode="&#x2dd;" horiz-adv-x="333" 
d="M290 688h121l-140 -163h-31zM131 688h121l-140 -163h-31z" />
    <glyph glyph-name="uni03A9" unicode="&#x3a9;" horiz-adv-x="695" 
d="M662 149l-24 -149h-233l-8 19q3 5 26 53t32.5 70t25.5 65t22.5 81t6.5 75q-1 139 -47 203.5t-117 64.5q-162 0 -162 -272q0 -58 20.5 -127.5t37.5 -105.5t53 -106l-8 -20h-233l-22 149h27q15 -43 29.5 -56t45.5 -13h94q-32 26 -53.5 47t-50.5 57.5t-44 82.5t-15 99
q0 134 80.5 216t202.5 82q124 0 202 -78.5t78 -212.5q0 -48 -14.5 -91.5t-42.5 -81.5t-51 -62.5t-59 -57.5h102q30 0 43 12t28 57h28z" />
    <glyph glyph-name="uni03BC" unicode="&#x3bc;" horiz-adv-x="556" 
d="M58 462h111v-304q0 -52 23.5 -81.5t67.5 -29.5q63 0 108 63v352h111v-345q0 -68 37 -68q33 0 42 65h23q-2 -59 -35 -92.5t-84 -33.5q-71 0 -94 78q-73 -79 -170 -79q-57 0 -96 36q-4 -42 11 -104t15 -81q0 -25 -15.5 -41.5t-39.5 -16.5q-23 0 -36.5 15t-13.5 40
q0 26 17.5 90t17.5 152v385z" />
    <glyph glyph-name="pi" unicode="&#x3c0;" horiz-adv-x="548" 
d="M497 453l25 -8q-10 -67 -35 -99q-15 -5 -62 -5q-6 -62 -4 -203q0 -85 39 -85q20 0 45 25l12 -23q-18 -31 -47 -49t-59 -18q-92 0 -92 126q0 83 10 229q-28 0 -72.5 1t-61.5 1v-14q0 -99 -13.5 -176.5t-26 -106.5t-23.5 -43q-29 -13 -62 -17l-7 19q47 62 68.5 157
t21.5 182q-42 1 -65.5 -8t-56.5 -31l-15 25q2 2 11.5 14t13 16t14 14.5t18 15.5t20.5 12.5t25.5 11t29.5 6t36 2.5q216 -3 256 -3q23 0 34.5 6.5t22.5 25.5z" />
    <glyph glyph-name="endash" unicode="&#x2013;" horiz-adv-x="500" 
d="M-6 295h512v-90h-512v90z" />
    <glyph glyph-name="emdash" unicode="&#x2014;" horiz-adv-x="1000" 
d="M-6 295h1012v-90h-1012v90z" />
    <glyph glyph-name="quoteleft" unicode="&#x2018;" horiz-adv-x="292" 
d="M69 532q0 124 136 164l8 -24q3 -9 -4.5 -12t-26.5 -10t-35 -23q-25 -25 -25 -63q0 -30 24 -30q2 0 8.5 0.5t9.5 0.5q60 0 60 -55q0 -27 -18 -45.5t-45 -18.5q-39 0 -65.5 33.5t-26.5 82.5z" />
    <glyph glyph-name="quoteright" unicode="&#x2019;" horiz-adv-x="292" 
d="M88 416l-8 24q-2 6 0.5 9t9 5t14.5 4.5t20 9.5t22 17q25 25 25 63q0 30 -24 30q-2 0 -8.5 -0.5t-9.5 -0.5q-60 0 -60 55q0 27 18 45.5t45 18.5q39 0 65.5 -33.5t26.5 -82.5q0 -124 -136 -164z" />
    <glyph glyph-name="quotesinglbase" unicode="&#x201a;" horiz-adv-x="292" 
d="M90 -149l-8 24q-2 6 0.5 9t9 5t14.5 4.5t20 9.5t22 17q25 25 25 63q0 30 -24 30q-2 0 -8.5 -0.5t-9.5 -0.5q-60 0 -60 55q0 27 18 45.5t45 18.5q39 0 65.5 -33.5t26.5 -82.5q0 -124 -136 -164z" />
    <glyph glyph-name="quotedblleft" unicode="&#x201c;" 
d="M447 696l8 -24q2 -6 -0.5 -9t-9 -5t-14.5 -4.5t-20 -9.5t-22 -17q-25 -25 -25 -63q0 -30 24 -30q2 0 8.5 0.5t9.5 0.5q60 0 60 -55q0 -27 -18 -45.5t-45 -18.5q-39 0 -65.5 33.5t-26.5 82.5q0 124 136 164zM209 696l8 -24q2 -6 -0.5 -9t-9 -5t-14.5 -4.5t-20 -9.5
t-22 -17q-25 -25 -25 -63q0 -30 24 -30q2 0 8.5 0.5t9.5 0.5q60 0 60 -55q0 -27 -18 -45.5t-45 -18.5q-39 0 -65.5 33.5t-26.5 82.5q0 124 136 164z" />
    <glyph glyph-name="quotedblright" unicode="&#x201d;" 
d="M322 416l-8 24q-2 6 0.5 9t9 5t14.5 4.5t20 9.5t22 17q25 25 25 63q0 30 -24 30q-2 0 -8.5 -0.5t-9.5 -0.5q-60 0 -60 55q0 27 18 45.5t45 18.5q39 0 65.5 -33.5t26.5 -82.5q0 -124 -136 -164zM84 416l-8 24q-2 6 0.5 9t9 5t14.5 4.5t20 9.5t22 17q25 25 25 63
q0 30 -24 30q-2 0 -8.5 -0.5t-9.5 -0.5q-60 0 -60 55q0 27 18 45.5t45 18.5q39 0 65.5 -33.5t26.5 -82.5q0 -124 -136 -164z" />
    <glyph glyph-name="quotedblbase" unicode="&#x201e;" 
d="M332 -149l-8 24q-2 6 0.5 9t9 5t14.5 4.5t20 9.5t22 17q25 25 25 63q0 30 -24 30q-2 0 -8.5 -0.5t-9.5 -0.5q-60 0 -60 55q0 27 18 45.5t45 18.5q39 0 65.5 -33.5t26.5 -82.5q0 -124 -136 -164zM95 -149l-8 24q-2 6 0.5 9t9 5t14.5 4.5t20 9.5t22 17q25 25 25 63
q0 30 -24 30q-2 0 -8.5 -0.5t-9.5 -0.5q-60 0 -60 55q0 27 18 45.5t45 18.5q39 0 65.5 -33.5t26.5 -82.5q0 -124 -136 -164z" />
    <glyph glyph-name="dagger" unicode="&#x2020;" horiz-adv-x="458" 
d="M168 -143q0 110 46 541q-109 -50 -155 -50q-15 0 -20.5 8t-5.5 31v61q0 30 27 30q17 0 66 -15.5t88 -33.5l-42 196q-5 23 -5 34q0 37 41 37h42q42 0 42 -35q0 -8 -6 -36l-41 -196q39 18 87.5 33.5t64.5 15.5q29 0 29 -30v-61q0 -23 -5.5 -31t-20.5 -8q-46 0 -155 50
q46 -423 46 -541q0 -28 -10 -38t-36 -10h-31q-27 0 -36.5 10t-9.5 38z" />
    <glyph glyph-name="daggerdbl" unicode="&#x2021;" horiz-adv-x="469" 
d="M38 23v60q0 23 5.5 31.5t20.5 8.5q46 0 155 -50q-24 110 -24 180q0 69 24 179q-109 -50 -155 -50q-15 0 -20.5 8.5t-5.5 31.5v60q0 30 27 30q39 0 154 -48l-42 161q-5 20 -5 36q0 35 41 35h43q41 0 41 -35q0 -16 -5 -36l-42 -161q111 48 152 48q29 0 29 -30v-60
q0 -23 -5.5 -31.5t-20.5 -8.5q-46 0 -155 50q24 -116 24 -179q0 -64 -24 -180q109 50 155 50q15 0 20.5 -8.5t5.5 -31.5v-60q0 -30 -28 -30q-33 0 -153 48l42 -161q5 -20 5 -36q0 -35 -41 -35h-43q-41 0 -41 35q0 16 5 36l42 161q-115 -48 -153 -48q-28 0 -28 30z" />
    <glyph glyph-name="bullet" unicode="&#x2022;" horiz-adv-x="350" 
d="M175 459q53 0 91 -38t38 -91t-38 -91t-91 -38t-91 38t-38 91t38 91t91 38z" />
    <glyph glyph-name="ellipsis" unicode="&#x2026;" horiz-adv-x="1000" 
d="M92 62q0 31 21.5 52t52.5 21t52 -21t21 -52t-21 -52.5t-52 -21.5t-52.5 21.5t-21.5 52.5zM426 62q0 31 21.5 52t52.5 21t52 -21t21 -52t-21 -52.5t-52 -21.5t-52.5 21.5t-21.5 52.5zM760 62q0 31 21.5 52t52.5 21t52 -21t21 -52t-21 -52.5t-52 -21.5t-52.5 21.5
t-21.5 52.5z" />
    <glyph glyph-name="perthousand" unicode="&#x2030;" horiz-adv-x="1052" 
d="M764 171q0 79 36.5 127.5t95.5 48.5t95.5 -48.5t36.5 -127.5t-36.5 -128t-95.5 -49t-95.5 49t-36.5 128zM946 171q0 86 -10.5 118.5t-39.5 32.5t-39.5 -31.5t-10.5 -119.5q0 -87 10.5 -119.5t39.5 -32.5t39.5 32.5t10.5 119.5zM452 171q0 79 36.5 127.5t95.5 48.5
t95.5 -48.5t36.5 -127.5t-36.5 -128t-95.5 -49t-95.5 49t-36.5 128zM634 171q0 86 -10.5 118.5t-39.5 32.5t-39.5 -31.5t-10.5 -119.5q0 -87 10.5 -119.5t39.5 -32.5t39.5 32.5t10.5 119.5zM24 491q0 79 36.5 127.5t95.5 48.5t95.5 -48.5t36.5 -127.5t-36.5 -128t-95.5 -49
t-95.5 49t-36.5 128zM206 491q0 86 -10.5 118.5t-39.5 32.5t-39.5 -31.5t-10.5 -119.5q0 -87 10.5 -119.5t39.5 -32.5t39.5 32.5t10.5 119.5zM116 -42l449 738h53l-449 -738h-53z" />
    <glyph glyph-name="guilsinglleft" unicode="&#x2039;" horiz-adv-x="271" 
d="M239 30h-66q-45 110 -134 225q89 115 134 225h66q-38 -109 -123 -225q85 -116 123 -225z" />
    <glyph glyph-name="guilsinglright" unicode="&#x203a;" horiz-adv-x="271" 
d="M98 30h-66q38 109 123 225q-85 116 -123 225h66q45 -110 134 -225q-89 -115 -134 -225z" />
    <glyph glyph-name="fraction" unicode="&#x2044;" horiz-adv-x="188" 
d="M-156 -42l449 736h53l-449 -736h-53z" />
    <glyph glyph-name="Euro" unicode="&#x20ac;" 
d="M443 303l-11 -63h-244q11 -109 48 -162.5t93 -53.5q33 0 70.5 19t55.5 34l23 -26q-65 -63 -176 -63q-95 0 -155 70.5t-76 181.5h-69l10 63h54v12q0 15 2 43h-66l10 63h64q24 116 92.5 181.5t147.5 65.5q40 0 82.5 -13t60.5 -27l14 -135h-36q-16 75 -46 108t-79 33
q-116 0 -127 -213h272l-11 -63h-262v-32v-23h259z" />
    <glyph glyph-name="afii61289" unicode="&#x2113;" horiz-adv-x="408" 
d="M371 124l21 -19q-61 -115 -169 -115q-69 0 -103 37q-18 23 -26 52.5t-8 87.5v70l-55 -39l-13 27l68 51v127q0 108 10.5 158t40.5 87q41 53 95 53q45 0 69.5 -37t24.5 -93q0 -78 -35 -141.5t-105 -132.5v-81q0 -91 19 -127t62 -36q55 0 104 71zM186 457v-110q82 96 82 222
q0 100 -41 100q-24 0 -32.5 -44t-8.5 -168z" />
    <glyph glyph-name="trademark" unicode="&#x2122;" horiz-adv-x="1000" 
d="M21 662h364l7 -103h-17q-5 43 -26 59t-69 16h-29v-285q0 -40 9.5 -51.5t41.5 -12.5v-17h-197v17q35 3 42.5 13t7.5 51v285h-30q-46 0 -66.5 -16.5t-27.5 -58.5h-16zM589 662l125 -265l123 265h148v-18q-34 -1 -43 -12.5t-9 -53.5v-229q0 -40 9 -51t43 -13v-17h-205v17
q37 1 47 12t10 52v242h-2l-150 -323h-15l-150 320h-2v-242q0 -39 10.5 -50.5t50.5 -10.5v-17h-145v17q35 1 44.5 12t9.5 52v229q0 43 -9.5 54.5t-44.5 11.5v18h155z" />
    <glyph glyph-name="Omega" unicode="&#x2126;" horiz-adv-x="695" 
d="M662 149l-24 -149h-233l-8 19q3 5 26 53t32.5 70t25.5 65t22.5 81t6.5 75q-1 139 -47 203.5t-117 64.5q-162 0 -162 -272q0 -58 20.5 -127.5t37.5 -105.5t53 -106l-8 -20h-233l-22 149h27q15 -43 29.5 -56t45.5 -13h94q-32 26 -53.5 47t-50.5 57.5t-44 82.5t-15 99
q0 134 80.5 216t202.5 82q124 0 202 -78.5t78 -212.5q0 -48 -14.5 -91.5t-42.5 -81.5t-51 -62.5t-59 -57.5h102q30 0 43 12t28 57h28z" />
    <glyph glyph-name="estimated" unicode="&#x212e;" horiz-adv-x="817" 
d="M785 317h-610q-5 0 -5 -4v-184q0 -11 8 -21q97 -100 231 -100q145 0 242 112h55q-52 -60 -130.5 -95.5t-167.5 -35.5q-156 0 -266 98.5t-110 238.5q0 141 110 240t266 99t266.5 -99t110.5 -240v-9zM646 342v185q0 13 -9 22q-98 96 -228 96q-133 0 -230 -99q-9 -9 -9 -23
v-181q0 -6 5 -6h467q4 0 4 6z" />
    <glyph glyph-name="partialdiff" unicode="&#x2202;" horiz-adv-x="517" 
d="M253 410h1q34 0 67 -15.5t54 -44.5q7 55 10 103q4 84 -24 147q-15 32 -45.5 54.5t-69.5 22.5q-63 0 -135 -59q-13 -1 -27 26.5t-7 45.5q63 38 137 38q133 0 205 -136q49 -92 49 -223q0 -139 -46 -235q-69 -144 -204 -144q-81 0 -129.5 51t-48.5 139q0 93 58 160
q61 70 155 70zM278 368h-1q-58 0 -93 -54q-43 -70 -43 -187q0 -48 21 -76.5t58 -28.5q55 0 100 100q30 68 47 184q-10 22 -34.5 42t-54.5 20z" />
    <glyph glyph-name="Delta" unicode="&#x2206;" horiz-adv-x="614" 
d="M580 0h-547v29l246 623l46 11l255 -634v-29zM452 52l-182 465l-178 -465h360z" />
    <glyph glyph-name="product" unicode="&#x220f;" horiz-adv-x="670" 
d="M643 659v-29q-61 -4 -74 -16.5t-13 -62.5v-517q0 -54 13 -68t72 -18v-29h-265v29q53 5 64.5 17.5t11.5 68.5v555q0 22 -6.5 27.5t-29.5 5.5h-166q-22 0 -27.5 -5t-5.5 -24v-559q0 -55 9.5 -68.5t59.5 -17.5v-29h-259v29q58 4 72 18t14 68v517q0 50 -14 62.5t-75 16.5v29
h619z" />
    <glyph glyph-name="summation" unicode="&#x2211;" horiz-adv-x="534" 
d="M512 107l-43 -193h-443v27l210 313l-206 377v28h439q0 -6 4.5 -65.5t6.5 -96.5l-29 -6q-14 66 -34 99q-11 20 -30 27t-70 7h-159l167 -299l-212 -323h233q64 0 85.5 17t50.5 96z" />
    <glyph glyph-name="minus" unicode="&#x2212;" horiz-adv-x="667" 
d="M64 316h539v-90h-539v90z" />
    <glyph glyph-name="uni2215" unicode="&#x2215;" horiz-adv-x="188" 
d="M-156 -42l449 736h53l-449 -736h-53z" />
    <glyph glyph-name="uni2219" unicode="&#x2219;" horiz-adv-x="292" 
d="M146 400q31 0 52 -21t21 -52t-21 -52.5t-52 -21.5t-52.5 21.5t-21.5 52.5t21.5 52t52.5 21z" />
    <glyph glyph-name="radical" unicode="&#x221a;" 
d="M518 831l-164 -980l-24 -11l-204 517l-83 -39l-12 35l164 74l148 -392h2l130 806z" />
    <glyph glyph-name="infinity" unicode="&#x221e;" horiz-adv-x="718" 
d="M673 271v-1q0 -71 -44 -114.5t-103 -43.5q-85 0 -166 106q-42 -52 -81 -79t-90 -27q-59 0 -102 43.5t-43 110.5q0 69 43 112.5t109 43.5q85 0 167 -103q3 3 8 9q26 30 42.5 46t49 32t68.5 16q62 0 102 -42t40 -109zM196 173h2q24 0 49.5 15.5t40.5 31t38 43.5
q-20 27 -29.5 38.5t-27.5 29.5t-36.5 25t-39.5 7q-40 0 -63 -28t-23 -70q0 -39 25.5 -65.5t63.5 -26.5zM525 363h-1q-16 0 -31.5 -5.5t-31 -19t-24 -21.5t-25 -27t-18.5 -21q45 -55 72.5 -75.5t61.5 -20.5q37 0 59.5 28.5t22.5 63.5q0 44 -23.5 71t-61.5 27z" />
    <glyph glyph-name="integral" unicode="&#x222b;" horiz-adv-x="372" 
d="M153 0l-19 383q-6 121 6 206.5t37.5 127.5t53.5 59.5t61 17.5q24 0 44.5 -13.5t20.5 -36.5q0 -24 -14.5 -37t-34.5 -13q-19 0 -31 26.5t-21 26.5q-39 0 -32 -150l18 -354q6 -120 -5 -208t-35 -136.5t-54.5 -70.5t-67.5 -22q-28 0 -46.5 15t-18.5 36q-1 22 17 37.5
t40 15.5q16 0 28.5 -28.5t21.5 -28.5q39 0 31 147z" />
    <glyph glyph-name="approxequal" unicode="&#x2248;" horiz-adv-x="510" 
d="M431 418l41 -37q-49 -94 -125 -94q-44 0 -103 37q-49 31 -80 31q-28 0 -47 -17t-41 -50l-42 37q21 42 57 67.5t78 25.5q40 0 98 -34q54 -33 80 -33q43 0 84 67zM431 249l41 -37q-49 -94 -125 -94q-42 0 -103 36q-50 32 -80 32q-20 0 -37.5 -11.5t-26.5 -22.5t-24 -34
l-42 37q21 42 57.5 68t77.5 26q13 0 24.5 -2t23 -6.5t17.5 -7.5t18.5 -10t14.5 -8q3 -2 11.5 -7t11.5 -7t10.5 -6t11.5 -5.5t10.5 -3.5t12.5 -3t12 -1q25 0 43.5 16t40.5 51z" />
    <glyph glyph-name="notequal" unicode="&#x2260;" horiz-adv-x="510" 
d="M373 475l-37 -82h128v-65h-153l-55 -126h208v-64h-233l-47 -105l-51 21l38 84h-127v64h152l55 126h-207v65h232l45 103z" />
    <glyph glyph-name="lessequal" unicode="&#x2264;" horiz-adv-x="510" 
d="M462 96l-413 207v69l413 206v-75l-347 -164v-2l347 -166v-75zM465 -5h-419v66h419v-66z" />
    <glyph glyph-name="greaterequal" unicode="&#x2265;" horiz-adv-x="510" 
d="M51 578l412 -206v-70l-412 -206v75l347 165v2l-347 165v75zM464 -5h-418v66h418v-66z" />
    <glyph glyph-name="lozenge" unicode="&#x25ca;" horiz-adv-x="538" 
d="M492 316l-185 -383h-78l-184 383l186 386h77zM419 316l-148 317h-3l-150 -316l150 -317h3z" />
    </font>
</defs>
</svg>
