<?xml version="1.0" standalone="no"?>
<!DOCTYPE svg PUBLIC "-//W3C//DTD SVG 1.1//EN" "http://www.w3.org/Graphics/SVG/1.1/DTD/svg11.dtd" >
<svg>
<metadata>
Created by FontForge 20110222 at Mon Aug 12 14:50:52 2013
 By Ubuntu
Copyright (c) 1991, 2002 Adobe Systems Incorporated. All Rights Reserved.  (c) Copyright 1991, 2002 The Monotype Corporation Plc. All Rights Reserved.
</metadata>
<defs>
<font id="PlantinStd-SemiboldItalic" horiz-adv-x="667" >
  <font-face 
    font-family="Plantin Std Semibold"
    font-weight="600"
    font-style="italic"
    font-stretch="normal"
    units-per-em="1000"
    panose-1="2 4 7 3 5 5 6 9 2 3"
    ascent="695"
    descent="-305"
    x-height="447"
    cap-height="682"
    bbox="-260 -262 1107 911"
    underline-thickness="50"
    underline-position="-50"
    slope="-15"
    unicode-range="U+0020-FB02"
  />
<missing-glyph horiz-adv-x="633" 
d="M133 0v700h500v-700h-500zM383 395l170 255h-340zM413 350l170 -255v510zM213 50h340l-170 255zM183 605v-510l170 255z" />
    <glyph glyph-name=".notdef" horiz-adv-x="633" 
d="M133 0v700h500v-700h-500zM383 395l170 255h-340zM413 350l170 -255v510zM213 50h340l-170 255zM183 605v-510l170 255z" />
    <glyph glyph-name=".null" horiz-adv-x="0" 
 />
    <glyph glyph-name="nonmarkingreturn" horiz-adv-x="333" 
 />
    <glyph glyph-name="space" unicode=" " horiz-adv-x="286" 
 />
    <glyph glyph-name="exclam" unicode="!" horiz-adv-x="292" 
d="M119 195l90 432q9 44 24.5 57t57.5 13q47 0 47 -32q0 -14 -10 -38l-187 -432h-22zM86 124q28 0 48 -20t20 -48t-20 -48t-48 -20t-48 20t-20 48t20 48t48 20z" />
    <glyph glyph-name="quotedbl" unicode="&#x22;" horiz-adv-x="555" 
d="M425 382l-35 160q-11 52 -11 81q0 25 16 42t40 17q25 0 42 -17t17 -42q0 -31 -11 -81l-36 -160h-22zM225 382l-35 160q-11 52 -11 81q0 25 16 42t40 17q25 0 42 -17t17 -42q0 -31 -11 -81l-36 -160h-22z" />
    <glyph glyph-name="numbersign" unicode="#" horiz-adv-x="668" 
d="M168 175h-88v81h105l33 159h-138v81h155l40 191h81l-40 -191h183l40 191h81l-40 -191h87v-81h-104l-33 -159h137v-81h-154l-40 -190h-81l40 190h-183l-40 -190h-81zM299 415l-33 -159h183l33 159h-183z" />
    <glyph glyph-name="dollar" unicode="$" horiz-adv-x="531" 
d="M416 602l-70 -230q129 -103 129 -190q0 -71 -64 -131t-182 -62l-24 -80h-37l24 80q-62 11 -98.5 55t-36.5 108q0 39 19 39q11 0 32.5 -7t21.5 -12q0 -7 -1.5 -26.5t-1.5 -22.5q0 -77 77 -95l80 261q-71 63 -94 99.5t-23 80.5q0 77 57.5 126t148.5 49q10 0 19 -1l12 39h37
l-14 -44q60 -11 92.5 -47.5t32.5 -87.5q0 -20 -4 -26.5t-16 -6.5h-32q-24 0 -24 16q0 2 2 16t2 26q0 30 -17 50t-47 24zM381 607q-56 6 -94 -24.5t-38 -80.5q0 -29 14.5 -52t53.5 -53zM239 23q62 -3 107 35.5t45 91.5q0 46 -78 114z" />
    <glyph glyph-name="percent" unicode="%" horiz-adv-x="802" 
d="M65 439q0 88 57 158t129 70q49 0 79 -35q31 -38 31 -93q0 -86 -56.5 -155.5t-127.5 -69.5q-50 0 -82 35q-30 35 -30 90zM131 405q0 -28 13 -45.5t34 -17.5t40 19q25 25 51 97.5t26 117.5q0 29 -12 46t-32 17q-21 0 -42 -21q-33 -33 -55.5 -100.5t-22.5 -112.5zM528 119
q0 88 57 158t129 70q49 0 79 -35q31 -38 31 -93q0 -86 -56.5 -155.5t-127.5 -69.5q-50 0 -82 35q-30 35 -30 90zM594 85q0 -28 13 -45.5t34 -17.5t40 19q25 25 51 97.5t26 117.5q0 29 -12 46t-32 17q-21 0 -42 -21q-33 -33 -55.5 -100.5t-22.5 -112.5zM98 -42l646 736h53
l-646 -736h-53z" />
    <glyph glyph-name="ampersand" unicode="&#x26;" horiz-adv-x="948" 
d="M410 417q-90 2 -147 -45t-57 -125q0 -84 80 -144.5t191 -60.5q103 0 173 53.5t70 131.5q0 57 -37 104t-104 47q-37 0 -60 -17t-23 -45q0 -20 13.5 -30.5t29 -13t29 -11.5t13.5 -27q0 -17 -12.5 -28.5t-31.5 -11.5q-32 0 -56 30t-24 70q0 59 44 112.5t122 53.5
q46 0 94.5 -23.5t89 -47t66.5 -23.5q23 0 38 16.5t15 41.5q0 29 -16 45t-34.5 19.5t-34.5 13t-16 28.5q0 16 13.5 27t33.5 11q38 0 65.5 -38t27.5 -91q0 -64 -41.5 -111.5t-97.5 -47.5q-48 0 -89 35l-2 -2q21 -46 21 -89q0 -102 -98.5 -170.5t-245.5 -68.5q-65 0 -120 16
t-91.5 41.5t-62 58t-36.5 63.5t-11 60q0 138 188 209q-46 45 -46 88q0 71 76 123.5t180 52.5q70 0 115.5 -26.5t45.5 -66.5q0 -22 -13.5 -34.5t-38.5 -12.5t-38 16t-17.5 35t-23 35t-53.5 16q-54 0 -85.5 -40t-31.5 -86q0 -66 70 -83z" />
    <glyph glyph-name="quotesingle" unicode="'" horiz-adv-x="278" 
d="M180 382l-35 160q-11 52 -11 81q0 25 16 42t40 17q26 0 42.5 -17t16.5 -42q0 -31 -11 -81l-36 -160h-22z" />
    <glyph glyph-name="parenleft" unicode="(" horiz-adv-x="323" 
d="M209 -151l-12 -39q-61 61 -95 145t-34 175q0 88 26 176.5t74.5 167.5t126.5 139t173 84l-12 -42q-72 -35 -131.5 -115.5t-93.5 -175t-52 -184t-18 -158.5q0 -109 48 -173z" />
    <glyph glyph-name="parenright" unicode=")" horiz-adv-x="323" 
d="M155 658l12 39q61 -61 95 -145t34 -175q0 -88 -26 -176.5t-74.5 -167.5t-126.5 -139t-173 -84l12 42q72 35 131.5 115.5t93.5 175t52 184t18 158.5q0 109 -48 173z" />
    <glyph glyph-name="asterisk" unicode="*" horiz-adv-x="500" 
d="M322 410l-147 -94l-22 27l122 123l-135 112l18 30l158 -77l64 163l33 -12l-25 -171l176 -12l1 -33l-174 -28l44 -170l-32 -13z" />
    <glyph glyph-name="plus" unicode="+" 
d="M98 315h225v225h90v-225h225v-90h-225v-225h-90v225h-225v90z" />
    <glyph glyph-name="comma" unicode="," horiz-adv-x="292" 
d="M-5 -180l11 36q45 10 83 44t38 63q0 10 -10 18t-22.5 14t-22.5 20.5t-10 35.5q0 28 17.5 46.5t44.5 18.5q34 0 57 -27t23 -68q0 -70 -61.5 -129t-147.5 -72z" />
    <glyph glyph-name="hyphen" unicode="-" horiz-adv-x="406" 
d="M36 174l28 94h317l-28 -94h-317z" />
    <glyph glyph-name="period" unicode="." horiz-adv-x="292" 
d="M113 124q29 0 48.5 -20t19.5 -48t-19.5 -48t-48.5 -20t-48.5 20t-19.5 48t19.5 48t48.5 20z" />
    <glyph glyph-name="slash" unicode="/" horiz-adv-x="296" 
d="M345 696l-233 -831h-91l233 831h91z" />
    <glyph glyph-name="zero" unicode="0" horiz-adv-x="573" 
d="M88 228q0 110 43 212t113 164.5t146 62.5q79 0 128.5 -67.5t49.5 -176.5q0 -173 -96 -304t-207 -131q-81 0 -129 65.5t-48 174.5zM180 162q0 -59 24.5 -95t65.5 -36q36 0 65 29q49 49 95 197.5t46 239.5q0 59 -22.5 93t-61.5 34q-36 0 -70 -34q-56 -56 -99 -193.5
t-43 -234.5z" />
    <glyph glyph-name="one" unicode="1" horiz-adv-x="573" 
d="M473 667l-138 -512q-13 -46 -13 -68q0 -27 17 -35.5t68 -8.5l-11 -43h-295l11 43q47 -3 73.5 17t39.5 67l91 333q8 31 8 47q0 17 -12.5 24.5t-41.5 7.5h-43l11 43q117 4 183 85h52z" />
    <glyph glyph-name="two" unicode="2" horiz-adv-x="573" 
d="M489 178l-41 -178h-392v29q37 52 150 160l75 72q82 79 116 132.5t34 99.5t-29.5 74t-77.5 28q-38 0 -73 -16t-86 -56l-32 30q127 114 238 114q73 0 121 -41t48 -103q0 -44 -19 -85t-69 -91q-41 -41 -146.5 -130.5t-130.5 -119.5h152q58 0 81.5 16t35.5 65h45z" />
    <glyph glyph-name="three" unicode="3" horiz-adv-x="573" 
d="M210 327l11 43q103 0 163 39t60 105q0 39 -26.5 62.5t-70.5 23.5q-63 0 -123 -56l-31 28q72 95 187 95q84 0 124.5 -40.5t40.5 -97.5q0 -63 -48 -109.5t-132 -64.5v-2q114 -49 114 -160q0 -23 -6 -47.5t-23.5 -53.5t-45.5 -51.5t-76 -37.5t-110 -15q-161 0 -161 44
q0 15 15 34.5t32 19.5q5 0 56.5 -27.5t91.5 -27.5q53 0 87 40.5t34 104.5q0 73 -42.5 114t-120.5 37z" />
    <glyph glyph-name="four" unicode="4" horiz-adv-x="573" 
d="M418 187l-54 -199h-102l54 199h-266l8 86l412 394h76l-109 -407h121l-19 -73h-121zM335 260l79 290l-2 2l-306 -292h229z" />
    <glyph glyph-name="five" unicode="5" horiz-adv-x="573" 
d="M272 655h230l17 27l37 -20l-56 -98h-223l-36 -71q113 -25 182 -97t69 -164q0 -28 -8 -58.5t-29 -64t-52.5 -60t-83 -44t-116.5 -17.5q-71 0 -114 12t-43 32q0 11 14 30.5t29 19.5q9 0 66 -22t103 -22q68 0 114.5 45t46.5 111q0 70 -49 119q-68 68 -220 95z" />
    <glyph glyph-name="six" unicode="6" horiz-adv-x="573" 
d="M531 667l37 -35q-123 -37 -206 -102.5t-136 -168.5l2 -2q72 46 139 46q71 0 115.5 -48t44.5 -124q0 -91 -65.5 -168t-172.5 -77q-94 0 -153.5 62t-59.5 159q0 90 43 173t110.5 141.5t147 96.5t154.5 47zM192 282q-15 -64 -15 -113q0 -63 30.5 -100.5t81.5 -37.5
q38 0 66 21.5t42 54t20.5 63t6.5 57.5q0 50 -28.5 84.5t-69.5 34.5q-64 0 -134 -64z" />
    <glyph glyph-name="seven" unicode="7" horiz-adv-x="573" 
d="M204 655h417l-449 -667h-66l385 573h-193q-43 0 -62.5 -14.5t-31.5 -53.5h-44z" />
    <glyph glyph-name="eight" unicode="8" horiz-adv-x="573" 
d="M577 523q0 -52 -39 -93t-127 -81q66 -66 88.5 -105t22.5 -86q0 -25 -10 -51.5t-32.5 -54.5t-70 -46t-112.5 -18q-63 0 -111 18t-72 46.5t-35.5 55.5t-11.5 51q0 62 56.5 110.5t158.5 79.5q-57 56 -78 90t-21 71q0 67 61 112t150 45q93 0 138 -44.5t45 -99.5zM308 463
l69 -75q118 56 118 138q0 44 -31.5 71t-82.5 27q-46 0 -76 -25t-30 -63q0 -37 33 -73zM381 235l-65 73q-90 -33 -128 -68t-38 -85q0 -18 7 -37.5t23 -40t48.5 -33.5t75.5 -13q58 0 94 26.5t36 70.5q0 46 -53 107z" />
    <glyph glyph-name="nine" unicode="9" horiz-adv-x="573" 
d="M114 -12l-37 35q123 37 206 102.5t136 168.5l-2 2q-72 -46 -139 -46q-71 0 -115.5 47.5t-44.5 124.5q0 39 15 80.5t43 79t75 61.5t105 24q93 0 153 -62t60 -159q0 -161 -134 -295q-140 -140 -321 -163zM220 428q0 -50 28.5 -84.5t69.5 -34.5q65 0 135 64q15 64 15 113
q0 63 -30.5 100.5t-81.5 37.5q-39 0 -67.5 -22t-42.5 -55t-20 -63t-6 -56z" />
    <glyph glyph-name="colon" unicode=":" horiz-adv-x="292" 
d="M213 447q29 0 48.5 -19.5t19.5 -48.5t-19.5 -48.5t-48.5 -19.5t-48.5 19.5t-19.5 48.5t19.5 48.5t48.5 19.5zM113 124q29 0 48.5 -20t19.5 -48t-19.5 -48t-48.5 -20t-48.5 20t-19.5 48t19.5 48t48.5 20z" />
    <glyph glyph-name="semicolon" unicode=";" horiz-adv-x="292" 
d="M-5 -180l11 36q45 10 83 44t38 63q0 10 -10 18t-22.5 14t-22.5 20.5t-10 35.5q0 28 17.5 46.5t44.5 18.5q34 0 57 -27t23 -68q0 -70 -61.5 -129t-147.5 -72zM213 447q29 0 48.5 -19.5t19.5 -48.5t-19.5 -48.5t-48.5 -19.5t-48.5 19.5t-19.5 48.5t19.5 48.5t48.5 19.5z
" />
    <glyph glyph-name="less" unicode="&#x3c;" 
d="M637 4l-538 225v82l538 225v-98l-415 -168l415 -169v-97z" />
    <glyph glyph-name="equal" unicode="=" 
d="M99 432h539v-90h-539v90zM99 200h539v-90h-539v90z" />
    <glyph glyph-name="greater" unicode="&#x3e;" 
d="M99 4v97l416 169l-416 168v98l538 -225v-82z" />
    <glyph glyph-name="question" unicode="?" horiz-adv-x="500" 
d="M147 198l43 162q5 19 13 24.5t27 5.5h54q67 0 106 33.5t39 84.5q0 44 -27 67.5t-71 23.5q-12 0 -38 -2.5t-30 -2.5q-24 0 -37 12.5t-13 31.5q0 27 23 43t61 16q73 0 121.5 -57t48.5 -143q0 -52 -17 -100.5t-46 -77.5q-31 -31 -72 -42t-75 -15t-46 -16q-15 -15 -26 -48
h-38zM143 124q29 0 48.5 -20t19.5 -48t-19.5 -48t-48.5 -20t-48.5 20t-19.5 48t19.5 48t48.5 20z" />
    <glyph glyph-name="at" unicode="@" horiz-adv-x="832" 
d="M687 472l-92 -316q-11 -39 -11 -64q0 -16 11 -27t25 -11q22 0 53.5 15.5t56.5 40.5q47 47 73.5 114.5t26.5 140.5q0 132 -86 218q-87 87 -230 87q-165 0 -288 -123q-65 -65 -100 -153t-35 -185q0 -172 108 -280q107 -107 274 -107q177 0 296 119q63 63 99 151h29
q-38 -122 -153.5 -210.5t-271.5 -88.5q-187 0 -308 122t-121 310q0 199 133.5 335.5t328.5 136.5q170 0 261.5 -96t91.5 -238q0 -82 -31 -159t-96.5 -131.5t-151.5 -54.5q-39 0 -61 19t-22 53q0 45 11 72l-2 2q-103 -146 -184 -146q-35 0 -59.5 32t-24.5 78q0 85 45 168.5
t106.5 133t113.5 49.5q31 0 50.5 -19t24.5 -51h2l15 55zM555 383q0 31 -14 50t-37 19q-36 0 -78.5 -56t-69.5 -128t-27 -120q0 -23 13.5 -41t30.5 -18q33 0 71 38q51 51 81 124.5t30 131.5z" />
    <glyph glyph-name="A" unicode="A" 
d="M620 697l-52 -516q-6 -52 -6 -79q0 -63 77 -66l-14 -36h-295l9 36q95 -2 105 95l11 110h-250l-34 -48q-47 -65 -47 -106q0 -23 15.5 -36.5t43.5 -14.5l-9 -36h-235l9 36q39 10 78 49q24 24 137.5 172.5t161.5 203.5l202 236h93zM459 283l30 308l-2 2l-251 -310h223z" />
    <glyph glyph-name="B" unicode="B" horiz-adv-x="740" 
d="M175 682h290q116 0 170 -22q42 -17 67.5 -53.5t25.5 -79.5q0 -68 -60.5 -115t-158.5 -55v-2q91 -10 136 -58.5t45 -106.5q0 -81 -81.5 -135.5t-254.5 -54.5h-351l10 36q43 3 69 30t41 83l100 373q12 44 12 69q0 59 -70 55zM307 376h94q89 0 146 45t57 106q0 119 -185 119
h-40zM297 340l-54 -202q-8 -30 -8 -50q0 -29 21.5 -40.5t76.5 -11.5q101 0 162.5 44.5t61.5 117.5q0 69 -55 105.5t-160 36.5h-45z" />
    <glyph glyph-name="C" unicode="C" horiz-adv-x="708" 
d="M747 628l-28 -147h-51q11 78 -28.5 128t-107.5 50q-119 0 -212.5 -126.5t-93.5 -288.5q0 -100 44 -160.5t117 -60.5q131 0 204 195h72l-43 -161q-99 -72 -239 -72q-134 0 -211 72.5t-77 199.5q0 116 59 218t156.5 162t206.5 60q125 0 232 -69z" />
    <glyph glyph-name="D" unicode="D" horiz-adv-x="740" 
d="M174 682h279q124 0 198.5 -88t74.5 -222q0 -50 -12.5 -100t-41.5 -99.5t-70.5 -87.5t-106.5 -61.5t-143 -23.5h-342l10 36q43 6 69 32.5t40 80.5l107 400q4 15 4 32q0 68 -76 65zM385 646l-128 -476q-12 -47 -12 -67q0 -67 89 -67q114 0 178 100q36 56 58.5 134t22.5 146
q0 109 -47.5 169.5t-134.5 60.5h-26z" />
    <glyph glyph-name="E" unicode="E" horiz-adv-x="708" 
d="M162 682h581l-28 -153h-45q-10 62 -38.5 89.5t-90.5 27.5h-162l-72 -269h123q59 0 89.5 19t58.5 71h48l-63 -233h-47q1 60 -23.5 83.5t-82.5 23.5h-113l-47 -177q-10 -37 -10 -58q0 -34 23 -52t66 -18h99q63 0 109 33t89 95h51l-75 -164h-598l9 36q83 9 110 113l100 374
q11 40 11 60q0 66 -81 63z" />
    <glyph glyph-name="F" unicode="F" horiz-adv-x="625" 
d="M154 682h552l-41 -152h-47q8 49 -13 82.5t-69 33.5h-158l-71 -268h102q58 0 85.5 18t53.5 71h48l-57 -233h-47q-5 59 -28 83.5t-74 24.5h-93l-49 -182q-7 -26 -7 -54q0 -33 22 -53t58 -17l-10 -36h-302l10 36q40 4 64 30.5t39 82.5l101 374q7 25 7 57q0 67 -86 66z" />
    <glyph glyph-name="G" unicode="G" horiz-adv-x="802" 
d="M527 349h305l-10 -36q-50 1 -72.5 -24.5t-38.5 -88.5l-48 -180q-110 -35 -238 -35q-87 0 -153.5 24t-104.5 65t-57 89t-19 101q0 81 36 159.5t97.5 139t150 97.5t185.5 37q141 0 250 -74l-32 -150h-48q17 85 -28.5 135.5t-139.5 50.5q-136 0 -235 -116t-99 -284
q0 -113 51 -174.5t146 -61.5q62 0 122 25l38 141q11 38 11 63q0 33 -18 48.5t-61 12.5z" />
    <glyph glyph-name="H" unicode="H" horiz-adv-x="823" 
d="M187 682h281l-10 -36q-43 0 -66 -21t-34 -62l-51 -191h308l40 151q11 42 11 58q0 28 -15 45t-41 20l10 36h276l-10 -36q-42 -1 -64.5 -22.5t-34.5 -67.5l-106 -396q-10 -36 -10 -57q0 -26 16 -44t44 -23l-10 -36h-271l10 36q38 3 58.5 26.5t36.5 86.5l48 181h-308
l-45 -170q-11 -39 -11 -58q0 -26 19 -46.5t44 -19.5l-10 -36h-274l10 36q40 5 60 28t36 85l100 374q11 42 11 58q0 28 -16 45.5t-42 19.5z" />
    <glyph glyph-name="I" unicode="I" horiz-adv-x="385" 
d="M185 682h280l-9 -36q-77 0 -99 -83l-108 -403q-9 -34 -9 -54q0 -29 19 -48.5t53 -21.5l-9 -36h-294l9 36q45 1 67 26.5t38 86.5l100 374q10 36 10 61q0 26 -15.5 43t-41.5 19z" />
    <glyph glyph-name="J" unicode="J" horiz-adv-x="394" 
d="M361 548l-131 -487q-31 -118 -102.5 -183t-175.5 -65q-64 0 -105.5 27t-41.5 69q0 22 17 38.5t40 16.5q27 0 41 -17.5t17 -39t15 -39t37 -17.5q79 0 129 186l137 512q4 16 4 34q0 66 -81 63l10 36h311l-10 -36q-45 1 -71 -23t-40 -75z" />
    <glyph glyph-name="K" unicode="K" horiz-adv-x="708" 
d="M170 682h310l-9 -36q-92 1 -123 -113l-45 -169q249 153 304 208q27 27 27 47q0 27 -52 27l9 36h251l-9 -36q-29 2 -60.5 -12t-84.5 -52l-272 -195q46 -61 119 -180t99 -145q27 -27 79 -26l-17 -36h-164q-24 24 -108 162t-126 185l-50 -187q-11 -41 -11 -62
q0 -28 21.5 -45.5t55.5 -16.5l-10 -36h-303l9 36q46 2 70.5 27.5t41.5 85.5l101 374q11 39 11 62q0 61 -73 61z" />
    <glyph glyph-name="L" unicode="L" horiz-adv-x="604" 
d="M343 533l-99 -370q-11 -44 -11 -64q0 -63 92 -63h46q62 0 107.5 29t95.5 98h52l-77 -163h-533l9 36q43 9 59 29.5t33 83.5l101 374q11 42 11 64q0 25 -16 41.5t-41 17.5l9 36h290l-9 -36q-54 2 -78 -23.5t-41 -89.5z" />
    <glyph glyph-name="M" unicode="M" horiz-adv-x="948" 
d="M214 682h221q-9 -60 -9 -90t14 -142l35 -274l227 352q47 73 68 154h228l-9 -36q-48 2 -78 -26.5t-36 -86.5l-38 -391q-9 -96 67 -106l-10 -36h-276l10 36q43 8 65.5 35t26.5 78l38 405l-2 2q-21 -43 -66 -112l-190 -292q-47 -71 -80 -152h-51q6 53 -15 211l-33 247
q-8 55 -10 107h-2l-149 -362q-26 -64 -26 -99q0 -59 74 -68l-10 -36h-218l10 36q43 8 65 37t53 103l128 310q31 75 31 108q0 46 -62 52z" />
    <glyph glyph-name="N" unicode="N" horiz-adv-x="792" 
d="M130 682h168q39 -38 82 -113l236 -417l89 331q15 57 15 96q0 36 -19 52t-65 15l10 36h230l-10 -36q-49 -4 -76 -43.5t-51 -128.5l-98 -366l59 -108h-134l-302 531l-85 -317q-22 -83 -22 -115q0 -29 24 -46t69 -17l-10 -36h-241l10 36q56 1 80.5 38t49.5 129l98 366
q-42 51 -62 64t-55 13z" />
    <glyph glyph-name="O" unicode="O" horiz-adv-x="813" 
d="M89 263q0 112 59.5 212.5t158.5 161t209 60.5q129 0 210.5 -80t81.5 -207q0 -110 -59 -208.5t-157.5 -157.5t-208.5 -59q-127 0 -210.5 79t-83.5 199zM222 221q0 -90 44 -144t117 -54q60 0 111 35t83.5 87t55.5 115.5t32.5 118t9.5 95.5q0 82 -45 133.5t-116 51.5
q-63 0 -119.5 -41.5t-93 -106t-58 -141t-21.5 -149.5z" />
    <glyph glyph-name="P" unicode="P" horiz-adv-x="688" 
d="M162 682h269q147 0 218 -42t71 -129q0 -92 -84.5 -148t-225.5 -56q-72 0 -72 14q0 25 19 25q6 0 21 -0.5t19 -0.5q51 0 90 16t59.5 42t30.5 54t10 56q0 72 -52.5 103.5t-154.5 29.5l-131 -486q-6 -20 -6 -46q0 -68 88 -78l-9 -36h-324l9 36q49 1 74.5 27.5t41.5 85.5
l101 374q9 33 9 54q0 30 -22 48.5t-58 20.5z" />
    <glyph glyph-name="Q" unicode="Q" horiz-adv-x="813" 
d="M229 22q-140 82 -140 243q0 169 130 300.5t297 131.5q129 0 210.5 -80t81.5 -207q0 -102 -52 -196.5t-145.5 -157t-204.5 -69.5v-2q65 -38 155.5 -66t170.5 -35l-18 -67q-21 -4 -46 -4q-110 0 -214 52t-225 157zM222 221q0 -90 44 -144t117 -54q83 0 152 69
q65 65 102.5 181.5t37.5 200.5q0 82 -45 133.5t-116 51.5q-84 0 -153 -70.5t-104 -170t-35 -197.5z" />
    <glyph glyph-name="R" unicode="R" horiz-adv-x="750" 
d="M171 682h329q123 0 192 -38.5t69 -119.5q0 -77 -64.5 -126.5t-176.5 -56.5l61 -204q16 -56 38 -76t68 -25l-9 -36h-158q-31 34 -113 334q-18 -1 -61 -1q-33 0 -50 1l-46 -174q-11 -44 -11 -59q0 -28 20 -48.5t52 -16.5l-9 -36h-305l9 36q52 -3 77.5 26.5t40.5 86.5
l100 374q11 40 11 60q0 28 -20.5 46.5t-52.5 16.5zM306 369q126 -1 186.5 12.5t87.5 40.5q45 45 45 104q0 54 -39.5 87t-112.5 33h-93z" />
    <glyph glyph-name="S" unicode="S" horiz-adv-x="594" 
d="M630 628l-32 -120h-55q15 71 -30.5 111t-111.5 40q-46 0 -75 -26.5t-29 -68.5q0 -49 53 -107l79 -88q50 -56 73 -101.5t23 -92.5q0 -89 -63 -139.5t-180 -50.5q-146 0 -255 88l35 131h56q-7 -84 40.5 -132.5t125.5 -48.5q56 0 91 32.5t35 84.5q0 60 -54 122l-98 112
q-76 86 -76 141q0 75 61.5 128.5t163.5 53.5q113 0 223 -69z" />
    <glyph glyph-name="T" unicode="T" horiz-adv-x="750" 
d="M186 682h639l-34 -164h-45q-14 128 -122 128h-66l-130 -486q-11 -42 -11 -59q0 -31 22 -50.5t68 -14.5l-10 -36h-338l10 36q62 0 90 28.5t43 84.5l133 497h-59q-81 0 -120.5 -28t-72.5 -100h-41z" />
    <glyph glyph-name="U" unicode="U" horiz-adv-x="760" 
d="M157 682h299l-9 -36q-85 -4 -114 -113l-80 -301q-12 -46 -12 -67q0 -60 39.5 -95.5t105.5 -35.5q180 0 228 204l62 266q9 39 9 56q0 33 -21 55.5t-59 30.5l9 36h242l-10 -36q-56 -2 -83 -26t-42 -87l-70 -295q-28 -119 -97.5 -186t-198.5 -67q-64 0 -111.5 17t-72 45
t-35.5 57t-11 60q0 53 14 104l68 255q5 18 5 42q0 34 -16.5 55.5t-47.5 25.5z" />
    <glyph glyph-name="V" unicode="V" horiz-adv-x="688" 
d="M188 -15l27 560q2 13 0.5 30.5t-6 33t-19.5 26.5t-40 11l6 36h279l-5 -36q-27 -1 -45.5 -9.5t-28 -17.5t-15 -27t-7 -29.5t-2.5 -33.5l-21 -434l2 -2q162 192 272 350q77 111 77 156q0 47 -73 47l10 36h225l-10 -36q-34 -8 -63 -40t-122 -164q-58 -81 -102.5 -138
t-180.5 -226q-47 -58 -65 -93h-93z" />
    <glyph glyph-name="W" unicode="W" horiz-adv-x="948" 
d="M299 561l19 -328q0 -11 1 -38.5t2 -47.5h2l205 332l-5 78q-3 51 -22.5 69t-48.5 20l10 36h270l-9 -36q-48 -2 -66.5 -26.5t-15.5 -80.5l18 -350q1 -28 1 -59h2q96 156 195 329q35 61 45 84.5t10 43.5q0 19 -15 38t-49 21l10 36h211l-9 -36q-35 -1 -56.5 -24.5
t-64.5 -94.5q-8 -14 -56.5 -96.5t-91 -153.5t-55.5 -93q-104 -169 -119 -199h-72q3 30 3 47q0 33 -2 55l-15 328h-2l-165 -266q-7 -12 -21.5 -34.5t-18 -28.5t-12.5 -20.5t-11 -19.5t-8 -17t-9.5 -21t-8.5 -23h-66q1 79 -1 117l-27 462q-1 24 -3.5 37.5t-13.5 27.5t-32 17
l9 36h222l-9 -36q-21 -2 -34 -12t-16.5 -23t-5 -27t0.5 -23z" />
    <glyph glyph-name="X" unicode="X" horiz-adv-x="729" 
d="M384 295l-136 -129q-56 -53 -56 -84q0 -42 61 -46l-9 -36h-249l9 36q41 9 73 28t77 62l216 203l-106 228q-25 54 -42 70t-54 19l10 36h287l-10 -36q-71 -4 -71 -47q0 -19 24 -72l51 -112l106 101q55 52 55 92q0 32 -46 38l10 36h231l-10 -36q-36 -6 -69 -26t-82 -67
l-179 -172l95 -210q34 -76 58.5 -102t60.5 -33l-9 -36h-279l9 36q60 0 60 42q0 18 -27 81z" />
    <glyph glyph-name="Y" unicode="Y" 
d="M421 269l-29 -109q-11 -41 -11 -62q0 -63 90 -62l-10 -36h-317l10 36q50 -1 71.5 25.5t38.5 87.5l32 120l-101 296q-16 46 -31.5 62t-48.5 19l10 36h276l-10 -36q-80 0 -80 -58q0 -19 8 -41l82 -242l186 230q28 34 28 64q0 47 -70 47l10 36h211l-10 -36q-23 -2 -48.5 -26
t-80.5 -93z" />
    <glyph glyph-name="Z" unicode="Z" horiz-adv-x="646" 
d="M222 682h474l-6 -22l-505 -624h142q92 0 138 26t93 105h53l-65 -167h-512l2 36l491 610h-109q-60 0 -95.5 -10.5t-56.5 -32t-44 -64.5h-51z" />
    <glyph glyph-name="bracketleft" unicode="[" horiz-adv-x="354" 
d="M271 682h204l-10 -36q-66 -1 -87 -15t-37 -67l-193 -628q-9 -30 -9 -43q0 -34 65 -34h20l-11 -36h-204z" />
    <glyph glyph-name="backslash" unicode="\" horiz-adv-x="292" 
d="M46 696h91l229 -831h-91z" />
    <glyph glyph-name="bracketright" unicode="]" horiz-adv-x="354" 
d="M116 -177h-204l11 36q66 1 86.5 15t37.5 67l192 628q10 33 10 43q0 34 -65 34h-20l11 36h204z" />
    <glyph glyph-name="asciicircum" unicode="^" horiz-adv-x="570" 
d="M297 682l205 -351h-68l-149 250l-148 -250h-69l205 351h24z" />
    <glyph glyph-name="underscore" unicode="_" horiz-adv-x="500" 
d="M508 -125h-517v50h517v-50z" />
    <glyph glyph-name="grave" unicode="`" horiz-adv-x="333" 
d="M275 507l-139 163h124l50 -163h-35z" />
    <glyph glyph-name="a" unicode="a" horiz-adv-x="583" 
d="M559 435l-96 -315q-20 -66 10 -66q33 0 68 58h36q-60 -124 -152 -124q-77 0 -77 103h-2q-73 -103 -166 -103q-60 0 -96 37t-36 98q0 70 39 145t106 127t138 52q89 0 149 -57l23 45h56zM159 142q0 -37 19.5 -59t52.5 -22q42 0 83 41t69.5 115.5t28.5 118.5q0 35 -18 55.5
t-50 20.5q-69 0 -127 -92t-58 -178z" />
    <glyph glyph-name="b" unicode="b" horiz-adv-x="604" 
d="M336 697l-107 -347l2 -2q91 99 185 99q70 0 116 -45t46 -113q0 -63 -30.5 -120.5t-77 -96t-101.5 -61.5t-106 -23q-84 0 -138.5 43t-54.5 110q0 36 18 95l105 343q9 30 2 38t-39 8h-38l11 36q98 3 186 36h21zM374 381q-64 0 -122 -58q-42 -42 -64 -99.5t-22 -99.5
q0 -44 27 -71t71 -27q56 0 104 50.5t71.5 110.5t23.5 102q0 38 -26 65t-63 27z" />
    <glyph glyph-name="c" unicode="c" horiz-adv-x="479" 
d="M400 120h50q-102 -132 -244 -132q-74 0 -120.5 43t-46.5 111q0 114 88 209.5t210 95.5q64 0 104 -24.5t40 -64.5q0 -23 -15.5 -39t-38.5 -16q-26 0 -36 16.5t-10 36.5t-12.5 36.5t-41.5 16.5q-66 0 -119.5 -78.5t-53.5 -168.5q0 -50 28.5 -77.5t80.5 -27.5q73 0 137 63z
" />
    <glyph glyph-name="d" unicode="d" horiz-adv-x="594" 
d="M650 697l-186 -589q-14 -44 14 -44q32 0 75 51h33q-27 -57 -74.5 -92t-97.5 -35q-31 0 -48 17t-17 47q0 18 6 35l-2 2q-81 -101 -184 -101q-58 0 -92.5 37.5t-34.5 101.5q0 128 87 224t203 96q68 0 121 -37l44 143q13 42 13 54q0 11 -8 14.5t-32 3.5h-46l11 36
q111 5 193 36h22zM232 66q53 0 98 45q44 44 67.5 111t23.5 97q0 40 -26 65t-67 25q-47 0 -89.5 -41t-66 -99t-23.5 -110q0 -44 21.5 -68.5t61.5 -24.5z" />
    <glyph glyph-name="e" unicode="e" horiz-adv-x="479" 
d="M153 165q-5 -48 27 -78t82 -30q72 0 141 64h49q-49 -61 -114.5 -97t-130.5 -36q-75 0 -122 43.5t-47 111.5q0 111 95 207.5t210 96.5q60 0 94.5 -27.5t34.5 -74.5q0 -49 -34.5 -86t-88 -55.5t-102.5 -28t-94 -10.5zM153 200q104 4 171 47.5t67 103.5q0 26 -17.5 42
t-46.5 16q-68 0 -117 -68t-57 -141z" />
    <glyph glyph-name="f" unicode="f" horiz-adv-x="313" 
d="M159 435l21 85q20 81 70 129t112 48q40 0 65.5 -21.5t25.5 -53.5q0 -20 -13 -33t-33 -13q-18 0 -26 12.5t-9 27t-10 27t-28 12.5q-21 0 -33 -19.5t-19 -63.5l-22 -137h79l-4 -36h-86l-29 -163q-25 -139 -57 -224.5t-87 -140.5q-58 -58 -130 -58q-40 0 -65 18.5t-25 47.5
q0 19 14.5 32.5t34.5 13.5q17 0 26.5 -11t12.5 -23.5t12 -23.5t26 -11q35 0 55.5 40.5t41.5 150.5l68 352h-77l11 36h78z" />
    <glyph glyph-name="g" unicode="g" horiz-adv-x="542" 
d="M287 129q-11 0 -36 2.5t-26 2.5q-19 0 -53.5 -13.5t-34.5 -31.5q0 -16 20 -24t74 -11q205 -11 205 -110q0 -59 -63 -95.5t-203 -36.5q-63 0 -108 8t-68 21.5t-33 27t-10 28.5q0 53 127 90q-29 25 -29 57q0 43 29.5 68.5t92.5 37.5v2q-94 33 -94 128q0 74 57.5 120.5
t148.5 46.5q80 0 140 -40q29 17 61 29q27 10 53 10q19 0 25.5 -5t6.5 -20v-38q0 -27 -17 -27q-9 0 -28 16.5t-43 16.5h-36q43 -50 43 -104q0 -68 -57 -112t-144 -44zM181 265q0 -43 25.5 -70.5t66.5 -27.5q56 0 84 49.5t28 101.5q0 41 -23.5 66t-61.5 25q-56 0 -87.5 -47
t-31.5 -97zM358 -86q0 25 -38 34t-145 13q-51 2 -67 8q-68 -28 -68 -67q0 -52 150 -52q80 0 124 16.5t44 47.5z" />
    <glyph glyph-name="h" unicode="h" horiz-adv-x="606" 
d="M350 697l-144 -470l2 -2q138 222 267 222q43 0 66.5 -19t23.5 -54q0 -34 -17 -77l-78 -190q-9 -23 -5.5 -38.5t17.5 -15.5q37 0 85 78h35q-28 -61 -83 -102t-106 -41q-28 0 -44 15.5t-16 42.5q0 26 26 94l69 175q10 25 10 43q0 14 -10 24t-24 10q-38 0 -86 -48
q-72 -72 -125 -165.5t-76 -178.5h-109l173 548q14 47 14 58t-9 15t-34 4h-47l11 36q113 5 195 36h19z" />
    <glyph glyph-name="i" unicode="i" horiz-adv-x="323" 
d="M63 299h-34q77 148 179 148q33 0 53 -15t20 -40q0 -27 -15 -61l-84 -214q-11 -29 -11 -43q0 -9 5.5 -15.5t12.5 -6.5q36 0 93 83h36q-41 -68 -93 -107.5t-100 -39.5q-32 0 -50.5 16.5t-18.5 43.5q0 26 14 61l88 222q8 19 8 30q0 8 -5.5 14.5t-12.5 6.5q-36 0 -85 -83z
M297 587q-23 0 -39 16.5t-16 38.5t16 38t39 16t38.5 -16t15.5 -38q0 -23 -16 -39t-38 -16z" />
    <glyph glyph-name="j" unicode="j" horiz-adv-x="313" 
d="M75 306h-37q44 76 85.5 108.5t94.5 32.5q67 0 67 -53q0 -24 -12 -64l-82 -285q-38 -131 -83 -176q-56 -56 -155 -56q-44 0 -70 17.5t-26 47.5q0 20 13.5 33.5t33.5 13.5q18 0 28.5 -11.5t14.5 -25.5t14 -25.5t28 -11.5q23 0 38.5 21t31.5 75l109 383q4 10 4 24
q0 10 -7 17t-17 7q-32 0 -73 -72zM299 587q-23 0 -39 16.5t-16 38.5t16 38t39 16t38.5 -16t15.5 -38q0 -23 -16 -39t-38 -16z" />
    <glyph glyph-name="k" unicode="k" horiz-adv-x="615" 
d="M348 697l-110 -359l2 -2q61 59 112 85t106 26q56 0 88 -24.5t32 -67.5q0 -101 -178 -152l47 -94q27 -53 47 -53q21 0 61 53h36q-32 -53 -71 -87t-72 -34q-36 0 -63 33.5t-88 156.5q-57 -8 -109 -7l-53 -171h-107l176 558q11 35 11 48q0 11 -8.5 15t-34.5 4h-46l11 36
q112 5 194 36h17zM197 200q78 2 150 23t102 51q24 24 24 59q0 24 -17.5 38.5t-47.5 14.5q-58 0 -124 -51t-87 -135z" />
    <glyph glyph-name="l" unicode="l" horiz-adv-x="323" 
d="M367 697l-176 -576q-7 -22 -7 -41q0 -8 4.5 -13.5t11.5 -5.5q35 0 81 71h36q-31 -61 -87 -102.5t-105 -41.5q-27 0 -43 14t-16 40q0 14 15 69l139 453q10 32 10 42q0 11 -9 15t-34 4h-51l11 36q111 3 200 36h20z" />
    <glyph glyph-name="m" unicode="m" horiz-adv-x="990" 
d="M46 0l102 333q5 17 5 28q0 19 -17 19q-18 0 -42.5 -20t-41.5 -49h-36q39 65 88 100.5t101 35.5q26 0 42 -16t16 -43q0 -30 -45 -165l2 -2q145 226 284 226q41 0 66 -24t25 -63q0 -46 -32 -136l2 -2q79 117 143 171t146 54q44 0 68.5 -20t24.5 -55q0 -28 -17 -77l-75 -210
q-6 -19 -1.5 -29t15.5 -10q33 0 85 72h39q-77 -130 -182 -130q-30 0 -48.5 15.5t-18.5 41.5q0 27 16 73l65 185q11 30 11 46t-12 26.5t-29 10.5q-58 0 -152 -110q-100 -118 -131 -222l-16 -54h-106l88 285q11 33 11 61q0 19 -10 29.5t-27 10.5q-45 0 -122 -77
q-65 -65 -107.5 -141.5t-57.5 -124.5l-13 -43h-106z" />
    <glyph glyph-name="n" unicode="n" horiz-adv-x="625" 
d="M44 0l106 343q8 25 6.5 34t-13.5 9q-14 0 -37.5 -22.5t-42.5 -54.5h-35q32 63 76.5 100.5t87.5 37.5q29 0 45.5 -17t16.5 -47q0 -43 -49 -193l2 -2q67 119 142 189t147 70q39 0 63.5 -22t24.5 -59q0 -28 -15 -69l-72 -191q-8 -22 -4 -36.5t15 -14.5q30 0 73 63h35
q-27 -55 -76.5 -92.5t-97.5 -37.5q-31 0 -49 15t-18 40q0 20 7 40l72 201q20 54 20 74q0 12 -9 20t-22 8q-45 0 -115 -81q-43 -49 -87 -118t-64 -118l-27 -69h-106z" />
    <glyph glyph-name="o" unicode="o" horiz-adv-x="563" 
d="M46 175q0 110 83 191t196 81q94 0 150.5 -52t56.5 -138q0 -109 -82 -189t-193 -80q-92 0 -151.5 53t-59.5 134zM157 146q0 -55 27 -87.5t72 -32.5q51 0 91 50t57 109.5t17 108.5q0 54 -25 84.5t-69 30.5q-51 0 -92 -50.5t-59.5 -109t-18.5 -103.5z" />
    <glyph glyph-name="p" unicode="p" horiz-adv-x="604" 
d="M324 562l-38 -122q13 3 39 5q12 2 36 2q98 0 155.5 -48.5t57.5 -132.5q0 -114 -98.5 -196t-261.5 -82h-47l-14 -46q-8 -26 -8 -45q0 -44 95 -41l-11 -36h-301l11 36q58 0 78 17.5t34 68.5l111 415q-57 -25 -104 -80h-47q83 100 166 130l35 136zM276 388l-98 -362
q82 0 129.5 15t78.5 46q35 35 54 82.5t19 94.5q0 62 -35.5 97t-96.5 35q-24 0 -51 -8z" />
    <glyph glyph-name="q" unicode="q" horiz-adv-x="573" 
d="M583 435l-151 -493q-7 -25 -7 -42q0 -24 18.5 -34.5t62.5 -9.5l-11 -36h-308l11 36q64 -2 88.5 16.5t39.5 69.5l37 118l-2 2q-46 -41 -83 -57.5t-85 -16.5q-70 0 -113 41.5t-43 107.5q0 74 37.5 144t110.5 118t163 48q91 0 155 -45l17 33h63zM391 154l40 132q9 27 9 55
q0 30 -24 49t-61 19q-55 0 -104 -43.5t-76 -104.5t-27 -117q0 -43 24 -70t62 -27q89 0 157 107z" />
    <glyph glyph-name="r" unicode="r" horiz-adv-x="458" 
d="M63 0l80 331q11 46 -19 46q-20 0 -43 -20.5t-42 -55.5h-32q31 65 77 105.5t90 40.5q61 0 61 -71q0 -31 -46 -217l2 -2q54 120 84 176t56 82q32 32 74 32q65 0 65 -72q0 -30 -13 -47.5t-35 -17.5q-21 0 -28.5 13t-7.5 41q0 22 -16 22q-13 0 -27 -14q-24 -24 -83 -140
t-81 -198l-10 -34h-106z" />
    <glyph glyph-name="s" unicode="s" horiz-adv-x="479" 
d="M417 298q-26 0 -40.5 17.5t-20 38t-25.5 38t-55 17.5q-29 0 -47.5 -15t-18.5 -38q0 -22 21 -44.5t51 -42.5t59.5 -42t50.5 -51.5t21 -61.5q0 -60 -51 -93t-143 -33q-91 0 -145 30t-54 81q0 22 12.5 35.5t33.5 13.5t33 -12.5t18.5 -30.5t16 -36t32.5 -30.5t60 -12.5
q36 0 57.5 17t21.5 45q0 22 -20 44.5t-48.5 43t-56.5 41.5t-48 49t-20 57q0 54 51 89t130 35q74 0 123.5 -30t49.5 -74q0 -19 -14 -32t-35 -13z" />
    <glyph glyph-name="t" unicode="t" horiz-adv-x="354" 
d="M81 131l74 258h-80l11 40q73 15 121 61t75 101h36l-45 -156h96l-13 -46h-96l-74 -258q-9 -33 -9 -51q0 -35 32 -35q55 0 118 83h38q-85 -140 -203 -140q-43 0 -68 22t-25 58q0 23 12 63z" />
    <glyph glyph-name="u" unicode="u" horiz-adv-x="615" 
d="M586 435l-104 -332q-9 -29 -9 -37q0 -7 5 -12t11 -5q15 0 39 20t47 56h35q-38 -72 -87.5 -104.5t-97.5 -32.5q-59 0 -59 52q0 28 15 75l28 88l-2 2q-42 -68 -83 -114.5t-73.5 -67t-54.5 -28t-41 -7.5q-33 0 -58.5 19t-25.5 58q0 18 16 76l55 174q10 30 10 41q0 9 -7 15.5
t-18 6.5q-31 0 -70 -63h-37q73 132 169 132q34 0 54 -18.5t20 -43.5q0 -18 -17 -70l-66 -211q-7 -21 -7 -34q0 -9 6 -17t20 -8q63 0 163 142q59 84 120 248h104z" />
    <glyph glyph-name="v" unicode="v" horiz-adv-x="542" 
d="M241 352h-127q-61 0 -61 -22q0 -4 7.5 -14t7.5 -18q0 -10 -7 -16t-18 -6q-24 0 -24 29q0 41 35.5 85.5t93.5 44.5h176q-7 -18 -40.5 -78t-58.5 -118t-25 -99q0 -39 23.5 -65t59.5 -26q66 0 117.5 66.5t51.5 127.5q0 32 -26 77.5t-26 73.5q0 24 12.5 38.5t32.5 14.5
q30 0 48.5 -29.5t18.5 -77.5q0 -138 -84 -245t-192 -107q-67 0 -107 35.5t-40 95.5q0 40 21 75.5t77 91.5q28 28 54 66z" />
    <glyph glyph-name="w" unicode="w" horiz-adv-x="823" 
d="M217 352h-116q-47 0 -47 -16q0 -1 5.5 -11t5.5 -21q0 -9 -7.5 -15.5t-17.5 -6.5q-26 0 -26 34q0 42 38 80.5t107 38.5h134q1 -7 -25 -59.5t-52.5 -121.5t-26.5 -115q0 -32 19 -54t47 -22q69 0 160 115q-3 30 -3 51q0 218 80 218q23 0 36.5 -16t13.5 -42q0 -70 -62 -170
q13 -73 38 -107t67 -34q53 0 96.5 47.5t43.5 104.5q0 38 -30.5 79.5t-30.5 74.5q0 28 13.5 45.5t33.5 17.5q33 0 52.5 -33t19.5 -90q0 -75 -31 -152t-88.5 -130.5t-125.5 -53.5q-56 0 -85 33t-38 106q-60 -78 -104 -108.5t-96 -30.5q-58 0 -97.5 37t-39.5 92q0 41 29 87
q10 16 42 53q48 57 68 95z" />
    <glyph glyph-name="x" unicode="x" horiz-adv-x="604" 
d="M272 195l-52 132q-20 50 -48 50q-27 0 -57 -58h-35q56 128 132 128q31 0 53.5 -22t46.5 -79l25 -58l43 60q40 56 68.5 77.5t68.5 21.5q38 0 60 -17.5t22 -47.5q0 -20 -11.5 -33t-29.5 -13q-21 0 -43 25.5t-39 25.5q-16 0 -29.5 -12t-39.5 -48l-55 -77l36 -85
q28 -67 43 -89t33 -22q34 0 66 58h37q-23 -56 -64.5 -90t-84.5 -34q-38 0 -62.5 26t-51.5 98l-17 46l-47 -62q-81 -108 -146 -108q-26 0 -43 18t-17 45q0 21 12 35t30 14q17 0 34 -17t32 -17q20 0 42.5 20.5t60.5 71.5z" />
    <glyph glyph-name="y" unicode="y" horiz-adv-x="542" 
d="M225 -44l-81 334q-18 75 -46 75q-16 0 -27 -13.5t-21 -46.5h-32q44 142 132 142q32 0 51 -21t30 -70l73 -311q67 83 90.5 128t23.5 78q0 23 -9.5 64t-9.5 65q0 31 15 49t40 18q26 0 43 -22.5t17 -58.5q0 -110 -134 -280l-63 -80q-151 -193 -299 -193q-42 0 -70 16t-28 39
q0 17 13 30t30 13q15 0 48.5 -17t67.5 -17q32 0 65 17.5t81 61.5z" />
    <glyph glyph-name="z" unicode="z" horiz-adv-x="479" 
d="M39 -12h-14q-13 0 -13 13q0 60 61 121q36 36 154 106.5t162 110.5l-2 2q-37 -9 -60 -9q-33 0 -89 14.5t-79 14.5q-31 0 -31 -16q0 -9 13 -22.5t13 -23.5q0 -9 -7.5 -15t-18.5 -6q-17 0 -27.5 11.5t-10.5 30.5q0 47 44 87t95 40q36 0 92 -21.5t76 -21.5q14 0 21 6.5
t8.5 14.5t7 14.5t15.5 6.5h10q16 0 16 -21q0 -29 -11 -50.5t-39 -49.5q-47 -47 -173 -123.5t-147 -98.5l2 -2q13 3 26 3q22 0 88 -15t96 -15q19 0 32 7.5t13 18.5q0 6 -11.5 19t-11.5 22q0 11 8 18t21 7q16 0 25.5 -10.5t9.5 -27.5q0 -54 -45.5 -97t-103.5 -43q-42 0 -99 20
t-72 20q-22 0 -26 -20q0 -1 -1.5 -5.5l-2 -6t-2.5 -4t-5 -3.5t-7 -1z" />
    <glyph glyph-name="braceleft" unicode="{" horiz-adv-x="394" 
d="M139 241v22q47 7 76 35t29 68q0 23 -11.5 77.5t-11.5 78.5q0 65 55 120t135 58v-19q-47 -6 -76 -37t-29 -63q0 -12 12 -78q11 -70 11 -90q0 -51 -41 -96.5t-109 -64.5v-1q68 -18 109 -63.5t41 -96.5q0 -25 -11.5 -90t-11.5 -78q0 -32 29 -63t76 -37v-19q-80 3 -135 58
t-55 120q0 13 12 78q11 51 11 78q0 40 -29 68t-76 35z" />
    <glyph glyph-name="bar" unicode="|" horiz-adv-x="546" 
d="M268 750h91v-1000h-91v1000z" />
    <glyph glyph-name="braceright" unicode="}" horiz-adv-x="394" 
d="M355 263v-22q-47 -7 -76 -35t-29 -68q0 -23 11.5 -77.5t11.5 -78.5q0 -65 -55 -120t-135 -58v19q47 6 76 37t29 63q0 8 -11 78q-12 66 -12 90q0 51 41 96.5t109 64.5v1q-68 18 -109 63.5t-41 96.5q0 25 11.5 90t11.5 78q0 32 -29 63t-76 37v19q80 -3 135 -58t55 -120
q0 -19 -11 -78q-12 -56 -12 -78q0 -40 29 -68t76 -35z" />
    <glyph glyph-name="asciitilde" unicode="~" 
d="M606 356h31q-3 -79 -39.5 -124.5t-97.5 -45.5q-47 0 -151 44t-134 44q-71 0 -84 -87h-31q1 81 38 124t94 43q51 0 157 -44t133 -44q35 0 57.5 23.5t26.5 66.5z" />
    <glyph glyph-name="uni00A0" unicode="&#xa0;" horiz-adv-x="286" 
 />
    <glyph glyph-name="exclamdown" unicode="&#xa1;" horiz-adv-x="292" 
d="M91 -192q-9 -44 -24.5 -57t-57.5 -13q-47 0 -47 32q0 14 10 38l187 432h22zM282 379q0 -29 -20 -48.5t-48 -19.5t-48 19.5t-20 48.5t20 48.5t48 19.5t48 -19.5t20 -48.5z" />
    <glyph glyph-name="cent" unicode="&#xa2;" horiz-adv-x="479" 
d="M83 -139l62 136q-106 38 -106 145q0 119 93 214t216 91l70 154h40l-72 -159q43 -8 69 -30.5t26 -53.5q0 -23 -15.5 -39t-38.5 -16q-28 0 -36.5 17t-11.5 41t-14 34l-149 -330q29 -8 51 -8q70 0 133 63h50q-102 -132 -244 -132q-13 0 -24 1l-58 -128h-41zM184 83l148 327
q-67 2 -123 -77.5t-56 -169.5q0 -49 31 -80z" />
    <glyph glyph-name="sterling" unicode="&#xa3;" horiz-adv-x="646" 
d="M116 162l16 59h120q60 276 169 385q61 61 142 61q60 0 97.5 -24t37.5 -62q0 -20 -13.5 -34t-32.5 -14q-24 0 -36.5 15.5t-16 34t-16.5 34t-37 15.5q-29 0 -52 -23q-51 -51 -95 -218l-25 -94q-4 -16 -24 -76h126l-16 -59h-126q-36 -96 -73 -162q34 -3 99.5 -51t103.5 -48
q18 0 31 11t13 27q0 9 -19.5 29.5t-19.5 42.5q0 17 13 30t31 13q23 0 38 -18t15 -46q0 -55 -47.5 -107.5t-97.5 -52.5q-87 0 -192 118q-41 -63 -68.5 -90.5t-54.5 -27.5q-20 0 -33.5 13.5t-13.5 33.5q0 42 46 84t96 46q24 53 35 155h-120z" />
    <glyph glyph-name="currency" unicode="&#xa4;" 
d="M83 518l60 60l65 -65q56 40 124 40t127 -40l65 65l59 -60l-64 -65q39 -64 39 -128q0 -65 -39 -123l64 -64l-59 -59l-65 63q-61 -40 -128 -40t-123 40l-65 -63l-60 59l65 64q-40 67 -40 129q0 63 40 122zM334 468q-59 0 -100.5 -41t-41.5 -99t41.5 -99.5t100.5 -41.5
q58 0 99 41.5t41 99.5t-41 99t-99 41z" />
    <glyph glyph-name="yen" unicode="&#xa5;" 
d="M419 329l-30 -117h220l-10 -36h-219l-11 -47q-13 -52 10 -72.5t76 -20.5l-10 -36h-317l10 36q50 0 73 24.5t39 88.5l7 27h-227l10 36h226l30 117h-224l10 36h202l-69 200q-16 46 -31.5 62t-48.5 19l10 36h276l-10 -36q-80 0 -80 -58q0 -19 8 -41l60 -182h4l136 170
q28 35 28 64q0 47 -70 47l10 36h211l-10 -36q-35 -5 -76 -55l-183 -226h202l-10 -36h-222z" />
    <glyph glyph-name="brokenbar" unicode="&#xa6;" horiz-adv-x="546" 
d="M268 175h91v-350h-91v350zM268 675h91v-350h-91v350z" />
    <glyph glyph-name="section" unicode="&#xa7;" horiz-adv-x="567" 
d="M250 94l-71 102q-68 97 -68 196q0 86 57.5 157t151.5 109.5t201 38.5q126 0 126 -56q0 -19 -15.5 -31.5t-38.5 -12.5q-29 0 -81.5 26t-93.5 26q-56 0 -93 -34.5t-37 -86.5q0 -39 37 -99l43 -69q98 -158 98 -247q0 -85 -62 -155t-159.5 -107.5t-205.5 -37.5
q-49 0 -78.5 13.5t-29.5 36.5q0 19 19.5 34.5t44.5 15.5q27 0 75.5 -23.5t82.5 -23.5q59 0 99 36t40 88q0 43 -42 104zM351 289l-70 116q-31 52 -31 98q0 55 35 108l-2 2q-123 -80 -123 -209q0 -85 67 -183l51 -76q50 -76 50 -135q0 -53 -37 -106l2 -2q123 73 123 199
q0 80 -65 188z" />
    <glyph glyph-name="dieresis" unicode="&#xa8;" horiz-adv-x="333" 
d="M358 641q22 0 37.5 -15.5t15.5 -37.5t-15.5 -37.5t-37.5 -15.5t-37.5 15.5t-15.5 37.5t15.5 37.5t37.5 15.5zM190 641q22 0 37.5 -15.5t15.5 -37.5t-15.5 -37.5t-37.5 -15.5t-37.5 15.5t-15.5 37.5t15.5 37.5t37.5 15.5z" />
    <glyph glyph-name="copyright" unicode="&#xa9;" horiz-adv-x="747" 
d="M581 553l7 -134h-19q-31 112 -137 112q-67 0 -106.5 -49t-39.5 -131q0 -200 149 -200q85 0 141 75l12 -18q-67 -86 -176 -86q-94 0 -156 60t-62 151q0 94 66.5 157.5t165.5 63.5q33 0 73 -11.5t43 -11.5q15 0 20 22h19zM760 336q0 -143 -101.5 -244.5t-244.5 -101.5
t-244.5 101.5t-101.5 244.5t101.5 244.5t244.5 101.5t244.5 -101.5t101.5 -244.5zM724 336q0 129 -91 220t-220 91t-220 -91t-91 -220t91 -220t220 -91t220 91t91 220z" />
    <glyph glyph-name="ordfeminine" unicode="&#xaa;" horiz-adv-x="375" 
d="M433 689l-67 -198q-4 -13 -1.5 -20t9.5 -7q6 0 16.5 10t19.5 24h35q-41 -79 -105 -79q-25 0 -37.5 12t-17.5 38q-50 -50 -102 -50q-41 0 -66 22.5t-25 59.5q0 67 58 131.5t129 64.5q49 0 94 -32l13 24h47zM176 513q0 -45 40 -45t75 55.5t35 103.5q0 42 -37 42
q-42 0 -77.5 -55t-35.5 -101z" />
    <glyph glyph-name="guillemotleft" unicode="&#xab;" horiz-adv-x="479" 
d="M152 254l47 -209h-67l-51 220l147 195h82zM355 254l47 -209h-67l-51 220l148 195h82z" />
    <glyph glyph-name="logicalnot" unicode="&#xac;" 
d="M99 432h539v-322h-90v232h-449v90z" />
    <glyph glyph-name="uni00AD" unicode="&#xad;" horiz-adv-x="406" 
d="M36 174l28 94h317l-28 -94h-317z" />
    <glyph glyph-name="registered" unicode="&#xae;" horiz-adv-x="747" 
d="M269 215v247q0 42 -7.5 53t-37.5 13v17h183q75 0 116 -28.5t41 -81.5q0 -77 -101 -105l89 -137q16 -24 27.5 -33.5t28.5 -11.5v-16h-100l-128 191h-31v-126q0 -27 13 -38t45 -11v-16h-189v16q33 1 42 13t9 54zM349 346l24 -1q46 0 74 24t28 64q0 41 -25.5 65.5
t-69.5 24.5q-15 0 -31 -5v-172zM760 336q0 -143 -101.5 -244.5t-244.5 -101.5t-244.5 101.5t-101.5 244.5t101.5 244.5t244.5 101.5t244.5 -101.5t101.5 -244.5zM724 336q0 129 -91 220t-220 91t-220 -91t-91 -220t91 -220t220 -91t220 91t91 220z" />
    <glyph glyph-name="macron" unicode="&#xaf;" horiz-adv-x="333" 
d="M408 553h-284l15 71h283z" />
    <glyph glyph-name="degree" unicode="&#xb0;" horiz-adv-x="400" 
d="M265 682q65 0 111 -46t46 -111t-46 -111t-111 -46t-111 46t-46 111t46 111t111 46zM265 633q-45 0 -76.5 -31.5t-31.5 -76.5t31.5 -76.5t76.5 -31.5t76.5 31.5t31.5 76.5t-31.5 76.5t-76.5 31.5z" />
    <glyph glyph-name="plusminus" unicode="&#xb1;" 
d="M98 478h225v218h90v-218h225v-90h-225v-218h-90v218h-225v90zM98 90h540v-90h-540v90z" />
    <glyph glyph-name="two.superior" unicode="&#xb2;" horiz-adv-x="333" 
d="M352 417l-26 -97h-244l5 18q19 25 90 85l44 37q84 71 84 115q0 23 -15.5 36t-42.5 13q-39 0 -94 -39l-25 20q79 62 147 62q45 0 75.5 -22t30.5 -55q0 -38 -40 -78q-30 -30 -91.5 -73.5t-80.5 -62.5h80q34 0 46 8t18 33h39z" />
    <glyph glyph-name="three.superior" unicode="&#xb3;" horiz-adv-x="333" 
d="M162 487l8 28q63 -1 97 18.5t34 51.5q0 41 -52 41q-35 0 -72 -30l-25 19q46 52 118 52q47 0 74.5 -20t27.5 -54q0 -29 -24.5 -53t-75.5 -36v-2q62 -28 62 -80q0 -49 -44 -78.5t-117 -29.5q-100 0 -100 25q0 10 10.5 20.5t22.5 10.5q8 0 36.5 -14t51.5 -14q29 0 47.5 20
t18.5 51q0 32 -21.5 54.5t-76.5 19.5z" />
    <glyph glyph-name="acute" unicode="&#xb4;" horiz-adv-x="333" 
d="M254 507h-35l50 163h124z" />
    <glyph glyph-name="mu" unicode="&#xb5;" horiz-adv-x="576" 
d="M363 115l28 88l-2 2q-63 -104 -129 -160.5t-123 -56.5q-43 0 -69 29q-17 -52 -23 -130q-4 -52 -19.5 -77.5t-46.5 -25.5q-20 0 -32.5 12t-12.5 31q0 17 18.5 51.5t52.5 103t60 149.5l99 304h106l-108 -331q-8 -23 -8 -34q0 -25 26 -25q36 0 86 50q64 64 107.5 141
t82.5 185l5 14h106l-107 -351q-11 -35 12 -35q15 0 38.5 19.5t45.5 56.5h36q-30 -61 -81.5 -99t-102.5 -38q-28 0 -44 15t-16 40q0 23 15 72z" />
    <glyph glyph-name="paragraph" unicode="&#xb6;" horiz-adv-x="540" 
d="M480 612v-747h-41v786h-89v-786h-41v418q-70 -1 -120.5 17t-76.5 48.5t-37 63.5t-11 71q0 94 61.5 146.5t175.5 52.5h254v-23q-36 1 -55.5 -13.5t-19.5 -33.5z" />
    <glyph glyph-name="periodcentered" unicode="&#xb7;" horiz-adv-x="292" 
d="M187 394q29 0 48.5 -20t19.5 -48t-19.5 -48t-48.5 -20t-48.5 20t-19.5 48t19.5 48t48.5 20z" />
    <glyph glyph-name="cedilla" unicode="&#xb8;" horiz-adv-x="333" 
d="M78 -72l55 66h31l-20 -33q48 -15 48 -55q0 -35 -32 -54t-90 -19q-26 0 -51 3l8 26q7 -1 18 -1q74 0 74 33q0 24 -41 34z" />
    <glyph glyph-name="one.superior" unicode="&#xb9;" horiz-adv-x="333" 
d="M331 667l-82 -266q-8 -26 -8 -36q0 -12 9.5 -15.5t40.5 -2.5l-7 -27h-185l7 27q33 -2 46.5 8.5t24.5 45.5l49 159q4 12 4 22q0 13 -27 13h-31l8 29q72 1 111 43h40z" />
    <glyph glyph-name="ordmasculine" unicode="&#xba;" horiz-adv-x="365" 
d="M96 534q0 66 55.5 114.5t130.5 48.5q62 0 99.5 -31.5t37.5 -83.5q0 -65 -54 -113.5t-128 -48.5q-61 0 -101 32.5t-40 81.5zM180 517q0 -32 15.5 -50.5t41.5 -18.5q43 0 71 53t28 102q0 31 -14 48t-40 17q-42 0 -72 -51t-30 -100z" />
    <glyph glyph-name="guillemotright" unicode="&#xbb;" horiz-adv-x="479" 
d="M368 251l-47 209h67l51 -220l-147 -195h-82zM165 251l-47 209h66l52 -220l-148 -195h-82z" />
    <glyph glyph-name="onequarter" unicode="&#xbc;" horiz-adv-x="802" 
d="M658 95l-30 -101h-71l29 101h-160l4 44l248 208h55l-62 -208h68l-12 -44h-69zM599 139l38 130l-2 2l-159 -130v-2h123zM286 667l-82 -266q-8 -26 -8 -36q0 -12 9.5 -15.5t40.5 -2.5l-7 -27h-185l7 27q33 -2 46.5 8.5t24.5 45.5l49 159q4 12 4 22q0 13 -27 13h-31l8 29
q72 1 111 43h40zM38 -42l646 736h53l-646 -736h-53z" />
    <glyph glyph-name="onehalf" unicode="&#xbd;" horiz-adv-x="802" 
d="M38 -42l646 736h53l-646 -736h-53zM710 97l-26 -97h-244l5 18q19 25 90 85l44 37q84 71 84 115q0 23 -15.5 36t-42.5 13q-39 0 -94 -39l-25 20q79 62 147 62q45 0 75.5 -22t30.5 -55q0 -38 -40 -78q-30 -30 -91.5 -73.5t-80.5 -62.5h80q34 0 46 8t18 33h39zM286 667
l-82 -266q-8 -26 -8 -36q0 -12 9.5 -15.5t40.5 -2.5l-7 -27h-185l7 27q33 -2 46.5 8.5t24.5 45.5l49 159q4 12 4 22q0 13 -27 13h-31l8 29q72 1 111 43h40z" />
    <glyph glyph-name="threequarters" unicode="&#xbe;" horiz-adv-x="802" 
d="M698 95l-30 -101h-71l29 101h-160l4 44l248 208h55l-62 -208h68l-12 -44h-69zM639 139l38 130l-2 2l-159 -130v-2h123zM78 -42l646 736h53l-646 -736h-53zM134 487l8 28q63 -1 97 18.5t34 51.5q0 41 -52 41q-35 0 -72 -30l-25 19q46 52 118 52q47 0 74.5 -20t27.5 -54
q0 -29 -24.5 -53t-75.5 -36v-2q62 -28 62 -80q0 -49 -44 -78.5t-117 -29.5q-100 0 -100 25q0 10 10.5 20.5t22.5 10.5q8 0 36.5 -14t51.5 -14q29 0 47.5 20t18.5 51q0 32 -21.5 54.5t-76.5 19.5z" />
    <glyph glyph-name="questiondown" unicode="&#xbf;" horiz-adv-x="500" 
d="M75 -62q0 52 17 100.5t46 77.5q31 31 72 42t75 15t46 16q15 15 26 48h38l-43 -162q-5 -19 -13 -24.5t-27 -5.5h-54q-67 0 -106 -33.5t-39 -84.5q0 -44 27 -67.5t71 -23.5q12 0 38 2.5t30 2.5q24 0 37 -12.5t13 -31.5q0 -27 -23 -43t-61 -16q-73 0 -121.5 57t-48.5 143z
M331 379q0 29 19.5 48.5t48.5 19.5t48.5 -19.5t19.5 -48.5t-19.5 -48.5t-48.5 -19.5t-48.5 19.5t-19.5 48.5z" />
    <glyph glyph-name="Agrave" unicode="&#xc0;" 
d="M620 697l-52 -516q-6 -52 -6 -79q0 -63 77 -66l-14 -36h-295l9 36q95 -2 105 95l11 110h-250l-34 -48q-47 -65 -47 -106q0 -23 15.5 -36.5t43.5 -14.5l-9 -36h-235l9 36q39 10 78 49q24 24 137.5 172.5t161.5 203.5l202 236h93zM459 283l30 308l-2 2l-251 -310h223z
M605 736l-139 163h124l50 -163h-35z" />
    <glyph glyph-name="Aacute" unicode="&#xc1;" 
d="M620 697l-52 -516q-6 -52 -6 -79q0 -63 77 -66l-14 -36h-295l9 36q95 -2 105 95l11 110h-250l-34 -48q-47 -65 -47 -106q0 -23 15.5 -36.5t43.5 -14.5l-9 -36h-235l9 36q39 10 78 49q24 24 137.5 172.5t161.5 203.5l202 236h93zM459 283l30 308l-2 2l-251 -310h223z
M584 736h-35l50 163h124z" />
    <glyph glyph-name="Acircumflex" unicode="&#xc2;" 
d="M620 697l-52 -516q-6 -52 -6 -79q0 -63 77 -66l-14 -36h-295l9 36q95 -2 105 95l11 110h-250l-34 -48q-47 -65 -47 -106q0 -23 15.5 -36.5t43.5 -14.5l-9 -36h-235l9 36q39 10 78 49q24 24 137.5 172.5t161.5 203.5l202 236h93zM459 283l30 308l-2 2l-251 -310h223z
M609 843l-152 -100h-27l137 168h113l28 -168h-28z" />
    <glyph glyph-name="Atilde" unicode="&#xc3;" 
d="M620 697l-52 -516q-6 -52 -6 -79q0 -63 77 -66l-14 -36h-295l9 36q95 -2 105 95l11 110h-250l-34 -48q-47 -65 -47 -106q0 -23 15.5 -36.5t43.5 -14.5l-9 -36h-235l9 36q39 10 78 49q24 24 137.5 172.5t161.5 203.5l202 236h93zM459 283l30 308l-2 2l-251 -310h223z
M751 882h26q-1 -53 -30.5 -91t-70.5 -38q-28 0 -84.5 25.5t-78.5 25.5q-45 0 -57 -52h-27q3 55 34 92t73 37q33 0 84 -27t73 -27q40 0 58 55z" />
    <glyph glyph-name="Adieresis" unicode="&#xc4;" 
d="M620 697l-52 -516q-6 -52 -6 -79q0 -63 77 -66l-14 -36h-295l9 36q95 -2 105 95l11 110h-250l-34 -48q-47 -65 -47 -106q0 -23 15.5 -36.5t43.5 -14.5l-9 -36h-235l9 36q39 10 78 49q24 24 137.5 172.5t161.5 203.5l202 236h93zM459 283l30 308l-2 2l-251 -310h223z
M688 870q22 0 37.5 -15.5t15.5 -37.5t-15.5 -37.5t-37.5 -15.5t-37.5 15.5t-15.5 37.5t15.5 37.5t37.5 15.5zM520 870q22 0 37.5 -15.5t15.5 -37.5t-15.5 -37.5t-37.5 -15.5t-37.5 15.5t-15.5 37.5t15.5 37.5t37.5 15.5z" />
    <glyph glyph-name="Aring" unicode="&#xc5;" 
d="M620 697l-52 -516q-6 -52 -6 -79q0 -63 77 -66l-14 -36h-295l9 36q95 -2 105 95l11 110h-250l-34 -48q-47 -65 -47 -106q0 -23 15.5 -36.5t43.5 -14.5l-9 -36h-235l9 36q39 10 78 49q24 24 137.5 172.5t161.5 203.5l202 236h93zM459 283l30 308l-2 2l-251 -310h223z
M606 901q35 0 60 -25t25 -60t-25 -60.5t-60 -25.5t-60.5 25.5t-25.5 60.5t25.5 60t60.5 25zM605 866q-21 0 -35.5 -14.5t-14.5 -35.5t14.5 -36t35.5 -15t36 15t15 36t-15 35.5t-36 14.5z" />
    <glyph glyph-name="AE" unicode="&#xc6;" horiz-adv-x="906" 
d="M299 682h643l-27 -148h-46q9 60 -22.5 86t-92.5 26h-119l-71 -269h96q52 0 84 21t51 68h50l-62 -233h-50q4 53 -21.5 80.5t-76.5 27.5h-81l-56 -207q-10 -39 -10 -52q0 -46 65 -46h62q69 0 116 31t93 97h51l-74 -164h-532l10 36q44 2 64 27.5t36 84.5l52 193h-192
l-106 -152q-45 -66 -45 -106q0 -50 62 -47l-10 -36h-223l10 36q37 1 62.5 22t63.5 76l286 411q23 33 23 57q0 45 -73 44zM441 377l56 213q4 16 4 32q0 25 -21 25q-28 0 -84 -81l-131 -189h176z" />
    <glyph glyph-name="Ccedilla" unicode="&#xc7;" horiz-adv-x="708" 
d="M278 -72l52 60q-111 14 -174 85t-63 184q0 116 59 218t156.5 162t206.5 60q125 0 232 -69l-28 -147h-51q11 78 -28.5 128t-107.5 50q-119 0 -212.5 -126.5t-93.5 -288.5q0 -100 44 -160.5t117 -60.5q131 0 204 195h72l-43 -161q-99 -72 -239 -72h-21l-16 -24
q48 -15 48 -55q0 -35 -32 -54t-90 -19q-26 0 -51 3l8 25h18q74 0 74 33q0 24 -41 34z" />
    <glyph glyph-name="Egrave" unicode="&#xc8;" horiz-adv-x="708" 
d="M162 682h581l-28 -153h-45q-10 62 -38.5 89.5t-90.5 27.5h-162l-72 -269h123q59 0 89.5 19t58.5 71h48l-63 -233h-47q1 60 -23.5 83.5t-82.5 23.5h-113l-47 -177q-10 -37 -10 -58q0 -34 23 -52t66 -18h99q63 0 109 33t89 95h51l-75 -164h-598l9 36q83 9 110 113l100 374
q11 40 11 60q0 66 -81 63zM529 736l-139 163h124l50 -163h-35z" />
    <glyph glyph-name="Eacute" unicode="&#xc9;" horiz-adv-x="708" 
d="M162 682h581l-28 -153h-45q-10 62 -38.5 89.5t-90.5 27.5h-162l-72 -269h123q59 0 89.5 19t58.5 71h48l-63 -233h-47q1 60 -23.5 83.5t-82.5 23.5h-113l-47 -177q-10 -37 -10 -58q0 -34 23 -52t66 -18h99q63 0 109 33t89 95h51l-75 -164h-598l9 36q83 9 110 113l100 374
q11 40 11 60q0 66 -81 63zM508 736h-35l50 163h124z" />
    <glyph glyph-name="Ecircumflex" unicode="&#xca;" horiz-adv-x="708" 
d="M162 682h581l-28 -153h-45q-10 62 -38.5 89.5t-90.5 27.5h-162l-72 -269h123q59 0 89.5 19t58.5 71h48l-63 -233h-47q1 60 -23.5 83.5t-82.5 23.5h-113l-47 -177q-10 -37 -10 -58q0 -34 23 -52t66 -18h99q63 0 109 33t89 95h51l-75 -164h-598l9 36q83 9 110 113l100 374
q11 40 11 60q0 66 -81 63zM533 843l-152 -100h-27l137 168h113l28 -168h-28z" />
    <glyph glyph-name="Edieresis" unicode="&#xcb;" horiz-adv-x="708" 
d="M162 682h581l-28 -153h-45q-10 62 -38.5 89.5t-90.5 27.5h-162l-72 -269h123q59 0 89.5 19t58.5 71h48l-63 -233h-47q1 60 -23.5 83.5t-82.5 23.5h-113l-47 -177q-10 -37 -10 -58q0 -34 23 -52t66 -18h99q63 0 109 33t89 95h51l-75 -164h-598l9 36q83 9 110 113l100 374
q11 40 11 60q0 66 -81 63zM612 870q22 0 37.5 -15.5t15.5 -37.5t-15.5 -37.5t-37.5 -15.5t-37.5 15.5t-15.5 37.5t15.5 37.5t37.5 15.5zM444 870q22 0 37.5 -15.5t15.5 -37.5t-15.5 -37.5t-37.5 -15.5t-37.5 15.5t-15.5 37.5t15.5 37.5t37.5 15.5z" />
    <glyph glyph-name="Igrave" unicode="&#xcc;" horiz-adv-x="385" 
d="M185 682h280l-9 -36q-77 0 -99 -83l-108 -403q-9 -34 -9 -54q0 -29 19 -48.5t53 -21.5l-9 -36h-294l9 36q45 1 67 26.5t38 86.5l100 374q10 36 10 61q0 26 -15.5 43t-41.5 19zM367 736l-139 163h124l50 -163h-35z" />
    <glyph glyph-name="Iacute" unicode="&#xcd;" horiz-adv-x="385" 
d="M185 682h280l-9 -36q-77 0 -99 -83l-108 -403q-9 -34 -9 -54q0 -29 19 -48.5t53 -21.5l-9 -36h-294l9 36q45 1 67 26.5t38 86.5l100 374q10 36 10 61q0 26 -15.5 43t-41.5 19zM346 736h-35l50 163h124z" />
    <glyph glyph-name="Icircumflex" unicode="&#xce;" horiz-adv-x="385" 
d="M185 682h280l-9 -36q-77 0 -99 -83l-108 -403q-9 -34 -9 -54q0 -29 19 -48.5t53 -21.5l-9 -36h-294l9 36q45 1 67 26.5t38 86.5l100 374q10 36 10 61q0 26 -15.5 43t-41.5 19zM371 843l-152 -100h-27l137 168h113l28 -168h-28z" />
    <glyph glyph-name="Idieresis" unicode="&#xcf;" horiz-adv-x="385" 
d="M185 682h280l-9 -36q-77 0 -99 -83l-108 -403q-9 -34 -9 -54q0 -29 19 -48.5t53 -21.5l-9 -36h-294l9 36q45 1 67 26.5t38 86.5l100 374q10 36 10 61q0 26 -15.5 43t-41.5 19zM450 870q22 0 37.5 -15.5t15.5 -37.5t-15.5 -37.5t-37.5 -15.5t-37.5 15.5t-15.5 37.5
t15.5 37.5t37.5 15.5zM282 870q22 0 37.5 -15.5t15.5 -37.5t-15.5 -37.5t-37.5 -15.5t-37.5 15.5t-15.5 37.5t15.5 37.5t37.5 15.5z" />
    <glyph glyph-name="Eth" unicode="&#xd0;" horiz-adv-x="740" 
d="M174 682h279q124 0 198.5 -88t74.5 -222q0 -50 -12.5 -100t-41.5 -99.5t-70.5 -87.5t-106.5 -61.5t-143 -23.5h-342l10 36q43 6 69 32.5t40 80.5l46 171h-99l12 42h98l50 187q4 15 4 32q0 68 -76 65zM385 646l-76 -284h171l-12 -42h-170l-41 -150q-12 -43 -12 -67
q0 -67 89 -67q114 0 178 100q36 56 58.5 134t22.5 146q0 109 -47.5 169.5t-134.5 60.5h-26z" />
    <glyph glyph-name="Ntilde" unicode="&#xd1;" horiz-adv-x="792" 
d="M130 682h168q39 -38 82 -113l236 -417l89 331q15 57 15 96q0 36 -19 52t-65 15l10 36h230l-10 -36q-49 -4 -76 -43.5t-51 -128.5l-98 -366l59 -108h-134l-302 531l-85 -317q-22 -83 -22 -115q0 -29 24 -46t69 -17l-10 -36h-241l10 36q56 1 80.5 38t49.5 129l98 366
q-42 51 -62 64t-55 13zM717 882h26q-1 -53 -30.5 -91t-70.5 -38q-28 0 -84.5 25.5t-78.5 25.5q-45 0 -57 -52h-27q3 55 34 92t73 37q33 0 84 -27t73 -27q40 0 58 55z" />
    <glyph glyph-name="Ograve" unicode="&#xd2;" horiz-adv-x="813" 
d="M89 263q0 112 59.5 212.5t158.5 161t209 60.5q129 0 210.5 -80t81.5 -207q0 -110 -59 -208.5t-157.5 -157.5t-208.5 -59q-127 0 -210.5 79t-83.5 199zM222 221q0 -90 44 -144t117 -54q60 0 111 35t83.5 87t55.5 115.5t32.5 118t9.5 95.5q0 82 -45 133.5t-116 51.5
q-63 0 -119.5 -41.5t-93 -106t-58 -141t-21.5 -149.5zM581 736l-139 163h124l50 -163h-35z" />
    <glyph glyph-name="Oacute" unicode="&#xd3;" horiz-adv-x="813" 
d="M89 263q0 112 59.5 212.5t158.5 161t209 60.5q129 0 210.5 -80t81.5 -207q0 -110 -59 -208.5t-157.5 -157.5t-208.5 -59q-127 0 -210.5 79t-83.5 199zM222 221q0 -90 44 -144t117 -54q60 0 111 35t83.5 87t55.5 115.5t32.5 118t9.5 95.5q0 82 -45 133.5t-116 51.5
q-63 0 -119.5 -41.5t-93 -106t-58 -141t-21.5 -149.5zM560 736h-35l50 163h124z" />
    <glyph glyph-name="Ocircumflex" unicode="&#xd4;" horiz-adv-x="813" 
d="M89 263q0 112 59.5 212.5t158.5 161t209 60.5q129 0 210.5 -80t81.5 -207q0 -110 -59 -208.5t-157.5 -157.5t-208.5 -59q-127 0 -210.5 79t-83.5 199zM222 221q0 -90 44 -144t117 -54q60 0 111 35t83.5 87t55.5 115.5t32.5 118t9.5 95.5q0 82 -45 133.5t-116 51.5
q-63 0 -119.5 -41.5t-93 -106t-58 -141t-21.5 -149.5zM585 843l-152 -100h-27l137 168h113l28 -168h-28z" />
    <glyph glyph-name="Otilde" unicode="&#xd5;" horiz-adv-x="813" 
d="M89 263q0 112 59.5 212.5t158.5 161t209 60.5q129 0 210.5 -80t81.5 -207q0 -110 -59 -208.5t-157.5 -157.5t-208.5 -59q-127 0 -210.5 79t-83.5 199zM222 221q0 -90 44 -144t117 -54q60 0 111 35t83.5 87t55.5 115.5t32.5 118t9.5 95.5q0 82 -45 133.5t-116 51.5
q-63 0 -119.5 -41.5t-93 -106t-58 -141t-21.5 -149.5zM727 882h26q-1 -53 -30.5 -91t-70.5 -38q-28 0 -84.5 25.5t-78.5 25.5q-45 0 -57 -52h-27q3 55 34 92t73 37q33 0 84 -27t73 -27q40 0 58 55z" />
    <glyph glyph-name="Odieresis" unicode="&#xd6;" horiz-adv-x="813" 
d="M89 263q0 112 59.5 212.5t158.5 161t209 60.5q129 0 210.5 -80t81.5 -207q0 -110 -59 -208.5t-157.5 -157.5t-208.5 -59q-127 0 -210.5 79t-83.5 199zM222 221q0 -90 44 -144t117 -54q60 0 111 35t83.5 87t55.5 115.5t32.5 118t9.5 95.5q0 82 -45 133.5t-116 51.5
q-63 0 -119.5 -41.5t-93 -106t-58 -141t-21.5 -149.5zM664 870q22 0 37.5 -15.5t15.5 -37.5t-15.5 -37.5t-37.5 -15.5t-37.5 15.5t-15.5 37.5t15.5 37.5t37.5 15.5zM496 870q22 0 37.5 -15.5t15.5 -37.5t-15.5 -37.5t-37.5 -15.5t-37.5 15.5t-15.5 37.5t15.5 37.5t37.5 15.5
z" />
    <glyph glyph-name="multiply" unicode="&#xd7;" horiz-adv-x="668" 
d="M118 456l63 63l187 -187l187 187l64 -64l-186 -186l187 -187l-64 -64l-187 187l-187 -187l-64 64l187 187z" />
    <glyph glyph-name="Oslash" unicode="&#xd8;" horiz-adv-x="813" 
d="M239 125l400 471q-44 63 -125 63q-63 0 -119.5 -41.5t-93 -106t-58 -141t-21.5 -149.5q0 -64 17 -96zM89 263q0 112 59.5 212.5t158.5 161t209 60.5q103 0 169 -47l41 49l28 -23l-41 -48q45 -35 70 -93.5t25 -124.5q0 -110 -59 -208.5t-157.5 -157.5t-208.5 -59
q-50 0 -98 15t-75 35l-66 -77l-27 23l64 76q-43 36 -67.5 90t-24.5 116zM658 563l-402 -473q46 -67 127 -67q60 0 111 35t83.5 87t55.5 115.5t32.5 118t9.5 95.5q0 44 -17 89z" />
    <glyph glyph-name="Ugrave" unicode="&#xd9;" horiz-adv-x="760" 
d="M157 682h299l-9 -36q-85 -4 -114 -113l-80 -301q-12 -46 -12 -67q0 -60 39.5 -95.5t105.5 -35.5q180 0 228 204l62 266q9 39 9 56q0 33 -21 55.5t-59 30.5l9 36h242l-10 -36q-56 -2 -83 -26t-42 -87l-70 -295q-28 -119 -97.5 -186t-198.5 -67q-64 0 -111.5 17t-72 45
t-35.5 57t-11 60q0 53 14 104l68 255q5 18 5 42q0 34 -16.5 55.5t-47.5 25.5zM555 736l-139 163h124l50 -163h-35z" />
    <glyph glyph-name="Uacute" unicode="&#xda;" horiz-adv-x="760" 
d="M157 682h299l-9 -36q-85 -4 -114 -113l-80 -301q-12 -46 -12 -67q0 -60 39.5 -95.5t105.5 -35.5q180 0 228 204l62 266q9 39 9 56q0 33 -21 55.5t-59 30.5l9 36h242l-10 -36q-56 -2 -83 -26t-42 -87l-70 -295q-28 -119 -97.5 -186t-198.5 -67q-64 0 -111.5 17t-72 45
t-35.5 57t-11 60q0 53 14 104l68 255q5 18 5 42q0 34 -16.5 55.5t-47.5 25.5zM534 736h-35l50 163h124z" />
    <glyph glyph-name="Ucircumflex" unicode="&#xdb;" horiz-adv-x="760" 
d="M157 682h299l-9 -36q-85 -4 -114 -113l-80 -301q-12 -46 -12 -67q0 -60 39.5 -95.5t105.5 -35.5q180 0 228 204l62 266q9 39 9 56q0 33 -21 55.5t-59 30.5l9 36h242l-10 -36q-56 -2 -83 -26t-42 -87l-70 -295q-28 -119 -97.5 -186t-198.5 -67q-64 0 -111.5 17t-72 45
t-35.5 57t-11 60q0 53 14 104l68 255q5 18 5 42q0 34 -16.5 55.5t-47.5 25.5zM559 843l-152 -100h-27l137 168h113l28 -168h-28z" />
    <glyph glyph-name="Udieresis" unicode="&#xdc;" horiz-adv-x="760" 
d="M157 682h299l-9 -36q-85 -4 -114 -113l-80 -301q-12 -46 -12 -67q0 -60 39.5 -95.5t105.5 -35.5q180 0 228 204l62 266q9 39 9 56q0 33 -21 55.5t-59 30.5l9 36h242l-10 -36q-56 -2 -83 -26t-42 -87l-70 -295q-28 -119 -97.5 -186t-198.5 -67q-64 0 -111.5 17t-72 45
t-35.5 57t-11 60q0 53 14 104l68 255q5 18 5 42q0 34 -16.5 55.5t-47.5 25.5zM638 870q22 0 37.5 -15.5t15.5 -37.5t-15.5 -37.5t-37.5 -15.5t-37.5 15.5t-15.5 37.5t15.5 37.5t37.5 15.5zM470 870q22 0 37.5 -15.5t15.5 -37.5t-15.5 -37.5t-37.5 -15.5t-37.5 15.5
t-15.5 37.5t15.5 37.5t37.5 15.5z" />
    <glyph glyph-name="Yacute" unicode="&#xdd;" 
d="M421 269l-29 -109q-11 -41 -11 -62q0 -63 90 -62l-10 -36h-317l10 36q50 -1 71.5 25.5t38.5 87.5l32 120l-101 296q-16 46 -31.5 62t-48.5 19l10 36h276l-10 -36q-80 0 -80 -58q0 -19 8 -41l82 -242l186 230q28 34 28 64q0 47 -70 47l10 36h211l-10 -36q-23 -2 -48.5 -26
t-80.5 -93zM487 736h-35l50 163h124z" />
    <glyph glyph-name="Thorn" unicode="&#xde;" horiz-adv-x="688" 
d="M224 521q6 20 6 47q0 68 -88 78l9 36h324l-9 -36q-48 -1 -75.5 -32t-43.5 -92h41q150 0 219.5 -41.5t69.5 -129.5q0 -92 -84.5 -148t-225.5 -56q-72 0 -72 14q0 25 19 25q6 0 21 -0.5t19 -0.5q51 0 90 16t59.5 42t30.5 54t10 56q0 72 -52.5 103.5t-154.5 29.5l-88 -326
q-6 -20 -6 -46q0 -68 88 -78l-9 -36h-324l9 36q49 1 74.5 27.5t41.5 85.5z" />
    <glyph glyph-name="germandbls" unicode="&#xdf;" horiz-adv-x="604" 
d="M342 367l11 38q70 -2 108.5 39.5t38.5 112.5q0 49 -23.5 75.5t-66.5 26.5q-93 0 -125 -127l-117 -451q-32 -125 -95 -196.5t-134 -71.5q-37 0 -62 20t-25 49q0 19 12 31.5t31 12.5q20 0 31 -11t14.5 -24t10.5 -24t19 -11q19 0 32 13q16 16 33 67t26.5 96t22.5 113.5
t15 80.5q36 172 53.5 231.5t51.5 116.5q74 123 213 123q84 0 133 -39.5t49 -107.5q0 -116 -170 -158v-2q66 -13 101 -51t35 -99q0 -95 -66 -173.5t-146 -78.5q-38 0 -66 20.5t-28 48.5q0 17 11 29t27 12q17 0 26.5 -11t11.5 -25t9 -25t21 -11q32 0 64 97t32 146
q0 47 -31 72.5t-88 25.5z" />
    <glyph glyph-name="agrave" unicode="&#xe0;" horiz-adv-x="583" 
d="M559 435l-96 -315q-20 -66 10 -66q33 0 68 58h36q-60 -124 -152 -124q-77 0 -77 103h-2q-73 -103 -166 -103q-60 0 -96 37t-36 98q0 70 39 145t106 127t138 52q89 0 149 -57l23 45h56zM159 142q0 -37 19.5 -59t52.5 -22q42 0 83 41t69.5 115.5t28.5 118.5q0 35 -18 55.5
t-50 20.5q-69 0 -127 -92t-58 -178zM400 507l-139 163h124l50 -163h-35z" />
    <glyph glyph-name="aacute" unicode="&#xe1;" horiz-adv-x="583" 
d="M559 435l-96 -315q-20 -66 10 -66q33 0 68 58h36q-60 -124 -152 -124q-77 0 -77 103h-2q-73 -103 -166 -103q-60 0 -96 37t-36 98q0 70 39 145t106 127t138 52q89 0 149 -57l23 45h56zM159 142q0 -37 19.5 -59t52.5 -22q42 0 83 41t69.5 115.5t28.5 118.5q0 35 -18 55.5
t-50 20.5q-69 0 -127 -92t-58 -178zM379 507h-35l50 163h124z" />
    <glyph glyph-name="acircumflex" unicode="&#xe2;" horiz-adv-x="583" 
d="M559 435l-96 -315q-20 -66 10 -66q33 0 68 58h36q-60 -124 -152 -124q-77 0 -77 103h-2q-73 -103 -166 -103q-60 0 -96 37t-36 98q0 70 39 145t106 127t138 52q89 0 149 -57l23 45h56zM159 142q0 -37 19.5 -59t52.5 -22q42 0 83 41t69.5 115.5t28.5 118.5q0 35 -18 55.5
t-50 20.5q-69 0 -127 -92t-58 -178zM404 614l-152 -100h-27l137 168h113l28 -168h-28z" />
    <glyph glyph-name="atilde" unicode="&#xe3;" horiz-adv-x="583" 
d="M559 435l-96 -315q-20 -66 10 -66q33 0 68 58h36q-60 -124 -152 -124q-77 0 -77 103h-2q-73 -103 -166 -103q-60 0 -96 37t-36 98q0 70 39 145t106 127t138 52q89 0 149 -57l23 45h56zM159 142q0 -37 19.5 -59t52.5 -22q42 0 83 41t69.5 115.5t28.5 118.5q0 35 -18 55.5
t-50 20.5q-69 0 -127 -92t-58 -178zM546 653h26q-1 -53 -30.5 -91t-70.5 -38q-28 0 -84.5 25.5t-78.5 25.5q-45 0 -57 -52h-27q3 55 34 92t73 37q33 0 84 -27t73 -27q40 0 58 55z" />
    <glyph glyph-name="adieresis" unicode="&#xe4;" horiz-adv-x="583" 
d="M559 435l-96 -315q-20 -66 10 -66q33 0 68 58h36q-60 -124 -152 -124q-77 0 -77 103h-2q-73 -103 -166 -103q-60 0 -96 37t-36 98q0 70 39 145t106 127t138 52q89 0 149 -57l23 45h56zM159 142q0 -37 19.5 -59t52.5 -22q42 0 83 41t69.5 115.5t28.5 118.5q0 35 -18 55.5
t-50 20.5q-69 0 -127 -92t-58 -178zM483 641q22 0 37.5 -15.5t15.5 -37.5t-15.5 -37.5t-37.5 -15.5t-37.5 15.5t-15.5 37.5t15.5 37.5t37.5 15.5zM315 641q22 0 37.5 -15.5t15.5 -37.5t-15.5 -37.5t-37.5 -15.5t-37.5 15.5t-15.5 37.5t15.5 37.5t37.5 15.5z" />
    <glyph glyph-name="aring" unicode="&#xe5;" horiz-adv-x="583" 
d="M559 435l-96 -315q-20 -66 10 -66q33 0 68 58h36q-60 -124 -152 -124q-77 0 -77 103h-2q-73 -103 -166 -103q-60 0 -96 37t-36 98q0 70 39 145t106 127t138 52q89 0 149 -57l23 45h56zM159 142q0 -37 19.5 -59t52.5 -22q42 0 83 41t69.5 115.5t28.5 118.5q0 35 -18 55.5
t-50 20.5q-69 0 -127 -92t-58 -178zM401 672q35 0 60 -25t25 -60t-25 -60.5t-60 -25.5t-60.5 25.5t-25.5 60.5t25.5 60t60.5 25zM400 637q-21 0 -35.5 -14.5t-14.5 -35.5t14.5 -36t35.5 -15t36 15t15 36t-15 35.5t-36 14.5z" />
    <glyph glyph-name="ae" unicode="&#xe6;" horiz-adv-x="760" 
d="M678 110h43q-31 -48 -90 -85t-141 -37q-62 0 -97.5 23.5t-49.5 73.5q-33 -46 -80 -71.5t-98 -25.5q-61 0 -95.5 37t-34.5 100q0 101 81 182q113 113 387 124q60 2 97.5 9t60.5 7q95 0 95 -77q0 -58 -47 -105q-86 -86 -258 -100q-6 -51 20.5 -83.5t77.5 -32.5q71 0 129 61
zM340 121q0 104 86 190q64 64 112 88l-2 2q-92 -3 -183 -28t-135 -69q-72 -72 -72 -164q0 -40 18.5 -63t50.5 -23q63 0 125 67zM454 203q57 3 108 20t77 43q43 43 43 89q0 21 -15 35.5t-37 14.5q-52 0 -104 -60.5t-72 -141.5z" />
    <glyph glyph-name="ccedilla" unicode="&#xe7;" horiz-adv-x="479" 
d="M123 -72l52 62q-62 9 -99 50t-37 102q0 114 88 209.5t210 95.5q64 0 104 -24.5t40 -64.5q0 -23 -15.5 -39t-38.5 -16q-26 0 -36 16.5t-10 36.5t-12.5 36.5t-41.5 16.5q-66 0 -119.5 -78.5t-53.5 -168.5q0 -50 28.5 -77.5t80.5 -27.5q73 0 137 63h50q-102 -132 -245 -132
l-16 -27q48 -15 48 -55q0 -35 -32 -54t-90 -19q-26 0 -51 3l8 25h18q74 0 74 33q0 24 -41 34z" />
    <glyph glyph-name="egrave" unicode="&#xe8;" horiz-adv-x="479" 
d="M153 165q-5 -48 27 -78t82 -30q72 0 141 64h49q-49 -61 -114.5 -97t-130.5 -36q-75 0 -122 43.5t-47 111.5q0 111 95 207.5t210 96.5q60 0 94.5 -27.5t34.5 -74.5q0 -49 -34.5 -86t-88 -55.5t-102.5 -28t-94 -10.5zM153 200q104 4 171 47.5t67 103.5q0 26 -17.5 42
t-46.5 16q-68 0 -117 -68t-57 -141zM348 507l-139 163h124l50 -163h-35z" />
    <glyph glyph-name="eacute" unicode="&#xe9;" horiz-adv-x="479" 
d="M153 165q-5 -48 27 -78t82 -30q72 0 141 64h49q-49 -61 -114.5 -97t-130.5 -36q-75 0 -122 43.5t-47 111.5q0 111 95 207.5t210 96.5q60 0 94.5 -27.5t34.5 -74.5q0 -49 -34.5 -86t-88 -55.5t-102.5 -28t-94 -10.5zM153 200q104 4 171 47.5t67 103.5q0 26 -17.5 42
t-46.5 16q-68 0 -117 -68t-57 -141zM327 507h-35l50 163h124z" />
    <glyph glyph-name="ecircumflex" unicode="&#xea;" horiz-adv-x="479" 
d="M153 165q-5 -48 27 -78t82 -30q72 0 141 64h49q-49 -61 -114.5 -97t-130.5 -36q-75 0 -122 43.5t-47 111.5q0 111 95 207.5t210 96.5q60 0 94.5 -27.5t34.5 -74.5q0 -49 -34.5 -86t-88 -55.5t-102.5 -28t-94 -10.5zM153 200q104 4 171 47.5t67 103.5q0 26 -17.5 42
t-46.5 16q-68 0 -117 -68t-57 -141zM352 614l-152 -100h-27l137 168h113l28 -168h-28z" />
    <glyph glyph-name="edieresis" unicode="&#xeb;" horiz-adv-x="479" 
d="M153 165q-5 -48 27 -78t82 -30q72 0 141 64h49q-49 -61 -114.5 -97t-130.5 -36q-75 0 -122 43.5t-47 111.5q0 111 95 207.5t210 96.5q60 0 94.5 -27.5t34.5 -74.5q0 -49 -34.5 -86t-88 -55.5t-102.5 -28t-94 -10.5zM153 200q104 4 171 47.5t67 103.5q0 26 -17.5 42
t-46.5 16q-68 0 -117 -68t-57 -141zM431 641q22 0 37.5 -15.5t15.5 -37.5t-15.5 -37.5t-37.5 -15.5t-37.5 15.5t-15.5 37.5t15.5 37.5t37.5 15.5zM263 641q22 0 37.5 -15.5t15.5 -37.5t-15.5 -37.5t-37.5 -15.5t-37.5 15.5t-15.5 37.5t15.5 37.5t37.5 15.5z" />
    <glyph glyph-name="igrave" unicode="&#xec;" horiz-adv-x="323" 
d="M63 299h-34q77 148 179 148q33 0 53 -15t20 -40q0 -23 -15 -61l-84 -214q-11 -29 -11 -43q0 -9 5.5 -15.5t12.5 -6.5q36 0 93 83h36q-41 -68 -93 -107.5t-100 -39.5q-32 0 -51 16.5t-19 43.5q0 24 15 61l88 222q8 19 8 31q0 8 -5.5 14t-12.5 6q-36 0 -85 -83zM270 507
l-139 163h124l50 -163h-35z" />
    <glyph glyph-name="iacute" unicode="&#xed;" horiz-adv-x="323" 
d="M63 299h-34q77 148 179 148q33 0 53 -15t20 -40q0 -23 -15 -61l-84 -214q-11 -29 -11 -43q0 -9 5.5 -15.5t12.5 -6.5q36 0 93 83h36q-41 -68 -93 -107.5t-100 -39.5q-32 0 -51 16.5t-19 43.5q0 24 15 61l88 222q8 19 8 31q0 8 -5.5 14t-12.5 6q-36 0 -85 -83zM249 507
h-35l50 163h124z" />
    <glyph glyph-name="icircumflex" unicode="&#xee;" horiz-adv-x="323" 
d="M63 299h-34q77 148 179 148q33 0 53 -15t20 -40q0 -23 -15 -61l-84 -214q-11 -29 -11 -43q0 -9 5.5 -15.5t12.5 -6.5q36 0 93 83h36q-41 -68 -93 -107.5t-100 -39.5q-32 0 -51 16.5t-19 43.5q0 24 15 61l88 222q8 19 8 31q0 8 -5.5 14t-12.5 6q-36 0 -85 -83zM274 614
l-152 -100h-27l137 168h113l28 -168h-28z" />
    <glyph glyph-name="idieresis" unicode="&#xef;" horiz-adv-x="323" 
d="M63 299h-34q77 148 179 148q33 0 53 -15t20 -40q0 -23 -15 -61l-84 -214q-11 -29 -11 -43q0 -9 5.5 -15.5t12.5 -6.5q36 0 93 83h36q-41 -68 -93 -107.5t-100 -39.5q-32 0 -51 16.5t-19 43.5q0 24 15 61l88 222q8 19 8 31q0 8 -5.5 14t-12.5 6q-36 0 -85 -83zM353 641
q22 0 37.5 -15.5t15.5 -37.5t-15.5 -37.5t-37.5 -15.5t-37.5 15.5t-15.5 37.5t15.5 37.5t37.5 15.5zM185 641q22 0 37.5 -15.5t15.5 -37.5t-15.5 -37.5t-37.5 -15.5t-37.5 15.5t-15.5 37.5t15.5 37.5t37.5 15.5z" />
    <glyph glyph-name="eth" unicode="&#xf0;" horiz-adv-x="500" 
d="M332 558l-96 -52l-20 36l99 53q-17 33 -49 74l30 18q35 -32 65 -68l107 59l20 -35l-103 -55q82 -139 82 -259q0 -146 -91 -243.5t-205 -97.5q-61 0 -103 41.5t-42 105.5q0 120 91.5 213t183.5 93q45 0 68 -37l2 2q-9 83 -39 152zM122 90q0 -37 20.5 -57.5t48.5 -20.5
q46 0 89 59.5t65.5 131.5t22.5 124q0 39 -16.5 63.5t-50.5 24.5q-38 0 -73 -40q-49 -55 -77.5 -133.5t-28.5 -151.5z" />
    <glyph glyph-name="ntilde" unicode="&#xf1;" horiz-adv-x="625" 
d="M44 0l106 343q8 25 6.5 34t-13.5 9q-14 0 -37.5 -22.5t-42.5 -54.5h-35q32 63 76.5 100.5t87.5 37.5q29 0 45.5 -17t16.5 -47q0 -43 -49 -193l2 -2q67 119 142 189t147 70q39 0 63.5 -22t24.5 -59q0 -28 -15 -69l-72 -191q-8 -22 -4 -36.5t15 -14.5q30 0 73 63h35
q-27 -55 -76.5 -92.5t-97.5 -37.5q-31 0 -49 15t-18 40q0 20 7 40l72 201q20 54 20 74q0 12 -9 20t-22 8q-45 0 -115 -81q-43 -49 -87 -118t-64 -118l-27 -69h-106zM567 653h26q-1 -53 -30.5 -91t-70.5 -38q-28 0 -84.5 25.5t-78.5 25.5q-45 0 -57 -52h-27q3 55 34 92t73 37
q33 0 84 -27t73 -27q40 0 58 55z" />
    <glyph glyph-name="ograve" unicode="&#xf2;" horiz-adv-x="563" 
d="M46 175q0 110 83 191t196 81q94 0 150.5 -52t56.5 -138q0 -109 -82 -189t-193 -80q-92 0 -151.5 53t-59.5 134zM157 146q0 -55 27 -87.5t72 -32.5q51 0 91 50t57 109.5t17 108.5q0 54 -25 84.5t-69 30.5q-51 0 -92 -50.5t-59.5 -109t-18.5 -103.5zM390 507l-139 163h124
l50 -163h-35z" />
    <glyph glyph-name="oacute" unicode="&#xf3;" horiz-adv-x="563" 
d="M46 175q0 110 83 191t196 81q94 0 150.5 -52t56.5 -138q0 -109 -82 -189t-193 -80q-92 0 -151.5 53t-59.5 134zM157 146q0 -55 27 -87.5t72 -32.5q51 0 91 50t57 109.5t17 108.5q0 54 -25 84.5t-69 30.5q-51 0 -92 -50.5t-59.5 -109t-18.5 -103.5zM369 507h-35l50 163
h124z" />
    <glyph glyph-name="ocircumflex" unicode="&#xf4;" horiz-adv-x="563" 
d="M46 175q0 110 83 191t196 81q94 0 150.5 -52t56.5 -138q0 -109 -82 -189t-193 -80q-92 0 -151.5 53t-59.5 134zM157 146q0 -55 27 -87.5t72 -32.5q51 0 91 50t57 109.5t17 108.5q0 54 -25 84.5t-69 30.5q-51 0 -92 -50.5t-59.5 -109t-18.5 -103.5zM394 614l-152 -100h-27
l137 168h113l28 -168h-28z" />
    <glyph glyph-name="otilde" unicode="&#xf5;" horiz-adv-x="563" 
d="M46 175q0 110 83 191t196 81q94 0 150.5 -52t56.5 -138q0 -109 -82 -189t-193 -80q-92 0 -151.5 53t-59.5 134zM157 146q0 -55 27 -87.5t72 -32.5q51 0 91 50t57 109.5t17 108.5q0 54 -25 84.5t-69 30.5q-51 0 -92 -50.5t-59.5 -109t-18.5 -103.5zM536 653h26
q-1 -53 -30.5 -91t-70.5 -38q-28 0 -84.5 25.5t-78.5 25.5q-45 0 -57 -52h-27q3 55 34 92t73 37q33 0 84 -27t73 -27q40 0 58 55z" />
    <glyph glyph-name="odieresis" unicode="&#xf6;" horiz-adv-x="563" 
d="M46 175q0 110 83 191t196 81q94 0 150.5 -52t56.5 -138q0 -109 -82 -189t-193 -80q-92 0 -151.5 53t-59.5 134zM157 146q0 -55 27 -87.5t72 -32.5q51 0 91 50t57 109.5t17 108.5q0 54 -25 84.5t-69 30.5q-51 0 -92 -50.5t-59.5 -109t-18.5 -103.5zM473 641
q22 0 37.5 -15.5t15.5 -37.5t-15.5 -37.5t-37.5 -15.5t-37.5 15.5t-15.5 37.5t15.5 37.5t37.5 15.5zM305 641q22 0 37.5 -15.5t15.5 -37.5t-15.5 -37.5t-37.5 -15.5t-37.5 15.5t-15.5 37.5t15.5 37.5t37.5 15.5z" />
    <glyph glyph-name="divide" unicode="&#xf7;" horiz-adv-x="668" 
d="M369 125q23 0 39 -16t16 -39t-16 -39.5t-39 -16.5t-39.5 16.5t-16.5 39.5t16.5 39t39.5 16zM369 528q23 0 39 -16t16 -39t-16 -39.5t-39 -16.5t-39.5 16.5t-16.5 39.5t16.5 39t39.5 16zM99 316h539v-90h-539v90z" />
    <glyph glyph-name="oslash" unicode="&#xf8;" horiz-adv-x="563" 
d="M416 340l-235 -275q25 -39 75 -39q39 0 72 29.5t52.5 73t30 87.5t10.5 79q0 28 -5 45zM46 175q0 110 83 191t196 81q62 0 112 -25l41 48l28 -25l-37 -43q63 -56 63 -145q0 -109 -82 -189t-193 -80q-68 0 -117 29l-40 -46l-26 29l33 38q-61 55 -61 137zM162 102l235 274
q-24 33 -70 33q-51 0 -92 -50.5t-59.5 -109t-18.5 -103.5q0 -22 5 -44z" />
    <glyph glyph-name="ugrave" unicode="&#xf9;" horiz-adv-x="615" 
d="M586 435l-104 -332q-9 -29 -9 -37q0 -7 5 -12t11 -5q15 0 39 20t47 56h35q-38 -72 -87.5 -104.5t-97.5 -32.5q-59 0 -59 52q0 28 15 75l28 88l-2 2q-42 -68 -83 -114.5t-73.5 -67t-54.5 -28t-41 -7.5q-33 0 -58.5 19t-25.5 58q0 18 16 76l55 174q10 30 10 41q0 9 -7 15.5
t-18 6.5q-31 0 -70 -63h-37q73 132 169 132q34 0 54 -18.5t20 -43.5q0 -18 -17 -70l-66 -211q-7 -21 -7 -34q0 -9 6 -17t20 -8q63 0 163 142q59 84 120 248h104zM416 507l-139 163h124l50 -163h-35z" />
    <glyph glyph-name="uacute" unicode="&#xfa;" horiz-adv-x="615" 
d="M586 435l-104 -332q-9 -29 -9 -37q0 -7 5 -12t11 -5q15 0 39 20t47 56h35q-38 -72 -87.5 -104.5t-97.5 -32.5q-59 0 -59 52q0 28 15 75l28 88l-2 2q-42 -68 -83 -114.5t-73.5 -67t-54.5 -28t-41 -7.5q-33 0 -58.5 19t-25.5 58q0 18 16 76l55 174q10 30 10 41q0 9 -7 15.5
t-18 6.5q-31 0 -70 -63h-37q73 132 169 132q34 0 54 -18.5t20 -43.5q0 -18 -17 -70l-66 -211q-7 -21 -7 -34q0 -9 6 -17t20 -8q63 0 163 142q59 84 120 248h104zM395 507h-35l50 163h124z" />
    <glyph glyph-name="ucircumflex" unicode="&#xfb;" horiz-adv-x="615" 
d="M586 435l-104 -332q-9 -29 -9 -37q0 -7 5 -12t11 -5q15 0 39 20t47 56h35q-38 -72 -87.5 -104.5t-97.5 -32.5q-59 0 -59 52q0 28 15 75l28 88l-2 2q-42 -68 -83 -114.5t-73.5 -67t-54.5 -28t-41 -7.5q-33 0 -58.5 19t-25.5 58q0 18 16 76l55 174q10 30 10 41q0 9 -7 15.5
t-18 6.5q-31 0 -70 -63h-37q73 132 169 132q34 0 54 -18.5t20 -43.5q0 -18 -17 -70l-66 -211q-7 -21 -7 -34q0 -9 6 -17t20 -8q63 0 163 142q59 84 120 248h104zM420 614l-152 -100h-27l137 168h113l28 -168h-28z" />
    <glyph glyph-name="udieresis" unicode="&#xfc;" horiz-adv-x="615" 
d="M586 435l-104 -332q-9 -29 -9 -37q0 -7 5 -12t11 -5q15 0 39 20t47 56h35q-38 -72 -87.5 -104.5t-97.5 -32.5q-59 0 -59 52q0 28 15 75l28 88l-2 2q-42 -68 -83 -114.5t-73.5 -67t-54.5 -28t-41 -7.5q-33 0 -58.5 19t-25.5 58q0 18 16 76l55 174q10 30 10 41q0 9 -7 15.5
t-18 6.5q-31 0 -70 -63h-37q73 132 169 132q34 0 54 -18.5t20 -43.5q0 -18 -17 -70l-66 -211q-7 -21 -7 -34q0 -9 6 -17t20 -8q63 0 163 142q59 84 120 248h104zM499 641q22 0 37.5 -15.5t15.5 -37.5t-15.5 -37.5t-37.5 -15.5t-37.5 15.5t-15.5 37.5t15.5 37.5t37.5 15.5z
M331 641q22 0 37.5 -15.5t15.5 -37.5t-15.5 -37.5t-37.5 -15.5t-37.5 15.5t-15.5 37.5t15.5 37.5t37.5 15.5z" />
    <glyph glyph-name="yacute" unicode="&#xfd;" horiz-adv-x="542" 
d="M225 -44l-81 334q-18 75 -46 75q-16 0 -27 -13.5t-21 -46.5h-32q44 142 132 142q32 0 51 -21t30 -70l73 -311q67 83 90.5 128t23.5 78q0 23 -9.5 64t-9.5 65q0 31 15 49t40 18q26 0 43 -22.5t17 -58.5q0 -110 -134 -280l-63 -80q-151 -193 -299 -193q-42 0 -70 16t-28 39
q0 17 13 30t30 13q15 0 48.5 -17t67.5 -17q32 0 65 17.5t81 61.5zM359 507h-35l50 163h124z" />
    <glyph glyph-name="thorn" unicode="&#xfe;" horiz-adv-x="604" 
d="M355 697l-69 -257q13 3 39 5q12 2 36 2q98 0 155.5 -48.5t57.5 -132.5q0 -114 -98.5 -196t-261.5 -82h-47l-14 -46q-8 -26 -8 -45q0 -44 95 -41l-11 -36h-301l11 36q58 0 78 17.5t34 68.5l111 415q-57 -25 -104 -80h-47q83 100 166 130l42 163q8 35 8 36q0 19 -38 19h-58
l11 36q109 4 200 36h13zM276 388l-98 -362q82 0 129.5 15t78.5 46q35 35 54 82.5t19 94.5q0 62 -35.5 97t-96.5 35q-24 0 -51 -8z" />
    <glyph glyph-name="ydieresis" unicode="&#xff;" horiz-adv-x="542" 
d="M225 -44l-81 334q-18 75 -46 75q-16 0 -27 -13.5t-21 -46.5h-32q44 142 132 142q32 0 51 -21t30 -70l73 -311q67 83 90.5 128t23.5 78q0 23 -9.5 64t-9.5 65q0 31 15 49t40 18q26 0 43 -22.5t17 -58.5q0 -110 -134 -280l-63 -80q-151 -193 -299 -193q-42 0 -70 16t-28 39
q0 17 13 30t30 13q15 0 48.5 -17t67.5 -17q32 0 65 17.5t81 61.5zM463 641q22 0 37.5 -15.5t15.5 -37.5t-15.5 -37.5t-37.5 -15.5t-37.5 15.5t-15.5 37.5t15.5 37.5t37.5 15.5zM295 641q22 0 37.5 -15.5t15.5 -37.5t-15.5 -37.5t-37.5 -15.5t-37.5 15.5t-15.5 37.5
t15.5 37.5t37.5 15.5z" />
    <glyph glyph-name="dotlessi" unicode="&#x131;" horiz-adv-x="323" 
d="M63 299h-34q77 148 179 148q33 0 53 -15t20 -40q0 -23 -15 -61l-84 -214q-11 -29 -11 -43q0 -9 5.5 -15.5t12.5 -6.5q36 0 93 83h36q-41 -68 -93 -107.5t-100 -39.5q-32 0 -51 16.5t-19 43.5q0 24 15 61l88 222q8 19 8 31q0 8 -5.5 14t-12.5 6q-36 0 -85 -83z" />
    <glyph glyph-name="Lslash" unicode="&#x141;" horiz-adv-x="604" 
d="M296 357l-52 -194q-11 -44 -11 -64q0 -63 92 -63h46q62 0 107.5 29t95.5 98h52l-77 -163h-533l9 36q43 9 59 29.5t33 83.5l31 114l-110 -76l20 77l111 77l49 182q11 42 11 64q0 25 -16 41.5t-41 17.5l9 36h290l-9 -36q-54 2 -78 -23.5t-41 -89.5l-26 -100l145 101
l-20 -76z" />
    <glyph glyph-name="lslash" unicode="&#x142;" horiz-adv-x="385" 
d="M367 697l-76 -246l2 -2l129 90l-20 -77l-134 -88l-77 -253q-7 -22 -7 -41q0 -8 4.5 -13.5t11.5 -5.5q35 0 81 71h36q-31 -61 -87 -102.5t-105 -41.5q-27 0 -43 14t-16 40q0 14 15 69l56 180l-2 2l-131 -93l19 78l137 90l60 196q10 32 10 42q0 11 -9 15t-34 4h-51l11 36
q111 3 200 36h20z" />
    <glyph glyph-name="OE" unicode="&#x152;" horiz-adv-x="1031" 
d="M726 377h58q54 0 85 22.5t52 69.5h50l-62 -235h-51q8 52 -19 79.5t-76 27.5h-41q-43 -195 -251 -303v-2h279q81 0 124.5 27.5t71.5 96.5h53l-61 -160h-566q-76 0 -133.5 27t-88 69.5t-45 85.5t-14.5 85q0 48 15.5 102.5t49 110t79.5 100.5t113 73.5t144 28.5h582
l-29 -153h-46q6 56 -23.5 86.5t-95.5 30.5h-275v-2q121 -99 121 -239v-28zM214 212q0 -80 36.5 -127t100.5 -47q61 0 113 52q66 66 103.5 177t37.5 209q0 79 -35 123.5t-97 44.5q-72 0 -135 -63q-57 -57 -90.5 -169t-33.5 -200z" />
    <glyph glyph-name="oe" unicode="&#x153;" horiz-adv-x="802" 
d="M726 106h42q-33 -57 -85.5 -87.5t-117.5 -30.5q-90 0 -136 73q-87 -73 -180 -73q-87 0 -144 54.5t-57 137.5q0 109 81 188t194 79q101 0 173 -86q104 86 208 86q48 0 75.5 -20.5t27.5 -55.5q0 -74 -83.5 -131t-215.5 -73q0 -56 27 -88.5t73 -32.5q64 0 118 60zM319 409
q-76 0 -116.5 -75.5t-40.5 -172.5q0 -62 26 -98.5t76 -36.5q41 0 72.5 26.5t48 68t25 84.5t8.5 83q0 53 -24.5 87t-74.5 34zM511 198q97 14 160.5 60t63.5 104q0 22 -15.5 34.5t-42.5 12.5q-58 0 -102 -56t-64 -155z" />
    <glyph glyph-name="Scaron" unicode="&#x160;" horiz-adv-x="594" 
d="M630 628l-32 -120h-55q15 71 -30.5 111t-111.5 40q-46 0 -75 -26.5t-29 -68.5q0 -49 53 -107l79 -88q50 -56 73 -101.5t23 -92.5q0 -89 -63 -139.5t-180 -50.5q-146 0 -255 88l35 131h56q-7 -84 40.5 -132.5t125.5 -48.5q56 0 91 32.5t35 84.5q0 60 -54 122l-98 112
q-76 86 -76 141q0 75 61.5 128.5t163.5 53.5q113 0 223 -69zM463 811l152 100h27l-137 -168h-113l-28 168h28z" />
    <glyph glyph-name="scaron" unicode="&#x161;" horiz-adv-x="479" 
d="M417 298q-26 0 -40.5 17.5t-20 38t-25.5 38t-55 17.5q-29 0 -47.5 -15t-18.5 -38q0 -22 21 -44.5t51 -42.5t59.5 -42t50.5 -51.5t21 -61.5q0 -60 -51 -93t-143 -33q-91 0 -145 30t-54 81q0 22 12.5 35.5t33.5 13.5t33 -12.5t18.5 -30.5t16 -36t32.5 -30.5t60 -12.5
q36 0 57.5 17t21.5 45q0 22 -20 44.5t-48.5 43t-56.5 41.5t-48 49t-20 57q0 54 51 89t130 35q74 0 123.5 -30t49.5 -74q0 -19 -14 -32t-35 -13zM339 582l152 100h27l-137 -168h-113l-28 168h28z" />
    <glyph glyph-name="Ydieresis" unicode="&#x178;" 
d="M421 269l-29 -109q-11 -41 -11 -62q0 -63 90 -62l-10 -36h-317l10 36q50 -1 71.5 25.5t38.5 87.5l32 120l-101 296q-16 46 -31.5 62t-48.5 19l10 36h276l-10 -36q-80 0 -80 -58q0 -19 8 -41l82 -242l186 230q28 34 28 64q0 47 -70 47l10 36h211l-10 -36q-23 -2 -48.5 -26
t-80.5 -93zM591 870q22 0 37.5 -15.5t15.5 -37.5t-15.5 -37.5t-37.5 -15.5t-37.5 15.5t-15.5 37.5t15.5 37.5t37.5 15.5zM423 870q22 0 37.5 -15.5t15.5 -37.5t-15.5 -37.5t-37.5 -15.5t-37.5 15.5t-15.5 37.5t15.5 37.5t37.5 15.5z" />
    <glyph glyph-name="Zcaron" unicode="&#x17d;" horiz-adv-x="646" 
d="M222 682h474l-6 -22l-505 -624h142q92 0 138 26t93 105h53l-65 -167h-512l2 36l491 610h-109q-60 0 -95.5 -10.5t-56.5 -32t-44 -64.5h-51zM489 811l152 100h27l-137 -168h-113l-28 168h28z" />
    <glyph glyph-name="zcaron" unicode="&#x17e;" horiz-adv-x="479" 
d="M39 -12h-14q-13 0 -13 13q0 60 61 121q36 36 154 106.5t162 110.5l-2 2q-37 -9 -60 -9q-33 0 -89 14.5t-79 14.5q-31 0 -31 -16q0 -9 13 -22.5t13 -23.5q0 -9 -7.5 -15t-18.5 -6q-17 0 -27.5 11.5t-10.5 30.5q0 47 44 87t95 40q36 0 92 -21.5t76 -21.5q14 0 21 6.5
t8.5 14.5t7 14.5t15.5 6.5h10q16 0 16 -21q0 -29 -11 -50.5t-39 -49.5q-47 -47 -173 -123.5t-147 -98.5l2 -2q13 3 26 3q22 0 88 -15t96 -15q19 0 32 7.5t13 18.5q0 6 -11.5 19t-11.5 22q0 11 8 18t21 7q16 0 25.5 -10.5t9.5 -27.5q0 -54 -45.5 -97t-103.5 -43q-42 0 -99 20
t-72 20q-22 0 -26 -20q0 -1 -1.5 -5.5l-2 -6t-2.5 -4t-5 -3.5t-7 -1zM339 582l152 100h27l-137 -168h-113l-28 168h28z" />
    <glyph glyph-name="florin" unicode="&#x192;" horiz-adv-x="531" 
d="M267 435l7 36q18 94 69 159.5t128 65.5q40 0 66 -21.5t26 -53.5q0 -20 -13 -32.5t-33 -12.5q-16 0 -24 8t-10.5 29t-14.5 33q-9 9 -24 9q-21 0 -33 -18.5t-19 -63.5l-24 -138h81l-4 -36h-84l-42 -222q-32 -169 -98.5 -266.5t-165.5 -97.5q-40 0 -65 18.5t-25 47.5
q0 19 14.5 32.5t34.5 13.5q18 0 28 -11t12 -23.5t11 -23.5t26 -11q30 0 50.5 31.5t35.5 104.5l83 407h-79l7 36h79z" />
    <glyph glyph-name="circumflex" unicode="&#x2c6;" horiz-adv-x="333" 
d="M279 614l-152 -100h-27l137 168h113l28 -168h-28z" />
    <glyph glyph-name="caron" unicode="&#x2c7;" horiz-adv-x="333" 
d="M266 582l152 100h27l-137 -168h-113l-28 168h28z" />
    <glyph glyph-name="uni02C9" unicode="&#x2c9;" horiz-adv-x="333" 
d="M408 553h-284l15 71h283z" />
    <glyph glyph-name="breve" unicode="&#x2d8;" horiz-adv-x="333" 
d="M138 676h33q-1 -39 26 -63t65 -24q73 0 118 87h32q-21 -80 -66 -127t-101 -47q-51 0 -81 34t-30 82q0 36 4 58z" />
    <glyph glyph-name="dotaccent" unicode="&#x2d9;" horiz-adv-x="333" 
d="M274 641q22 0 37.5 -15.5t15.5 -37.5t-15.5 -37.5t-37.5 -15.5t-37.5 15.5t-15.5 37.5t15.5 37.5t37.5 15.5z" />
    <glyph glyph-name="ring" unicode="&#x2da;" horiz-adv-x="333" 
d="M276 672q35 0 60 -25t25 -60t-25 -60.5t-60 -25.5t-60.5 25.5t-25.5 60.5t25.5 60t60.5 25zM275 637q-21 0 -35.5 -14.5t-14.5 -35.5t14.5 -36t35.5 -15t36 15t15 36t-15 35.5t-36 14.5z" />
    <glyph glyph-name="ogonek" unicode="&#x2db;" horiz-adv-x="333" 
d="M134 0h41q-45 -50 -45 -83q0 -25 17.5 -39t47.5 -14q23 0 54 9l-5 -36q-32 -13 -64 -13q-40 0 -68 24.5t-28 59.5q0 42 50 92z" />
    <glyph glyph-name="tilde" unicode="&#x2dc;" horiz-adv-x="333" 
d="M421 653h26q-1 -53 -30.5 -91t-70.5 -38q-28 0 -84.5 25.5t-78.5 25.5q-45 0 -57 -52h-27q3 55 34 92t73 37q33 0 84 -27t73 -27q40 0 58 55z" />
    <glyph glyph-name="hungarumlaut" unicode="&#x2dd;" horiz-adv-x="333" 
d="M493 666l-139 -163h-35l50 163h124zM331 666l-139 -163h-35l50 163h124z" />
    <glyph glyph-name="uni03A9" unicode="&#x3a9;" horiz-adv-x="749" 
d="M705 137l-62 -137h-241l-2 19q1 2 42 47t57 65.5t47.5 63t50 82t29.5 80.5q38 143 -2.5 210t-125.5 67q-90 0 -163.5 -68t-112.5 -214q-7 -25 -10 -51t-4 -46t3.5 -47t6.5 -40.5t10.5 -42t11 -36.5t13.5 -37.5t12 -32.5l-12 -19h-240l13 137l24 2q4 -47 15.5 -61
t43.5 -14h108q-17 17 -28 30t-27 35.5t-25 45t-16.5 51t-6 62.5t11.5 71q37 137 145 221t237 84q132 0 192.5 -79.5t24.5 -216.5q-13 -48 -40 -92.5t-66.5 -84.5t-71.5 -67t-76 -60h113q33 0 50 13t46 62z" />
    <glyph glyph-name="uni03BC" unicode="&#x3bc;" horiz-adv-x="576" 
d="M363 115l28 88l-2 2q-63 -104 -129 -160.5t-123 -56.5q-43 0 -69 29q-17 -52 -23 -130q-4 -52 -19.5 -77.5t-46.5 -25.5q-20 0 -32.5 12t-12.5 31q0 17 18.5 51.5t52.5 103t60 149.5l99 304h106l-108 -331q-8 -23 -8 -34q0 -25 26 -25q36 0 86 50q64 64 107.5 141
t82.5 185l5 14h106l-107 -351q-11 -35 12 -35q15 0 38.5 19.5t45.5 56.5h36q-30 -61 -81.5 -99t-102.5 -38q-28 0 -44 15t-16 40q0 23 15 72z" />
    <glyph glyph-name="pi" unicode="&#x3c0;" horiz-adv-x="570" 
d="M594 456l21 -9q-25 -55 -59 -87q-23 -4 -70 -4q-19 -53 -65 -226q-23 -87 21 -87q25 0 58 30l8 -20q-54 -64 -121 -64q-42 0 -56 24.5t1 96.5q20 71 77 248q-60 2 -162 2l-5 -18q-26 -98 -62 -178.5t-58 -113.5t-35 -45q-42 -15 -63 -16l-1 16q65 58 114.5 161t74.5 196
q-46 0 -74.5 -10.5t-67.5 -35.5l-9 21q53 48 82 63q49 26 110 26l107 -2q107 -2 165 -2q23 0 37.5 7t31.5 27z" />
    <glyph glyph-name="endash" unicode="&#x2013;" horiz-adv-x="500" 
d="M-6 295h512v-90h-512v90z" />
    <glyph glyph-name="emdash" unicode="&#x2014;" horiz-adv-x="1000" 
d="M-6 295h1012v-90h-1012v90z" />
    <glyph glyph-name="quoteleft" unicode="&#x2018;" horiz-adv-x="292" 
d="M334 697l-11 -36q-46 -7 -76 -28t-30 -50q0 -15 10 -26t22.5 -16.5t22.5 -18.5t10 -32q0 -24 -16 -40t-42 -16q-33 0 -55 27t-22 68q0 64 50.5 111t136.5 57z" />
    <glyph glyph-name="quoteright" unicode="&#x2019;" horiz-adv-x="292" 
d="M136 434l11 36q46 7 76 28t30 50q0 15 -10 26t-22.5 16.5t-22.5 18.5t-10 32q0 25 16 40.5t42 15.5q33 0 55 -27t22 -68q0 -64 -50.5 -111t-136.5 -57z" />
    <glyph glyph-name="quotesinglbase" unicode="&#x201a;" horiz-adv-x="292" 
d="M29 -149l11 36q46 7 76 28t30 50q0 15 -10 26t-22.5 16.5t-22.5 18.5t-10 32q0 24 15.5 40t42.5 16q33 0 55 -27t22 -68q0 -64 -50.5 -111t-136.5 -57z" />
    <glyph glyph-name="quotedblleft" unicode="&#x201c;" horiz-adv-x="500" 
d="M564 697l-11 -36q-46 -7 -76 -28t-30 -50q0 -15 10 -26t22.5 -16.5t22.5 -18.5t10 -32q0 -24 -16 -40t-42 -16q-33 0 -55 27t-22 68q0 64 50.5 111t136.5 57zM353 697l-11 -36q-46 -7 -76 -28t-30 -50q0 -15 10 -26t22.5 -16.5t22.5 -18.5t10 -32q0 -24 -15.5 -40
t-42.5 -16q-33 0 -55 27t-22 68q0 64 50.5 111t136.5 57z" />
    <glyph glyph-name="quotedblright" unicode="&#x201d;" horiz-adv-x="500" 
d="M345 434l11 36q46 7 76 28t30 50q0 15 -10 26t-22.5 16.5t-22.5 18.5t-10 32q0 25 15.5 40.5t42.5 15.5q33 0 55 -27t22 -68q0 -64 -50.5 -111t-136.5 -57zM134 434l11 36q46 7 76 28t30 50q0 15 -10 26t-22.5 16.5t-22.5 18.5t-10 32q0 25 16 40.5t42 15.5q33 0 55 -27
t22 -68q0 -64 -50.5 -111t-136.5 -57z" />
    <glyph glyph-name="quotedblbase" unicode="&#x201e;" horiz-adv-x="500" 
d="M282 -149l11 36q46 7 76 28t30 50q0 15 -10 26t-22.5 16.5t-22.5 18.5t-10 32q0 24 16 40t42 16q33 0 55 -27t22 -68q0 -64 -50.5 -111t-136.5 -57zM56 -150l11 36q46 7 76 28t30 50q0 15 -10 26t-22.5 16.5t-22.5 18.5t-10 32q0 25 16 40.5t42 15.5q33 0 55 -27t22 -68
q0 -64 -50.5 -111t-136.5 -57z" />
    <glyph glyph-name="dagger" unicode="&#x2020;" horiz-adv-x="479" 
d="M293 418q9 143 18 195.5t27 70.5q13 13 44 13q54 0 54 -35t-121 -242l2 -2q113 51 162 51q27 0 27 -34q0 -26 -11.5 -54.5t-33.5 -28.5q-49 0 -152 45q-26 -188 -65 -364t-68 -205q-15 -15 -48 -15q-60 0 -60 37q0 38 86.5 248t133.5 298l-2 2q-84 -46 -150 -46
q-31 0 -31 31q0 37 13.5 61.5t31.5 24.5q22 0 65.5 -15.5t77.5 -35.5z" />
    <glyph glyph-name="daggerdbl" unicode="&#x2021;" horiz-adv-x="479" 
d="M300 441q10 134 15 177q4 44 19 61.5t48 17.5q53 0 53 -35q0 -21 -24 -64l-90 -155l2 -2q113 51 164 51q26 0 26 -34q0 -29 -11.5 -55.5t-32.5 -26.5q-47 0 -153 44l-11 -164l-91 -165l2 -2q95 45 149 45q31 0 31 -31t-12 -58.5t-32 -27.5q-22 0 -66 15.5t-78 35.5
l-13 -167q-4 -49 -18.5 -68.5t-50.5 -19.5q-54 0 -54 35q0 21 28 70l86 148l-2 2q-117 -51 -162 -51q-27 0 -27 34q0 32 13 57.5t32 25.5q49 0 153 -45l9 161l92 169l-2 2q-95 -45 -149 -45q-32 0 -32 31t13 58.5t32 27.5q23 0 67 -16t77 -36z" />
    <glyph glyph-name="bullet" unicode="&#x2022;" horiz-adv-x="350" 
d="M215 459q53 0 91 -38t38 -91t-38 -91t-91 -38t-91 38t-38 91t38 91t91 38z" />
    <glyph glyph-name="ellipsis" unicode="&#x2026;" horiz-adv-x="1000" 
d="M166 135q31 0 52 -21t21 -52t-21 -52.5t-52 -21.5t-52.5 21.5t-21.5 52.5t21.5 52t52.5 21zM500 135q31 0 52 -21t21 -52t-21 -52.5t-52 -21.5t-52.5 21.5t-21.5 52.5t21.5 52t52.5 21zM834 135q31 0 52 -21t21 -52t-21 -52.5t-52 -21.5t-52.5 21.5t-21.5 52.5t21.5 52
t52.5 21z" />
    <glyph glyph-name="perthousand" unicode="&#x2030;" horiz-adv-x="1083" 
d="M63 439q0 88 57 158t129 70q49 0 79 -35q31 -38 31 -93q0 -86 -56.5 -155.5t-127.5 -69.5q-50 0 -82 35q-30 35 -30 90zM129 405q0 -28 13 -45.5t34 -17.5t40 19q25 25 51 97.5t26 117.5q0 29 -12 46t-32 17q-21 0 -42 -21q-33 -33 -55.5 -100.5t-22.5 -112.5zM811 119
q0 88 57 158t129 70q49 0 79 -35q31 -38 31 -93q0 -86 -56.5 -155.5t-127.5 -69.5q-50 0 -82 35q-30 35 -30 90zM877 85q0 -28 13 -45.5t34 -17.5t40 19q25 25 51 97.5t26 117.5q0 29 -12 46t-32 17q-21 0 -42 -21q-33 -33 -55.5 -100.5t-22.5 -112.5zM473 119q0 88 57 158
t129 70q49 0 79 -35q31 -38 31 -93q0 -86 -56.5 -155.5t-127.5 -69.5q-50 0 -82 35q-30 35 -30 90zM539 85q0 -28 13 -45.5t34 -17.5t40 19q25 25 51 97.5t26 117.5q0 29 -12 46t-32 17q-21 0 -42 -21q-33 -33 -55.5 -100.5t-22.5 -112.5zM67 -42l646 736h53l-646 -736h-53z
" />
    <glyph glyph-name="guilsinglleft" unicode="&#x2039;" horiz-adv-x="271" 
d="M150 254l46 -209h-66l-52 220l148 195h82z" />
    <glyph glyph-name="guilsinglright" unicode="&#x203a;" horiz-adv-x="271" 
d="M169 251l-47 209h67l51 -220l-147 -195h-82z" />
    <glyph glyph-name="fraction" unicode="&#x2044;" horiz-adv-x="125" 
d="M-260 -42l646 736h53l-646 -736h-53z" />
    <glyph glyph-name="Euro" unicode="&#x20ac;" horiz-adv-x="573" 
d="M518 300l-16 -59h-291v-5q0 -96 32.5 -151t87.5 -55q43 0 84 21t61 39l30 -33q-74 -69 -179 -69q-98 0 -156.5 67.5t-59.5 185.5h-73l16 59h60q3 29 9 56h-73l16 59h74q40 112 119.5 182.5t170.5 70.5t171 -66l-19 -129h-42q2 11 2 31q0 48 -29 84t-76 36
q-61 0 -114.5 -58t-83.5 -151h303l-16 -59h-303q-6 -27 -9 -56h304z" />
    <glyph glyph-name="afii61289" unicode="&#x2113;" horiz-adv-x="410" 
d="M358 115l14 -17q-89 -108 -195 -108q-67 0 -90 37q-23 42 3 140l20 75l-74 -45l-5 24l88 56l33 122q32 119 56 170t65 87q49 45 98 45q44 0 58 -38.5t-2 -88.5q-21 -78 -77.5 -145.5t-147.5 -137.5l-22 -84q-23 -96 -11 -130.5t58 -34.5q62 0 131 73zM247 457l-33 -123
q129 115 161 238q12 40 7 69.5t-28 29.5q-28 0 -52 -48t-55 -166z" />
    <glyph glyph-name="trademark" unicode="&#x2122;" horiz-adv-x="1000" 
d="M21 662h364l7 -103h-17q-5 43 -26 59t-69 16h-29v-285q0 -40 9.5 -51.5t41.5 -12.5v-17h-197v17q35 3 42.5 13t7.5 51v285h-30q-46 0 -66.5 -16.5t-27.5 -58.5h-16zM589 662l125 -265l123 265h148v-18q-34 -1 -43 -12.5t-9 -53.5v-229q0 -40 9 -51t43 -13v-17h-205v17
q37 1 47 12t10 52v242h-2l-150 -323h-15l-150 320h-2v-242q0 -39 10.5 -50.5t50.5 -10.5v-17h-145v17q35 1 44.5 12t9.5 52v229q0 43 -9.5 54.5t-44.5 11.5v18h155z" />
    <glyph glyph-name="Omega" unicode="&#x2126;" horiz-adv-x="749" 
d="M705 137l-62 -137h-241l-2 19q1 2 42 47t57 65.5t47.5 63t50 82t29.5 80.5q38 143 -2.5 210t-125.5 67q-90 0 -163.5 -68t-112.5 -214q-7 -25 -10 -51t-4 -46t3.5 -47t6.5 -40.5t10.5 -42t11 -36.5t13.5 -37.5t12 -32.5l-12 -19h-240l13 137l24 2q4 -47 15.5 -61
t43.5 -14h108q-17 17 -28 30t-27 35.5t-25 45t-16.5 51t-6 62.5t11.5 71q37 137 145 221t237 84q132 0 192.5 -79.5t24.5 -216.5q-13 -48 -40 -92.5t-66.5 -84.5t-71.5 -67t-76 -60h113q33 0 50 13t46 62z" />
    <glyph glyph-name="estimated" unicode="&#x212e;" horiz-adv-x="949" 
d="M917 317h-609q-5 0 -5 -4v-184q0 -11 8 -21q97 -100 230 -100q146 0 243 112h54q-51 -60 -129.5 -95.5t-168.5 -35.5q-155 0 -265.5 99t-110.5 238q0 141 110 240t266 99q157 0 267 -99t110 -240v-9zM779 342v185q0 13 -9 22q-98 96 -229 96q-132 0 -229 -99
q-9 -9 -9 -23v-181q0 -6 5 -6h467q4 0 4 6z" />
    <glyph glyph-name="partialdiff" unicode="&#x2202;" horiz-adv-x="536" 
d="M329 415h1q39 0 73 -18.5t48 -52.5q21 55 35 100q24 84 13 152q-6 38 -35 66.5t-72 28.5q-67 0 -155 -58q-8 -1 -15 9.5t-7 24t7 26.5q80 41 155 41q132 0 172 -135q25 -91 -10 -221q-38 -143 -113 -242q-112 -146 -245 -146q-84 0 -121 52.5t-13 142.5q25 91 102 159
q85 71 180 71zM341 376h-1q-70 0 -127 -56q-61 -62 -91 -172q-15 -55 2.5 -91.5t64.5 -36.5q70 0 145 99q48 64 99 184q-6 25 -30.5 49t-61.5 24z" />
    <glyph glyph-name="Delta" unicode="&#x2206;" horiz-adv-x="642" 
d="M560 0h-570l7 23l429 630l42 11l98 -641zM467 45l-73 505l-339 -505h412z" />
    <glyph glyph-name="product" unicode="&#x220f;" horiz-adv-x="821" 
d="M793 658v-25q-64 -4 -77.5 -14t-13.5 -50v-550q0 -47 13.5 -59t75.5 -16v-25h-258v25q60 4 73 15t13 60v575q0 21 -6.5 26.5t-28.5 5.5h-218q-21 0 -27 -5t-6 -23v-579q0 -48 11 -59.5t67 -15.5v-25h-250v25q61 4 74.5 16t13.5 59v550q0 40 -13.5 50t-77.5 14v25h635z
" />
    <glyph glyph-name="summation" unicode="&#x2211;" horiz-adv-x="689" 
d="M666 99l-43 -184h-465v24l226 330l-220 365v24h458q0 -4 5 -62.5t7 -95.5l-25 -6q-12 67 -34 103q-10 17 -30 23.5t-74 6.5h-201l188 -307l-225 -333h267q67 0 87.5 17t52.5 102z" />
    <glyph glyph-name="minus" unicode="&#x2212;" 
d="M99 316h539v-90h-539v90z" />
    <glyph glyph-name="uni2215" unicode="&#x2215;" horiz-adv-x="125" 
d="M-260 -42l646 736h53l-646 -736h-53z" />
    <glyph glyph-name="uni2219" unicode="&#x2219;" horiz-adv-x="292" 
d="M187 394q29 0 48.5 -20t19.5 -48t-19.5 -48t-48.5 -20t-48.5 20t-19.5 48t19.5 48t48.5 20z" />
    <glyph glyph-name="radical" unicode="&#x221a;" horiz-adv-x="681" 
d="M665 843l-165 -980l-20 -11l-219 525l-86 -43l-12 31l154 74l172 -426h2l137 839z" />
    <glyph glyph-name="infinity" unicode="&#x221e;" horiz-adv-x="811" 
d="M764 271v-1q0 -69 -44 -112.5t-104 -43.5q-43 0 -83.5 26.5t-91.5 86.5q-48 -55 -88 -84t-92 -29q-60 0 -103 44t-43 109q0 67 43.5 111t109.5 44q49 0 90 -29t87 -83q56 63 85 83q43 29 92 29q63 0 102.5 -42t39.5 -109zM267 166h2q10 0 19 1.5t18.5 6.5t17 8t17.5 11.5
t15 12.5t15.5 15t13.5 14t14.5 16t12.5 14q-28 36 -43.5 53t-45 35.5t-60.5 18.5q-43 0 -68.5 -30.5t-25.5 -75.5q0 -42 27.5 -71t70.5 -29zM616 372h-1q-18 0 -35 -6.5t-34 -20.5t-27 -23.5t-27 -29t-21 -23.5q51 -57 81.5 -80t65.5 -23q42 0 67 31t25 70q0 48 -26 76.5
t-68 28.5z" />
    <glyph glyph-name="integral" unicode="&#x222b;" horiz-adv-x="500" 
d="M292 16l-19 390q-18 399 148 399q21 0 39.5 -11.5t18.5 -32.5q0 -19 -12 -30t-29 -11t-29 22.5t-22 22.5q-49 0 -42 -163l18 -368q20 -425 -149 -425q-26 0 -42.5 13.5t-16.5 32.5q-1 18 14 31t35 13q14 0 25.5 -24t21.5 -24q23 0 34 45t7 120z" />
    <glyph glyph-name="approxequal" unicode="&#x2248;" horiz-adv-x="611" 
d="M533 412l35 -32q-51 -91 -128 -91q-28 0 -51 8.5t-62 30.5q-55 32 -89 32q-31 0 -52.5 -18t-44.5 -52l-35 31q22 42 59 67t79 25q11 0 22.5 -2t19 -4t19.5 -7.5t16 -7.5t16.5 -9t13.5 -8q3 -2 13.5 -7.5t14 -7.5t11.5 -6t12.5 -5t11.5 -3.5t13.5 -3t13.5 -0.5
q27 0 48.5 17t43.5 53zM533 245l35 -32q-52 -91 -129 -91q-41 0 -112 39q-56 32 -89 32q-30 0 -52 -18.5t-45 -52.5l-35 32q22 42 59 67t79 25q13 0 25.5 -2t25.5 -7.5t19 -8t20.5 -10.5t15.5 -9q4 -2 14.5 -8t15 -8.5t13.5 -6.5t15.5 -6t15 -3.5t17.5 -1.5q28 0 48.5 16.5
t43.5 53.5z" />
    <glyph glyph-name="notequal" unicode="&#x2260;" horiz-adv-x="633" 
d="M479 478l-42 -91h147v-53h-169l-63 -137h232v-53h-254l-52 -113l-43 19l43 94h-142v53h165l62 137h-227v53h249l51 111z" />
    <glyph glyph-name="lessequal" unicode="&#x2264;" horiz-adv-x="654" 
d="M603 92l-441 214v57l441 213v-63l-383 -177v-2l383 -179v-63zM606 0h-448v55h448v-55z" />
    <glyph glyph-name="greaterequal" unicode="&#x2265;" horiz-adv-x="655" 
d="M163 576l441 -213v-57l-441 -214v63l383 178v2l-383 178v63zM605 0h-447v55h447v-55z" />
    <glyph glyph-name="lozenge" unicode="&#x25ca;" horiz-adv-x="691" 
d="M644 315l-201 -384h-62l-200 384l201 388h61zM582 315l-167 329h-4l-168 -327l169 -330h3z" />
    <glyph glyph-name="f_i" unicode="&#xfb01;" horiz-adv-x="646" 
d="M100 435h79q46 128 123 195t178 67q69 0 114 -25t45 -64q0 -20 -13 -32t-34 -12t-31 10t-13 24.5t-7.5 29t-21.5 24.5t-49 10q-128 0 -187 -227h215q62 0 86 12h28l-102 -336q-7 -21 -7 -31q0 -8 6 -14t15 -6q32 0 79 70h36q-38 -65 -90 -103.5t-101 -38.5
q-28 0 -44 14.5t-16 37.5q0 20 11 57l78 260q1 5 2.5 9.5l2.5 7.5t1 5q0 20 -38 20h-173l-12 -45q-105 -395 -195 -485q-56 -56 -124 -56q-40 0 -66 18t-26 44q0 21 14 35.5t33 14.5q17 0 28 -11t15 -23.5t11.5 -23.5t20.5 -11q28 0 48 29.5t36 94.5l41 169q33 138 72 250
h-79z" />
    <glyph glyph-name="f_l" unicode="&#xfb02;" horiz-adv-x="646" 
d="M670 697h19l-177 -576q-7 -21 -7 -41q0 -8 5 -13.5t12 -5.5q36 0 82 71h35q-30 -59 -85.5 -101.5t-104.5 -42.5q-27 0 -42.5 14t-15.5 37q0 24 7 42l97 318h-223l-33 -119q-90 -327 -170 -407q-60 -60 -128 -60q-39 0 -65 18t-26 44q0 21 13.5 35.5t33.5 14.5
q18 0 28.5 -11t13.5 -23.5t10.5 -23.5t21.5 -11q56 0 85 124l40 169q25 108 72 250h-79l11 36h79q46 128 122 195t174 67q30 0 72 -7q7 -2 15.5 -4t13 -3t6.5 -1q36 0 88 15zM506 435l46 150q-4 8 -7.5 27.5t-11.5 27.5q-21 21 -62 21q-128 0 -188 -226h223z" />
    </font>
</defs>
</svg>
