<?xml version="1.0" encoding="utf-8"?>
<!-- Generator: Adobe Illustrator 16.0.0, SVG Export Plug-In . SVG Version: 6.00 Build 0)  -->
<!DOCTYPE svg PUBLIC "-//W3C//DTD SVG 1.1//EN" "http://www.w3.org/Graphics/SVG/1.1/DTD/svg11.dtd">
<svg version="1.1" id="Calque_1" xmlns="http://www.w3.org/2000/svg" xmlns:xlink="http://www.w3.org/1999/xlink" x="0px" y="0px"
	 width="289.506px" height="74.691px" viewBox="0 0 289.506 74.691" enable-background="new 0 0 289.506 74.691"
	 xml:space="preserve">
<g>
	<path class="logo-letter" d="M14.555,7.366l7.521,43.686h0.223l7.894-43.686H41.29L29.076,66.441H15.3L3.086,7.366H14.555z"/>
	<path d="M52.085,7.366H65.34l14.075,59.075h-11.17l-2.458-12.494H51.638l-2.457,12.494H38.01L52.085,7.366z M53.5,44.185h10.425
		l-5.138-26.559h-0.149L53.5,44.185z"/>
	<path d="M105.104,27.306c0-8.604-1.563-12.329-6.404-12.329c-5.436,0-6.702,6.041-6.702,22.753c0,17.872,2.234,21.098,6.851,21.098
		c3.872,0,6.702-2.233,6.702-14.976h10.724c0,12.742-2.83,23.746-16.905,23.746c-16.085,0-18.096-12.742-18.096-30.696
		S83.284,6.208,99.369,6.208c15.341,0,16.458,12.494,16.458,21.098H105.104z"/>
	<path d="M130.643,7.366h13.255l14.075,59.075h-11.17l-2.458-12.494h-14.149l-2.458,12.494h-11.17L130.643,7.366z M132.057,44.185
		h10.426l-5.138-26.559h-0.149L132.057,44.185z"/>
	<path d="M160.949,7.366h19.809c8.788,0,14.149,5.13,14.149,15.224c0,7.86-2.83,13.155-8.863,14.562v0.166
		c7.299,1.076,8.415,5.544,8.565,18.037c0.073,6.206,0.371,9.433,2.383,10.591v0.497h-11.617c-1.044-1.655-1.266-3.889-1.342-6.205
		l-0.298-11.335c-0.148-4.633-2.01-7.446-6.329-7.446h-5.734v24.987h-10.723V7.366z M171.671,33.18h4.469
		c5.138,0,8.043-2.482,8.043-8.853c0-5.461-2.607-8.191-7.447-8.191h-5.064V33.18z"/>
	<path d="M201.829,7.366h15.937l7.596,41.7h0.148l7.671-41.7h15.862v59.075h-9.83V19.281h-0.148l-9.458,47.161h-8.34l-9.458-47.161
		h-0.149v47.161h-9.83V7.366z"/>
	<path d="M285.675,7.366v9.763h-18.991v13.9h17.873v9.763h-17.873v15.886h19.735v9.764h-30.457V7.366H285.675z"/>
</g>
</svg>
